<?xml version="1.0" encoding="utf-8" standalone="no"?>
<!DOCTYPE svg PUBLIC "-//W3C//DTD SVG 1.1//EN"
  "http://www.w3.org/Graphics/SVG/1.1/DTD/svg11.dtd">
<svg xmlns:xlink="http://www.w3.org/1999/xlink" width="864pt" height="648pt" viewBox="0 0 864 648" xmlns="http://www.w3.org/2000/svg" version="1.1">
 <metadata>
  <rdf:RDF xmlns:dc="http://purl.org/dc/elements/1.1/" xmlns:cc="http://creativecommons.org/ns#" xmlns:rdf="http://www.w3.org/1999/02/22-rdf-syntax-ns#">
   <cc:Work>
    <dc:type rdf:resource="http://purl.org/dc/dcmitype/StillImage"/>
    <dc:date>2026-02-02T22:20:34.767971</dc:date>
    <dc:format>image/svg+xml</dc:format>
    <dc:creator>
     <cc:Agent>
      <dc:title>Matplotlib v3.10.8, https://matplotlib.org/</dc:title>
     </cc:Agent>
    </dc:creator>
   </cc:Work>
  </rdf:RDF>
 </metadata>
 <defs>
  <style type="text/css">*{stroke-linejoin: round; stroke-linecap: butt}</style>
 </defs>
 <g id="figure_1">
  <g id="patch_1">
   <path d="M 0 648 
L 864 648 
L 864 0 
L 0 0 
z
" style="fill: #ffffff"/>
  </g>
  <g id="axes_1">
   <g id="patch_2">
    <path d="M 52.688 287.44 
L 853.2 287.44 
L 853.2 26.88 
L 52.688 26.88 
z
" style="fill: #ffffff"/>
   </g>
   <g id="matplotlib.axis_1">
    <g id="xtick_1">
     <g id="line2d_1">
      <path d="M 89.074909 287.44 
L 89.074909 26.88 
" clip-path="url(#p46f3c3ea74)" style="fill: none; stroke: #b0b0b0; stroke-opacity: 0.4; stroke-width: 0.8; stroke-linecap: square"/>
     </g>
     <g id="line2d_2">
      <defs>
       <path id="m172ef853f0" d="M 0 0 
L 0 3.5 
" style="stroke: #000000; stroke-width: 0.8"/>
      </defs>
      <g>
       <use xlink:href="#m172ef853f0" x="89.074909" y="287.44" style="stroke: #000000; stroke-width: 0.8"/>
      </g>
     </g>
     <g id="text_1">
      <!-- 0 -->
      <g transform="translate(85.893659 302.038437) scale(0.1 -0.1)">
       <defs>
        <path id="DejaVuSans-30" d="M 2034 4250 
Q 1547 4250 1301 3770 
Q 1056 3291 1056 2328 
Q 1056 1369 1301 889 
Q 1547 409 2034 409 
Q 2525 409 2770 889 
Q 3016 1369 3016 2328 
Q 3016 3291 2770 3770 
Q 2525 4250 2034 4250 
z
M 2034 4750 
Q 2819 4750 3233 4129 
Q 3647 3509 3647 2328 
Q 3647 1150 3233 529 
Q 2819 -91 2034 -91 
Q 1250 -91 836 529 
Q 422 1150 422 2328 
Q 422 3509 836 4129 
Q 1250 4750 2034 4750 
z
" transform="scale(0.015625)"/>
       </defs>
       <use xlink:href="#DejaVuSans-30"/>
      </g>
     </g>
    </g>
    <g id="xtick_2">
     <g id="line2d_3">
      <path d="M 234.914224 287.44 
L 234.914224 26.88 
" clip-path="url(#p46f3c3ea74)" style="fill: none; stroke: #b0b0b0; stroke-opacity: 0.4; stroke-width: 0.8; stroke-linecap: square"/>
     </g>
     <g id="line2d_4">
      <g>
       <use xlink:href="#m172ef853f0" x="234.914224" y="287.44" style="stroke: #000000; stroke-width: 0.8"/>
      </g>
     </g>
     <g id="text_2">
      <!-- 10 -->
      <g transform="translate(228.551724 302.038437) scale(0.1 -0.1)">
       <defs>
        <path id="DejaVuSans-31" d="M 794 531 
L 1825 531 
L 1825 4091 
L 703 3866 
L 703 4441 
L 1819 4666 
L 2450 4666 
L 2450 531 
L 3481 531 
L 3481 0 
L 794 0 
L 794 531 
z
" transform="scale(0.015625)"/>
       </defs>
       <use xlink:href="#DejaVuSans-31"/>
       <use xlink:href="#DejaVuSans-30" transform="translate(63.623047 0)"/>
      </g>
     </g>
    </g>
    <g id="xtick_3">
     <g id="line2d_5">
      <path d="M 380.753539 287.44 
L 380.753539 26.88 
" clip-path="url(#p46f3c3ea74)" style="fill: none; stroke: #b0b0b0; stroke-opacity: 0.4; stroke-width: 0.8; stroke-linecap: square"/>
     </g>
     <g id="line2d_6">
      <g>
       <use xlink:href="#m172ef853f0" x="380.753539" y="287.44" style="stroke: #000000; stroke-width: 0.8"/>
      </g>
     </g>
     <g id="text_3">
      <!-- 20 -->
      <g transform="translate(374.391039 302.038437) scale(0.1 -0.1)">
       <defs>
        <path id="DejaVuSans-32" d="M 1228 531 
L 3431 531 
L 3431 0 
L 469 0 
L 469 531 
Q 828 903 1448 1529 
Q 2069 2156 2228 2338 
Q 2531 2678 2651 2914 
Q 2772 3150 2772 3378 
Q 2772 3750 2511 3984 
Q 2250 4219 1831 4219 
Q 1534 4219 1204 4116 
Q 875 4013 500 3803 
L 500 4441 
Q 881 4594 1212 4672 
Q 1544 4750 1819 4750 
Q 2544 4750 2975 4387 
Q 3406 4025 3406 3419 
Q 3406 3131 3298 2873 
Q 3191 2616 2906 2266 
Q 2828 2175 2409 1742 
Q 1991 1309 1228 531 
z
" transform="scale(0.015625)"/>
       </defs>
       <use xlink:href="#DejaVuSans-32"/>
       <use xlink:href="#DejaVuSans-30" transform="translate(63.623047 0)"/>
      </g>
     </g>
    </g>
    <g id="xtick_4">
     <g id="line2d_7">
      <path d="M 526.592854 287.44 
L 526.592854 26.88 
" clip-path="url(#p46f3c3ea74)" style="fill: none; stroke: #b0b0b0; stroke-opacity: 0.4; stroke-width: 0.8; stroke-linecap: square"/>
     </g>
     <g id="line2d_8">
      <g>
       <use xlink:href="#m172ef853f0" x="526.592854" y="287.44" style="stroke: #000000; stroke-width: 0.8"/>
      </g>
     </g>
     <g id="text_4">
      <!-- 30 -->
      <g transform="translate(520.230354 302.038437) scale(0.1 -0.1)">
       <defs>
        <path id="DejaVuSans-33" d="M 2597 2516 
Q 3050 2419 3304 2112 
Q 3559 1806 3559 1356 
Q 3559 666 3084 287 
Q 2609 -91 1734 -91 
Q 1441 -91 1130 -33 
Q 819 25 488 141 
L 488 750 
Q 750 597 1062 519 
Q 1375 441 1716 441 
Q 2309 441 2620 675 
Q 2931 909 2931 1356 
Q 2931 1769 2642 2001 
Q 2353 2234 1838 2234 
L 1294 2234 
L 1294 2753 
L 1863 2753 
Q 2328 2753 2575 2939 
Q 2822 3125 2822 3475 
Q 2822 3834 2567 4026 
Q 2313 4219 1838 4219 
Q 1578 4219 1281 4162 
Q 984 4106 628 3988 
L 628 4550 
Q 988 4650 1302 4700 
Q 1616 4750 1894 4750 
Q 2613 4750 3031 4423 
Q 3450 4097 3450 3541 
Q 3450 3153 3228 2886 
Q 3006 2619 2597 2516 
z
" transform="scale(0.015625)"/>
       </defs>
       <use xlink:href="#DejaVuSans-33"/>
       <use xlink:href="#DejaVuSans-30" transform="translate(63.623047 0)"/>
      </g>
     </g>
    </g>
    <g id="xtick_5">
     <g id="line2d_9">
      <path d="M 672.432169 287.44 
L 672.432169 26.88 
" clip-path="url(#p46f3c3ea74)" style="fill: none; stroke: #b0b0b0; stroke-opacity: 0.4; stroke-width: 0.8; stroke-linecap: square"/>
     </g>
     <g id="line2d_10">
      <g>
       <use xlink:href="#m172ef853f0" x="672.432169" y="287.44" style="stroke: #000000; stroke-width: 0.8"/>
      </g>
     </g>
     <g id="text_5">
      <!-- 40 -->
      <g transform="translate(666.069669 302.038437) scale(0.1 -0.1)">
       <defs>
        <path id="DejaVuSans-34" d="M 2419 4116 
L 825 1625 
L 2419 1625 
L 2419 4116 
z
M 2253 4666 
L 3047 4666 
L 3047 1625 
L 3713 1625 
L 3713 1100 
L 3047 1100 
L 3047 0 
L 2419 0 
L 2419 1100 
L 313 1100 
L 313 1709 
L 2253 4666 
z
" transform="scale(0.015625)"/>
       </defs>
       <use xlink:href="#DejaVuSans-34"/>
       <use xlink:href="#DejaVuSans-30" transform="translate(63.623047 0)"/>
      </g>
     </g>
    </g>
    <g id="xtick_6">
     <g id="line2d_11">
      <path d="M 818.271484 287.44 
L 818.271484 26.88 
" clip-path="url(#p46f3c3ea74)" style="fill: none; stroke: #b0b0b0; stroke-opacity: 0.4; stroke-width: 0.8; stroke-linecap: square"/>
     </g>
     <g id="line2d_12">
      <g>
       <use xlink:href="#m172ef853f0" x="818.271484" y="287.44" style="stroke: #000000; stroke-width: 0.8"/>
      </g>
     </g>
     <g id="text_6">
      <!-- 50 -->
      <g transform="translate(811.908984 302.038437) scale(0.1 -0.1)">
       <defs>
        <path id="DejaVuSans-35" d="M 691 4666 
L 3169 4666 
L 3169 4134 
L 1269 4134 
L 1269 2991 
Q 1406 3038 1543 3061 
Q 1681 3084 1819 3084 
Q 2600 3084 3056 2656 
Q 3513 2228 3513 1497 
Q 3513 744 3044 326 
Q 2575 -91 1722 -91 
Q 1428 -91 1123 -41 
Q 819 9 494 109 
L 494 744 
Q 775 591 1075 516 
Q 1375 441 1709 441 
Q 2250 441 2565 725 
Q 2881 1009 2881 1497 
Q 2881 1984 2565 2268 
Q 2250 2553 1709 2553 
Q 1456 2553 1204 2497 
Q 953 2441 691 2322 
L 691 4666 
z
" transform="scale(0.015625)"/>
       </defs>
       <use xlink:href="#DejaVuSans-35"/>
       <use xlink:href="#DejaVuSans-30" transform="translate(63.623047 0)"/>
      </g>
     </g>
    </g>
    <g id="text_7">
     <!-- $t$ -->
     <g transform="translate(450.944 315.716563) scale(0.1 -0.1)">
      <defs>
       <path id="DejaVuSans-Oblique-74" d="M 2706 3500 
L 2619 3053 
L 1472 3053 
L 1100 1153 
Q 1081 1047 1072 975 
Q 1063 903 1063 863 
Q 1063 663 1183 572 
Q 1303 481 1569 481 
L 2150 481 
L 2053 0 
L 1503 0 
Q 991 0 739 200 
Q 488 400 488 806 
Q 488 878 497 964 
Q 506 1050 525 1153 
L 897 3053 
L 409 3053 
L 500 3500 
L 978 3500 
L 1172 4494 
L 1747 4494 
L 1556 3500 
L 2706 3500 
z
" transform="scale(0.015625)"/>
      </defs>
      <use xlink:href="#DejaVuSans-Oblique-74" transform="translate(0 0.78125)"/>
     </g>
    </g>
   </g>
   <g id="matplotlib.axis_2">
    <g id="ytick_1">
     <g id="line2d_13">
      <path d="M 52.688 275.596364 
L 853.2 275.596364 
" clip-path="url(#p46f3c3ea74)" style="fill: none; stroke: #b0b0b0; stroke-opacity: 0.4; stroke-width: 0.8; stroke-linecap: square"/>
     </g>
     <g id="line2d_14">
      <defs>
       <path id="m66b0eb249d" d="M 0 0 
L -3.5 0 
" style="stroke: #000000; stroke-width: 0.8"/>
      </defs>
      <g>
       <use xlink:href="#m66b0eb249d" x="52.688" y="275.596364" style="stroke: #000000; stroke-width: 0.8"/>
      </g>
     </g>
     <g id="text_8">
      <!-- 0 -->
      <g transform="translate(39.3255 279.395582) scale(0.1 -0.1)">
       <use xlink:href="#DejaVuSans-30"/>
      </g>
     </g>
    </g>
    <g id="ytick_2">
     <g id="line2d_15">
      <path d="M 52.688 237.890349 
L 853.2 237.890349 
" clip-path="url(#p46f3c3ea74)" style="fill: none; stroke: #b0b0b0; stroke-opacity: 0.4; stroke-width: 0.8; stroke-linecap: square"/>
     </g>
     <g id="line2d_16">
      <g>
       <use xlink:href="#m66b0eb249d" x="52.688" y="237.890349" style="stroke: #000000; stroke-width: 0.8"/>
      </g>
     </g>
     <g id="text_9">
      <!-- 1 -->
      <g transform="translate(39.3255 241.689568) scale(0.1 -0.1)">
       <use xlink:href="#DejaVuSans-31"/>
      </g>
     </g>
    </g>
    <g id="ytick_3">
     <g id="line2d_17">
      <path d="M 52.688 200.184334 
L 853.2 200.184334 
" clip-path="url(#p46f3c3ea74)" style="fill: none; stroke: #b0b0b0; stroke-opacity: 0.4; stroke-width: 0.8; stroke-linecap: square"/>
     </g>
     <g id="line2d_18">
      <g>
       <use xlink:href="#m66b0eb249d" x="52.688" y="200.184334" style="stroke: #000000; stroke-width: 0.8"/>
      </g>
     </g>
     <g id="text_10">
      <!-- 2 -->
      <g transform="translate(39.3255 203.983553) scale(0.1 -0.1)">
       <use xlink:href="#DejaVuSans-32"/>
      </g>
     </g>
    </g>
    <g id="ytick_4">
     <g id="line2d_19">
      <path d="M 52.688 162.47832 
L 853.2 162.47832 
" clip-path="url(#p46f3c3ea74)" style="fill: none; stroke: #b0b0b0; stroke-opacity: 0.4; stroke-width: 0.8; stroke-linecap: square"/>
     </g>
     <g id="line2d_20">
      <g>
       <use xlink:href="#m66b0eb249d" x="52.688" y="162.47832" style="stroke: #000000; stroke-width: 0.8"/>
      </g>
     </g>
     <g id="text_11">
      <!-- 3 -->
      <g transform="translate(39.3255 166.277539) scale(0.1 -0.1)">
       <use xlink:href="#DejaVuSans-33"/>
      </g>
     </g>
    </g>
    <g id="ytick_5">
     <g id="line2d_21">
      <path d="M 52.688 124.772305 
L 853.2 124.772305 
" clip-path="url(#p46f3c3ea74)" style="fill: none; stroke: #b0b0b0; stroke-opacity: 0.4; stroke-width: 0.8; stroke-linecap: square"/>
     </g>
     <g id="line2d_22">
      <g>
       <use xlink:href="#m66b0eb249d" x="52.688" y="124.772305" style="stroke: #000000; stroke-width: 0.8"/>
      </g>
     </g>
     <g id="text_12">
      <!-- 4 -->
      <g transform="translate(39.3255 128.571524) scale(0.1 -0.1)">
       <use xlink:href="#DejaVuSans-34"/>
      </g>
     </g>
    </g>
    <g id="ytick_6">
     <g id="line2d_23">
      <path d="M 52.688 87.066291 
L 853.2 87.066291 
" clip-path="url(#p46f3c3ea74)" style="fill: none; stroke: #b0b0b0; stroke-opacity: 0.4; stroke-width: 0.8; stroke-linecap: square"/>
     </g>
     <g id="line2d_24">
      <g>
       <use xlink:href="#m66b0eb249d" x="52.688" y="87.066291" style="stroke: #000000; stroke-width: 0.8"/>
      </g>
     </g>
     <g id="text_13">
      <!-- 5 -->
      <g transform="translate(39.3255 90.86551) scale(0.1 -0.1)">
       <use xlink:href="#DejaVuSans-35"/>
      </g>
     </g>
    </g>
    <g id="ytick_7">
     <g id="line2d_25">
      <path d="M 52.688 49.360276 
L 853.2 49.360276 
" clip-path="url(#p46f3c3ea74)" style="fill: none; stroke: #b0b0b0; stroke-opacity: 0.4; stroke-width: 0.8; stroke-linecap: square"/>
     </g>
     <g id="line2d_26">
      <g>
       <use xlink:href="#m66b0eb249d" x="52.688" y="49.360276" style="stroke: #000000; stroke-width: 0.8"/>
      </g>
     </g>
     <g id="text_14">
      <!-- 6 -->
      <g transform="translate(39.3255 53.159495) scale(0.1 -0.1)">
       <defs>
        <path id="DejaVuSans-36" d="M 2113 2584 
Q 1688 2584 1439 2293 
Q 1191 2003 1191 1497 
Q 1191 994 1439 701 
Q 1688 409 2113 409 
Q 2538 409 2786 701 
Q 3034 994 3034 1497 
Q 3034 2003 2786 2293 
Q 2538 2584 2113 2584 
z
M 3366 4563 
L 3366 3988 
Q 3128 4100 2886 4159 
Q 2644 4219 2406 4219 
Q 1781 4219 1451 3797 
Q 1122 3375 1075 2522 
Q 1259 2794 1537 2939 
Q 1816 3084 2150 3084 
Q 2853 3084 3261 2657 
Q 3669 2231 3669 1497 
Q 3669 778 3244 343 
Q 2819 -91 2113 -91 
Q 1303 -91 875 529 
Q 447 1150 447 2328 
Q 447 3434 972 4092 
Q 1497 4750 2381 4750 
Q 2619 4750 2861 4703 
Q 3103 4656 3366 4563 
z
" transform="scale(0.015625)"/>
       </defs>
       <use xlink:href="#DejaVuSans-36"/>
      </g>
     </g>
    </g>
    <g id="text_15">
     <!-- Phase $\theta$ -->
     <g transform="translate(33.245812 176.76) rotate(-90) scale(0.1 -0.1)">
      <defs>
       <path id="DejaVuSans-50" d="M 1259 4147 
L 1259 2394 
L 2053 2394 
Q 2494 2394 2734 2622 
Q 2975 2850 2975 3272 
Q 2975 3691 2734 3919 
Q 2494 4147 2053 4147 
L 1259 4147 
z
M 628 4666 
L 2053 4666 
Q 2838 4666 3239 4311 
Q 3641 3956 3641 3272 
Q 3641 2581 3239 2228 
Q 2838 1875 2053 1875 
L 1259 1875 
L 1259 0 
L 628 0 
L 628 4666 
z
" transform="scale(0.015625)"/>
       <path id="DejaVuSans-68" d="M 3513 2113 
L 3513 0 
L 2938 0 
L 2938 2094 
Q 2938 2591 2744 2837 
Q 2550 3084 2163 3084 
Q 1697 3084 1428 2787 
Q 1159 2491 1159 1978 
L 1159 0 
L 581 0 
L 581 4863 
L 1159 4863 
L 1159 2956 
Q 1366 3272 1645 3428 
Q 1925 3584 2291 3584 
Q 2894 3584 3203 3211 
Q 3513 2838 3513 2113 
z
" transform="scale(0.015625)"/>
       <path id="DejaVuSans-61" d="M 2194 1759 
Q 1497 1759 1228 1600 
Q 959 1441 959 1056 
Q 959 750 1161 570 
Q 1363 391 1709 391 
Q 2188 391 2477 730 
Q 2766 1069 2766 1631 
L 2766 1759 
L 2194 1759 
z
M 3341 1997 
L 3341 0 
L 2766 0 
L 2766 531 
Q 2569 213 2275 61 
Q 1981 -91 1556 -91 
Q 1019 -91 701 211 
Q 384 513 384 1019 
Q 384 1609 779 1909 
Q 1175 2209 1959 2209 
L 2766 2209 
L 2766 2266 
Q 2766 2663 2505 2880 
Q 2244 3097 1772 3097 
Q 1472 3097 1187 3025 
Q 903 2953 641 2809 
L 641 3341 
Q 956 3463 1253 3523 
Q 1550 3584 1831 3584 
Q 2591 3584 2966 3190 
Q 3341 2797 3341 1997 
z
" transform="scale(0.015625)"/>
       <path id="DejaVuSans-73" d="M 2834 3397 
L 2834 2853 
Q 2591 2978 2328 3040 
Q 2066 3103 1784 3103 
Q 1356 3103 1142 2972 
Q 928 2841 928 2578 
Q 928 2378 1081 2264 
Q 1234 2150 1697 2047 
L 1894 2003 
Q 2506 1872 2764 1633 
Q 3022 1394 3022 966 
Q 3022 478 2636 193 
Q 2250 -91 1575 -91 
Q 1294 -91 989 -36 
Q 684 19 347 128 
L 347 722 
Q 666 556 975 473 
Q 1284 391 1588 391 
Q 1994 391 2212 530 
Q 2431 669 2431 922 
Q 2431 1156 2273 1281 
Q 2116 1406 1581 1522 
L 1381 1569 
Q 847 1681 609 1914 
Q 372 2147 372 2553 
Q 372 3047 722 3315 
Q 1072 3584 1716 3584 
Q 2034 3584 2315 3537 
Q 2597 3491 2834 3397 
z
" transform="scale(0.015625)"/>
       <path id="DejaVuSans-65" d="M 3597 1894 
L 3597 1613 
L 953 1613 
Q 991 1019 1311 708 
Q 1631 397 2203 397 
Q 2534 397 2845 478 
Q 3156 559 3463 722 
L 3463 178 
Q 3153 47 2828 -22 
Q 2503 -91 2169 -91 
Q 1331 -91 842 396 
Q 353 884 353 1716 
Q 353 2575 817 3079 
Q 1281 3584 2069 3584 
Q 2775 3584 3186 3129 
Q 3597 2675 3597 1894 
z
M 3022 2063 
Q 3016 2534 2758 2815 
Q 2500 3097 2075 3097 
Q 1594 3097 1305 2825 
Q 1016 2553 972 2059 
L 3022 2063 
z
" transform="scale(0.015625)"/>
       <path id="DejaVuSans-20" transform="scale(0.015625)"/>
       <path id="DejaVuSans-Oblique-3b8" d="M 2913 2219 
L 925 2219 
Q 791 1284 928 888 
Q 1100 400 1566 400 
Q 2034 400 2391 891 
Q 2703 1322 2913 2219 
z
M 3009 2750 
Q 3094 3638 2984 3950 
Q 2813 4444 2353 4444 
Q 1875 4444 1525 3956 
Q 1250 3563 1034 2750 
L 3009 2750 
z
M 2444 4913 
Q 3194 4913 3494 4250 
Q 3794 3591 3566 2422 
Q 3341 1256 2781 594 
Q 2225 -72 1475 -72 
Q 722 -72 425 594 
Q 128 1256 353 2422 
Q 581 3591 1134 4250 
Q 1691 4913 2444 4913 
z
" transform="scale(0.015625)"/>
      </defs>
      <use xlink:href="#DejaVuSans-50" transform="translate(0 0.234375)"/>
      <use xlink:href="#DejaVuSans-68" transform="translate(60.302734 0.234375)"/>
      <use xlink:href="#DejaVuSans-61" transform="translate(123.681641 0.234375)"/>
      <use xlink:href="#DejaVuSans-73" transform="translate(184.960938 0.234375)"/>
      <use xlink:href="#DejaVuSans-65" transform="translate(237.060547 0.234375)"/>
      <use xlink:href="#DejaVuSans-20" transform="translate(298.583984 0.234375)"/>
      <use xlink:href="#DejaVuSans-Oblique-3b8" transform="translate(330.371094 0.234375)"/>
     </g>
    </g>
   </g>
   <g id="line2d_27">
    <path d="M 89.074909 185.018655 
L 90.533302 183.786046 
L 91.991695 182.982914 
L 93.450089 182.546781 
L 94.908482 182.382484 
L 97.825268 182.350687 
L 99.283661 182.189531 
L 100.742054 181.745465 
L 102.200447 180.909354 
L 103.658841 179.607349 
L 105.117234 177.801544 
L 106.575627 175.484907 
L 108.03402 172.673374 
L 109.492413 169.397682 
L 110.950806 165.696477 
L 112.409199 161.611261 
L 115.325986 152.450559 
L 118.242772 142.20994 
L 121.159558 131.127552 
L 125.534738 113.315596 
L 129.909917 94.458387 
L 135.74349 68.184031 
L 141.577062 41.010328 
L 143.035456 271.024634 
L 151.785815 228.966665 
L 163.45296 171.665541 
L 178.036891 98.880543 
L 189.704036 40.085278 
L 191.16243 269.624169 
L 215.955113 143.645804 
L 236.372617 39.320171 
L 237.83101 268.768639 
L 281.582805 44.257361 
L 283.041198 273.673726 
L 328.251386 40.979271 
L 329.709779 270.379905 
L 373.461573 44.845863 
L 374.919966 274.238145 
L 420.130154 40.981602 
L 421.588547 270.368692 
L 465.340342 44.513725 
L 466.798735 273.897631 
L 512.008923 40.433767 
L 513.467316 269.81562 
L 557.21911 43.838818 
L 558.677503 273.219844 
L 603.887691 39.692298 
L 605.346084 269.07001 
L 649.097879 42.894032 
L 650.556272 272.269047 
L 694.308066 46.122126 
L 695.766459 275.4982 
L 740.976647 41.839407 
L 742.43504 271.21629 
L 786.186835 45.030403 
L 787.645228 274.40415 
L 816.813091 123.610124 
L 816.813091 123.610124 
" clip-path="url(#p46f3c3ea74)" style="fill: none; stroke: #1f77b4; stroke-opacity: 0.6; stroke-width: 0.6; stroke-linecap: square"/>
   </g>
   <g id="line2d_28">
    <path d="M 89.074909 252.587564 
L 90.533302 250.980131 
L 91.991695 248.862188 
L 93.450089 246.241536 
L 94.908482 243.143901 
L 96.366875 239.605449 
L 97.825268 235.666994 
L 100.742054 226.754277 
L 103.658841 216.709427 
L 106.575627 205.781798 
L 110.950806 188.145434 
L 115.325986 169.415499 
L 121.159558 143.259892 
L 128.451524 109.284054 
L 137.201883 67.307502 
L 143.035456 38.83359 
L 144.493849 268.582089 
L 157.619387 203.462409 
L 175.120105 115.473648 
L 189.704036 41.552652 
L 191.16243 271.053363 
L 221.788686 114.77796 
L 236.372617 40.077476 
L 237.83101 269.51418 
L 281.582805 44.774081 
L 283.041198 274.185694 
L 328.251386 41.392843 
L 329.709779 270.791475 
L 373.461573 45.217784 
L 374.919966 274.60928 
L 420.130154 41.339555 
L 421.588547 270.726512 
L 465.340342 44.873447 
L 466.798735 274.257581 
L 512.008923 40.804678 
L 513.467316 270.186993 
L 557.21911 44.226621 
L 558.677503 273.608276 
L 603.887691 40.103302 
L 605.346084 269.481843 
L 649.097879 43.329088 
L 650.556272 272.704821 
L 695.766459 39.042118 
L 697.224853 268.418928 
L 740.976647 42.320058 
L 742.43504 271.69772 
L 786.186835 45.535225 
L 787.645228 274.909701 
L 816.813091 124.129934 
L 816.813091 124.129934 
" clip-path="url(#p46f3c3ea74)" style="fill: none; stroke: #ff7f0e; stroke-opacity: 0.6; stroke-width: 0.6; stroke-linecap: square"/>
   </g>
   <g id="line2d_29">
    <path d="M 89.074909 205.755309 
L 90.533302 205.644227 
L 93.450089 205.683727 
L 94.908482 205.537341 
L 96.366875 205.094585 
L 97.825268 204.248507 
L 99.283661 202.928264 
L 100.742054 201.099096 
L 102.200447 198.756756 
L 103.658841 195.91934 
L 105.117234 192.61908 
L 106.575627 188.89554 
L 108.03402 184.790699 
L 110.950806 175.599359 
L 113.867593 165.338872 
L 116.784379 154.245644 
L 121.159558 136.430115 
L 125.534738 117.579711 
L 131.36831 91.32526 
L 138.660276 57.290426 
L 141.577062 43.405796 
L 143.035456 273.331074 
L 153.244208 223.733496 
L 166.369746 158.775598 
L 183.870464 70.979289 
L 189.704036 41.520238 
L 191.16243 271.057841 
L 218.871899 130.267949 
L 236.372617 40.919271 
L 237.83101 270.377169 
L 283.041198 38.723636 
L 284.499591 268.152393 
L 328.251386 43.384569 
L 329.709779 272.800657 
L 374.919966 40.263367 
L 376.37836 269.673527 
L 420.130154 44.528916 
L 421.588547 273.937465 
L 466.798735 41.292033 
L 468.257128 270.702503 
L 512.008923 45.679502 
L 513.467316 275.096158 
L 558.677503 42.875438 
L 560.135897 272.306583 
L 605.346084 40.778493 
L 606.804477 270.239768 
L 644.722699 77.059733 
L 652.014665 40.120695 
L 653.473058 269.658836 
L 673.890562 166.965162 
L 688.474494 94.592784 
L 698.683246 44.776441 
L 700.141639 274.655037 
L 708.891998 233.035678 
L 716.183964 199.420861 
L 722.017536 173.594478 
L 726.392716 155.125985 
L 730.767895 137.740458 
L 733.684681 126.950192 
L 736.601468 116.987613 
L 739.518254 108.059402 
L 740.976647 104.059243 
L 742.43504 100.413084 
L 743.893433 97.155302 
L 745.351827 94.318604 
L 746.81022 91.930858 
L 748.268613 90.010642 
L 749.727006 88.561521 
L 751.185399 87.565447 
L 752.643792 86.976363 
L 754.102185 86.715836 
L 758.477365 86.679663 
L 759.935758 86.432442 
L 761.394151 85.843523 
L 762.852544 84.819487 
L 764.310938 83.30383 
L 765.769331 81.274473 
L 767.227724 78.736832 
L 768.686117 75.715392 
L 770.14451 72.245926 
L 771.602903 68.36942 
L 774.51969 59.561599 
L 777.436476 49.600759 
L 780.353262 38.741417 
L 781.811655 269.952482 
L 786.186835 251.984783 
L 790.562014 233.028039 
L 796.395587 206.676721 
L 803.687553 172.563479 
L 812.437911 130.510026 
L 816.813091 109.167626 
L 816.813091 109.167626 
" clip-path="url(#p46f3c3ea74)" style="fill: none; stroke: #2ca02c; stroke-opacity: 0.6; stroke-width: 0.6; stroke-linecap: square"/>
   </g>
   <g id="line2d_30">
    <path d="M 89.074909 116.0419 
L 99.283661 67.289349 
L 105.117234 40.163227 
L 106.575627 270.410282 
L 112.409199 244.344486 
L 116.784379 225.612278 
L 121.159558 207.856458 
L 124.076345 196.737469 
L 126.993131 186.360048 
L 129.909917 176.910797 
L 132.826704 168.619546 
L 134.285097 164.990473 
L 135.74349 161.752041 
L 137.201883 158.937442 
L 138.660276 156.575033 
L 140.118669 154.683819 
L 141.577062 153.267629 
L 143.035456 152.308392 
L 144.493849 151.759601 
L 145.952242 151.541846 
L 150.327421 151.632281 
L 151.785815 151.420628 
L 153.244208 150.861837 
L 154.702601 149.862224 
L 156.160994 148.365656 
L 157.619387 146.350838 
L 159.07778 143.824146 
L 160.536173 140.811006 
L 161.994567 137.348022 
L 163.45296 133.476839 
L 166.369746 124.678077 
L 169.286532 114.726086 
L 172.203319 103.876545 
L 176.578498 86.33954 
L 180.953678 67.696673 
L 186.78725 41.648674 
L 188.245643 271.889903 
L 195.537609 237.822652 
L 204.287968 195.829891 
L 215.955113 138.668208 
L 231.997438 58.787856 
L 234.914224 44.158575 
L 236.372617 273.748356 
L 259.706908 155.914708 
L 281.582805 44.724505 
L 283.041198 274.209639 
L 328.251386 43.331137 
L 329.709779 272.78434 
L 374.919966 41.331505 
L 376.37836 270.776411 
L 421.588547 39.302575 
L 423.04694 268.7543 
L 466.798735 45.220604 
L 468.257128 274.699237 
L 503.258564 96.825489 
L 513.467316 45.254638 
L 514.925709 274.818144 
L 535.343213 172.535912 
L 549.927144 100.580666 
L 560.135897 51.189648 
L 561.59429 44.229708 
L 563.052683 274.213201 
L 570.344649 240.095319 
L 576.178221 213.650308 
L 582.011794 188.316527 
L 586.386973 170.3582 
L 589.30376 159.061867 
L 592.220546 148.462322 
L 595.137332 138.734528 
L 598.054118 130.095931 
L 599.512512 126.264268 
L 600.970905 122.803464 
L 602.429298 119.74782 
L 603.887691 117.128742 
L 605.346084 114.970988 
L 606.804477 113.287578 
L 608.26287 112.07351 
L 609.721264 111.298958 
L 611.179657 110.903403 
L 612.63805 110.792835 
L 617.013229 110.830911 
L 618.471623 110.477323 
L 619.930016 109.73189 
L 621.388409 108.517386 
L 622.846802 106.793579 
L 624.305195 104.552219 
L 625.763588 101.808935 
L 627.221981 98.59478 
L 628.680375 94.949067 
L 630.138768 90.914111 
L 633.055554 81.84148 
L 635.97234 71.676992 
L 638.889127 60.662995 
L 643.264306 42.944807 
L 644.722699 273.701713 
L 649.097879 254.653005 
L 654.931451 228.22998 
L 662.223417 194.0782 
L 670.973776 152.0226 
L 682.640921 94.812394 
L 692.849673 44.081086 
L 694.308066 273.710659 
L 714.72557 171.061319 
L 739.518254 45.357492 
L 740.976647 274.854272 
L 780.353262 73.971195 
L 786.186835 44.144428 
L 787.645228 273.600052 
L 816.813091 124.337515 
L 816.813091 124.337515 
" clip-path="url(#p46f3c3ea74)" style="fill: none; stroke: #d62728; stroke-opacity: 0.6; stroke-width: 0.6; stroke-linecap: square"/>
   </g>
   <g id="line2d_31">
    <path d="M 89.074909 193.740745 
L 90.533302 193.06046 
L 91.991695 192.715277 
L 94.908482 192.579844 
L 96.366875 192.509717 
L 97.825268 192.243176 
L 99.283661 191.652807 
L 100.742054 190.641898 
L 102.200447 189.149784 
L 103.658841 187.150225 
L 105.117234 184.645077 
L 106.575627 181.656123 
L 108.03402 178.217298 
L 109.492413 174.368469 
L 112.409199 165.605175 
L 115.325986 155.674123 
L 118.242772 144.831341 
L 121.159558 133.276783 
L 125.534738 114.933569 
L 129.909917 95.692239 
L 135.74349 69.052804 
L 141.577062 41.620727 
L 143.035456 271.582057 
L 151.785815 229.272409 
L 163.45296 171.747168 
L 179.495284 91.431414 
L 189.704036 39.866375 
L 191.16243 269.392822 
L 217.413506 135.789037 
L 236.372617 38.792748 
L 237.83101 268.233416 
L 281.582805 43.511785 
L 283.041198 272.921729 
L 328.251386 40.040658 
L 329.709779 269.435615 
L 373.461573 43.739311 
L 374.919966 273.126433 
L 420.130154 39.717065 
L 421.588547 269.099445 
L 465.340342 43.109048 
L 466.798735 272.488627 
L 512.008923 38.896135 
L 513.467316 268.274004 
L 557.21911 42.181602 
L 558.677503 271.558879 
L 602.429298 45.454013 
L 603.887691 274.828326 
L 649.097879 41.014791 
L 650.556272 270.387067 
L 694.308066 44.165251 
L 695.766459 273.539002 
L 740.976647 39.810492 
L 742.43504 269.185116 
L 786.186835 42.936209 
L 787.645228 272.308204 
L 816.813091 121.481691 
L 816.813091 121.481691 
" clip-path="url(#p46f3c3ea74)" style="fill: none; stroke: #9467bd; stroke-opacity: 0.6; stroke-width: 0.6; stroke-linecap: square"/>
   </g>
   <g id="line2d_32">
    <path d="M 89.074909 79.485224 
L 96.366875 43.624587 
L 97.825268 273.316911 
L 112.409199 200.471696 
L 132.826704 97.247485 
L 143.035456 45.301909 
L 144.493849 274.781633 
L 178.036891 103.154836 
L 189.704036 43.268625 
L 191.16243 272.691797 
L 236.372617 40.082506 
L 237.83101 269.482928 
L 281.582805 43.895033 
L 283.041198 273.284349 
L 328.251386 39.915277 
L 329.709779 269.298261 
L 373.461573 43.313107 
L 374.919966 272.692512 
L 420.130154 39.086401 
L 421.588547 268.463582 
L 465.340342 42.341677 
L 466.798735 271.717574 
L 510.550529 45.56655 
L 512.008923 274.94177 
L 557.21911 41.241268 
L 558.677503 270.616525 
L 602.429298 44.456231 
L 603.887691 273.828833 
L 649.097879 39.975714 
L 650.556272 269.347089 
L 694.308066 43.103279 
L 695.766459 272.476417 
L 740.976647 38.730482 
L 742.43504 268.10455 
L 786.186835 41.8419 
L 787.645228 271.213616 
L 816.813091 120.382574 
L 816.813091 120.382574 
" clip-path="url(#p46f3c3ea74)" style="fill: none; stroke: #8c564b; stroke-opacity: 0.6; stroke-width: 0.6; stroke-linecap: square"/>
   </g>
   <g id="line2d_33">
    <path d="M 89.074909 66.589111 
L 93.450089 47.451262 
L 94.908482 40.912353 
L 96.366875 271.220335 
L 103.658841 237.385743 
L 112.409199 195.535261 
L 124.076345 138.436105 
L 138.660276 65.822523 
L 143.035456 43.863008 
L 144.493849 273.442861 
L 166.369746 162.791341 
L 189.704036 43.932943 
L 191.16243 273.39956 
L 233.455831 56.826857 
L 236.372617 41.85882 
L 237.83101 271.287525 
L 283.041198 38.949823 
L 284.499591 268.361404 
L 328.251386 43.149351 
L 329.709779 272.55227 
L 374.919966 39.628027 
L 376.37836 269.025998 
L 420.130154 43.506144 
L 421.588547 272.901572 
L 466.798735 39.810122 
L 468.257128 269.204544 
L 512.008923 43.623802 
L 513.467316 273.018674 
L 558.677503 39.960834 
L 560.135897 269.358212 
L 603.887691 43.92834 
L 605.346084 273.327796 
L 650.556272 40.355369 
L 652.014665 269.756964 
L 695.766459 44.530355 
L 697.224853 273.942218 
L 742.43504 41.648767 
L 743.893433 271.080399 
L 789.103621 39.58211 
L 790.562014 269.050196 
L 816.813091 135.433976 
L 816.813091 135.433976 
" clip-path="url(#p46f3c3ea74)" style="fill: none; stroke: #e377c2; stroke-opacity: 0.6; stroke-width: 0.6; stroke-linecap: square"/>
   </g>
   <g id="line2d_34">
    <path d="M 89.074909 130.655375 
L 93.450089 112.28464 
L 97.825268 95.042663 
L 100.742054 84.382619 
L 103.658841 74.586259 
L 106.575627 65.867963 
L 108.03402 61.990981 
L 109.492413 58.480343 
L 110.950806 55.369613 
L 112.409199 52.689452 
L 113.867593 50.463965 
L 115.325986 48.705776 
L 116.784379 47.409956 
L 118.242772 46.547474 
L 119.701165 46.059527 
L 121.159558 45.854801 
L 125.534738 45.635072 
L 126.993131 45.214046 
L 128.451524 44.412804 
L 129.909917 43.153507 
L 131.36831 41.394352 
L 132.826704 39.125066 
L 134.285097 273.273105 
L 135.74349 270.039954 
L 137.201883 266.377341 
L 138.660276 262.326474 
L 141.577062 253.222095 
L 144.493849 243.02328 
L 147.410635 231.971082 
L 151.785815 214.188378 
L 156.160994 195.347116 
L 161.994567 169.080968 
L 169.286532 135.006733 
L 178.036891 92.94281 
L 188.245643 42.84683 
L 189.704036 272.539827 
L 204.287968 199.716517 
L 224.705472 96.532261 
L 234.914224 44.61148 
L 236.372617 274.095121 
L 269.91566 102.573704 
L 281.582805 42.714164 
L 283.041198 272.140429 
L 328.251386 39.615606 
L 329.709779 269.018563 
L 373.461573 43.503916 
L 374.919966 272.895585 
L 420.130154 39.596448 
L 421.588547 268.981588 
L 465.340342 43.058284 
L 466.798735 272.439663 
L 512.008923 38.893009 
L 513.467316 268.272084 
L 557.21911 42.210055 
L 558.677503 271.588177 
L 602.429298 45.50496 
L 603.887691 274.87989 
L 649.097879 41.082268 
L 650.556272 270.454966 
L 694.308066 44.243857 
L 695.766459 273.617911 
L 740.976647 39.897448 
L 742.43504 269.272298 
L 786.186835 43.02917 
L 787.645228 272.401319 
L 816.813091 121.577547 
L 816.813091 121.577547 
" clip-path="url(#p46f3c3ea74)" style="fill: none; stroke: #7f7f7f; stroke-opacity: 0.6; stroke-width: 0.6; stroke-linecap: square"/>
   </g>
   <g id="line2d_35">
    <path d="M 89.074909 89.345746 
L 97.825268 44.495965 
L 99.283661 273.927288 
L 144.493849 41.498497 
L 145.952242 270.903113 
L 189.704036 45.416011 
L 191.16243 274.809376 
L 236.372617 41.564383 
L 237.83101 270.951116 
L 281.582805 45.067508 
L 283.041198 274.449928 
L 328.251386 40.926115 
L 329.709779 270.305608 
L 373.461573 44.244 
L 374.919966 273.621616 
L 420.130154 39.976205 
L 421.588547 269.35254 
L 465.340342 43.213434 
L 466.798735 272.588981 
L 512.008923 38.893336 
L 513.467316 268.268481 
L 557.21911 42.107565 
L 558.677503 271.482938 
L 602.429298 45.329514 
L 603.887691 274.702453 
L 649.097879 40.853709 
L 650.556272 270.225064 
L 694.308066 43.980035 
L 695.766459 273.35314 
L 740.976647 39.607518 
L 742.43504 268.981665 
L 786.186835 42.720712 
L 787.645228 272.09239 
L 816.813091 121.260326 
L 816.813091 121.260326 
" clip-path="url(#p46f3c3ea74)" style="fill: none; stroke: #bcbd22; stroke-opacity: 0.6; stroke-width: 0.6; stroke-linecap: square"/>
   </g>
   <g id="line2d_36">
    <path d="M 89.074909 263.666729 
L 90.533302 261.131134 
L 91.991695 258.111065 
L 93.450089 254.642651 
L 94.908482 250.767147 
L 97.825268 241.961965 
L 100.742054 232.005416 
L 103.658841 221.152449 
L 108.03402 203.611417 
L 112.409199 184.964625 
L 118.242772 158.90936 
L 125.534738 125.048732 
L 134.285097 83.201106 
L 143.035456 40.506925 
L 144.493849 270.244785 
L 159.07778 197.812536 
L 179.495284 95.103788 
L 189.704036 43.40994 
L 191.16243 272.925651 
L 224.705472 102.131864 
L 236.372617 42.525781 
L 237.83101 271.983885 
L 283.041198 40.479571 
L 284.499591 269.916947 
L 328.251386 45.503957 
L 329.709779 274.935183 
L 374.919966 42.997183 
L 376.37836 272.431624 
L 421.588547 40.763788 
L 423.04694 270.213491 
L 468.257128 39.355614 
L 469.715521 268.846664 
L 498.883384 120.959231 
L 514.925709 40.338352 
L 516.384102 269.962221 
L 532.426427 190.409195 
L 544.093572 133.645697 
L 552.843931 92.102383 
L 560.135897 58.563959 
L 564.511076 39.137483 
L 565.969469 269.727804 
L 570.344649 251.3311 
L 574.719828 234.036508 
L 577.636614 223.321919 
L 580.553401 213.451183 
L 583.470187 204.635156 
L 584.92858 200.699991 
L 586.386973 197.125258 
L 587.845366 193.945415 
L 589.30376 191.192829 
L 590.762153 188.894388 
L 592.220546 187.066811 
L 593.678939 185.71069 
L 595.137332 184.803778 
L 596.595725 184.294725 
L 598.054118 184.099214 
L 602.429298 184.121388 
L 603.887691 183.843815 
L 605.346084 183.204515 
L 606.804477 182.115919 
L 608.26287 180.527645 
L 609.721264 178.422986 
L 611.179657 175.811453 
L 612.63805 172.720259 
L 614.096443 169.186745 
L 615.554836 165.252585 
L 618.471623 156.348708 
L 621.388409 146.314935 
L 624.305195 135.401542 
L 628.680375 117.792734 
L 633.055554 99.097399 
L 638.889127 72.99789 
L 646.181092 39.104892 
L 647.639486 269.11658 
L 656.389844 227.081965 
L 668.05699 169.874119 
L 684.099314 89.937756 
L 692.849673 45.948604 
L 694.308066 275.511541 
L 719.10075 149.943121 
L 739.518254 45.967035 
L 740.976647 275.441044 
L 786.186835 44.198794 
L 787.645228 273.64062 
L 816.813091 124.118681 
L 816.813091 124.118681 
" clip-path="url(#p46f3c3ea74)" style="fill: none; stroke: #17becf; stroke-opacity: 0.6; stroke-width: 0.6; stroke-linecap: square"/>
   </g>
   <g id="line2d_37">
    <path d="M 89.074909 275.596364 
L 134.285097 41.819073 
L 135.74349 271.191747 
L 179.495284 44.95566 
L 180.953678 274.328334 
L 226.163865 40.551043 
L 227.622258 269.923717 
L 271.374053 43.68763 
L 272.832446 273.060303 
L 318.042634 39.283013 
L 319.501027 268.655687 
L 363.252821 42.419599 
L 364.711214 271.792273 
L 408.463009 45.556186 
L 409.921402 274.92886 
L 455.13159 41.151569 
L 456.589983 270.524243 
L 500.341777 44.288156 
L 501.800171 273.66083 
L 547.010358 39.883539 
L 548.468751 269.256213 
L 592.220546 43.020126 
L 593.678939 272.3928 
L 637.430733 46.156712 
L 638.889127 275.529386 
L 684.099314 41.752096 
L 685.557707 271.124769 
L 729.309502 44.888682 
L 730.767895 274.261356 
L 775.978083 40.484065 
L 777.436476 269.856739 
L 816.813091 66.244261 
L 816.813091 66.244261 
" clip-path="url(#p46f3c3ea74)" style="fill: none; stroke: #1f77b4; stroke-width: 2; stroke-linecap: square"/>
   </g>
   <g id="patch_3">
    <path d="M 52.688 287.44 
L 52.688 26.88 
" style="fill: none; stroke: #000000; stroke-width: 0.8; stroke-linejoin: miter; stroke-linecap: square"/>
   </g>
   <g id="patch_4">
    <path d="M 853.2 287.44 
L 853.2 26.88 
" style="fill: none; stroke: #000000; stroke-width: 0.8; stroke-linejoin: miter; stroke-linecap: square"/>
   </g>
   <g id="patch_5">
    <path d="M 52.688 287.44 
L 853.2 287.44 
" style="fill: none; stroke: #000000; stroke-width: 0.8; stroke-linejoin: miter; stroke-linecap: square"/>
   </g>
   <g id="patch_6">
    <path d="M 52.688 26.88 
L 853.2 26.88 
" style="fill: none; stroke: #000000; stroke-width: 0.8; stroke-linejoin: miter; stroke-linecap: square"/>
   </g>
   <g id="text_16">
    <!-- Phase plot for N = 10, K = 0.01, var = 0.01, K (env) = 1.00, env. frequency = 2 -->
    <g transform="translate(214.392437 20.88) scale(0.12 -0.12)">
     <defs>
      <path id="DejaVuSans-70" d="M 1159 525 
L 1159 -1331 
L 581 -1331 
L 581 3500 
L 1159 3500 
L 1159 2969 
Q 1341 3281 1617 3432 
Q 1894 3584 2278 3584 
Q 2916 3584 3314 3078 
Q 3713 2572 3713 1747 
Q 3713 922 3314 415 
Q 2916 -91 2278 -91 
Q 1894 -91 1617 61 
Q 1341 213 1159 525 
z
M 3116 1747 
Q 3116 2381 2855 2742 
Q 2594 3103 2138 3103 
Q 1681 3103 1420 2742 
Q 1159 2381 1159 1747 
Q 1159 1113 1420 752 
Q 1681 391 2138 391 
Q 2594 391 2855 752 
Q 3116 1113 3116 1747 
z
" transform="scale(0.015625)"/>
      <path id="DejaVuSans-6c" d="M 603 4863 
L 1178 4863 
L 1178 0 
L 603 0 
L 603 4863 
z
" transform="scale(0.015625)"/>
      <path id="DejaVuSans-6f" d="M 1959 3097 
Q 1497 3097 1228 2736 
Q 959 2375 959 1747 
Q 959 1119 1226 758 
Q 1494 397 1959 397 
Q 2419 397 2687 759 
Q 2956 1122 2956 1747 
Q 2956 2369 2687 2733 
Q 2419 3097 1959 3097 
z
M 1959 3584 
Q 2709 3584 3137 3096 
Q 3566 2609 3566 1747 
Q 3566 888 3137 398 
Q 2709 -91 1959 -91 
Q 1206 -91 779 398 
Q 353 888 353 1747 
Q 353 2609 779 3096 
Q 1206 3584 1959 3584 
z
" transform="scale(0.015625)"/>
      <path id="DejaVuSans-74" d="M 1172 4494 
L 1172 3500 
L 2356 3500 
L 2356 3053 
L 1172 3053 
L 1172 1153 
Q 1172 725 1289 603 
Q 1406 481 1766 481 
L 2356 481 
L 2356 0 
L 1766 0 
Q 1100 0 847 248 
Q 594 497 594 1153 
L 594 3053 
L 172 3053 
L 172 3500 
L 594 3500 
L 594 4494 
L 1172 4494 
z
" transform="scale(0.015625)"/>
      <path id="DejaVuSans-66" d="M 2375 4863 
L 2375 4384 
L 1825 4384 
Q 1516 4384 1395 4259 
Q 1275 4134 1275 3809 
L 1275 3500 
L 2222 3500 
L 2222 3053 
L 1275 3053 
L 1275 0 
L 697 0 
L 697 3053 
L 147 3053 
L 147 3500 
L 697 3500 
L 697 3744 
Q 697 4328 969 4595 
Q 1241 4863 1831 4863 
L 2375 4863 
z
" transform="scale(0.015625)"/>
      <path id="DejaVuSans-72" d="M 2631 2963 
Q 2534 3019 2420 3045 
Q 2306 3072 2169 3072 
Q 1681 3072 1420 2755 
Q 1159 2438 1159 1844 
L 1159 0 
L 581 0 
L 581 3500 
L 1159 3500 
L 1159 2956 
Q 1341 3275 1631 3429 
Q 1922 3584 2338 3584 
Q 2397 3584 2469 3576 
Q 2541 3569 2628 3553 
L 2631 2963 
z
" transform="scale(0.015625)"/>
      <path id="DejaVuSans-4e" d="M 628 4666 
L 1478 4666 
L 3547 763 
L 3547 4666 
L 4159 4666 
L 4159 0 
L 3309 0 
L 1241 3903 
L 1241 0 
L 628 0 
L 628 4666 
z
" transform="scale(0.015625)"/>
      <path id="DejaVuSans-3d" d="M 678 2906 
L 4684 2906 
L 4684 2381 
L 678 2381 
L 678 2906 
z
M 678 1631 
L 4684 1631 
L 4684 1100 
L 678 1100 
L 678 1631 
z
" transform="scale(0.015625)"/>
      <path id="DejaVuSans-2c" d="M 750 794 
L 1409 794 
L 1409 256 
L 897 -744 
L 494 -744 
L 750 256 
L 750 794 
z
" transform="scale(0.015625)"/>
      <path id="DejaVuSans-4b" d="M 628 4666 
L 1259 4666 
L 1259 2694 
L 3353 4666 
L 4166 4666 
L 1850 2491 
L 4331 0 
L 3500 0 
L 1259 2247 
L 1259 0 
L 628 0 
L 628 4666 
z
" transform="scale(0.015625)"/>
      <path id="DejaVuSans-2e" d="M 684 794 
L 1344 794 
L 1344 0 
L 684 0 
L 684 794 
z
" transform="scale(0.015625)"/>
      <path id="DejaVuSans-76" d="M 191 3500 
L 800 3500 
L 1894 563 
L 2988 3500 
L 3597 3500 
L 2284 0 
L 1503 0 
L 191 3500 
z
" transform="scale(0.015625)"/>
      <path id="DejaVuSans-28" d="M 1984 4856 
Q 1566 4138 1362 3434 
Q 1159 2731 1159 2009 
Q 1159 1288 1364 580 
Q 1569 -128 1984 -844 
L 1484 -844 
Q 1016 -109 783 600 
Q 550 1309 550 2009 
Q 550 2706 781 3412 
Q 1013 4119 1484 4856 
L 1984 4856 
z
" transform="scale(0.015625)"/>
      <path id="DejaVuSans-6e" d="M 3513 2113 
L 3513 0 
L 2938 0 
L 2938 2094 
Q 2938 2591 2744 2837 
Q 2550 3084 2163 3084 
Q 1697 3084 1428 2787 
Q 1159 2491 1159 1978 
L 1159 0 
L 581 0 
L 581 3500 
L 1159 3500 
L 1159 2956 
Q 1366 3272 1645 3428 
Q 1925 3584 2291 3584 
Q 2894 3584 3203 3211 
Q 3513 2838 3513 2113 
z
" transform="scale(0.015625)"/>
      <path id="DejaVuSans-29" d="M 513 4856 
L 1013 4856 
Q 1481 4119 1714 3412 
Q 1947 2706 1947 2009 
Q 1947 1309 1714 600 
Q 1481 -109 1013 -844 
L 513 -844 
Q 928 -128 1133 580 
Q 1338 1288 1338 2009 
Q 1338 2731 1133 3434 
Q 928 4138 513 4856 
z
" transform="scale(0.015625)"/>
      <path id="DejaVuSans-71" d="M 947 1747 
Q 947 1113 1208 752 
Q 1469 391 1925 391 
Q 2381 391 2643 752 
Q 2906 1113 2906 1747 
Q 2906 2381 2643 2742 
Q 2381 3103 1925 3103 
Q 1469 3103 1208 2742 
Q 947 2381 947 1747 
z
M 2906 525 
Q 2725 213 2448 61 
Q 2172 -91 1784 -91 
Q 1150 -91 751 415 
Q 353 922 353 1747 
Q 353 2572 751 3078 
Q 1150 3584 1784 3584 
Q 2172 3584 2448 3432 
Q 2725 3281 2906 2969 
L 2906 3500 
L 3481 3500 
L 3481 -1331 
L 2906 -1331 
L 2906 525 
z
" transform="scale(0.015625)"/>
      <path id="DejaVuSans-75" d="M 544 1381 
L 544 3500 
L 1119 3500 
L 1119 1403 
Q 1119 906 1312 657 
Q 1506 409 1894 409 
Q 2359 409 2629 706 
Q 2900 1003 2900 1516 
L 2900 3500 
L 3475 3500 
L 3475 0 
L 2900 0 
L 2900 538 
Q 2691 219 2414 64 
Q 2138 -91 1772 -91 
Q 1169 -91 856 284 
Q 544 659 544 1381 
z
M 1991 3584 
L 1991 3584 
z
" transform="scale(0.015625)"/>
      <path id="DejaVuSans-63" d="M 3122 3366 
L 3122 2828 
Q 2878 2963 2633 3030 
Q 2388 3097 2138 3097 
Q 1578 3097 1268 2742 
Q 959 2388 959 1747 
Q 959 1106 1268 751 
Q 1578 397 2138 397 
Q 2388 397 2633 464 
Q 2878 531 3122 666 
L 3122 134 
Q 2881 22 2623 -34 
Q 2366 -91 2075 -91 
Q 1284 -91 818 406 
Q 353 903 353 1747 
Q 353 2603 823 3093 
Q 1294 3584 2113 3584 
Q 2378 3584 2631 3529 
Q 2884 3475 3122 3366 
z
" transform="scale(0.015625)"/>
      <path id="DejaVuSans-79" d="M 2059 -325 
Q 1816 -950 1584 -1140 
Q 1353 -1331 966 -1331 
L 506 -1331 
L 506 -850 
L 844 -850 
Q 1081 -850 1212 -737 
Q 1344 -625 1503 -206 
L 1606 56 
L 191 3500 
L 800 3500 
L 1894 763 
L 2988 3500 
L 3597 3500 
L 2059 -325 
z
" transform="scale(0.015625)"/>
     </defs>
     <use xlink:href="#DejaVuSans-50"/>
     <use xlink:href="#DejaVuSans-68" transform="translate(60.302734 0)"/>
     <use xlink:href="#DejaVuSans-61" transform="translate(123.681641 0)"/>
     <use xlink:href="#DejaVuSans-73" transform="translate(184.960938 0)"/>
     <use xlink:href="#DejaVuSans-65" transform="translate(237.060547 0)"/>
     <use xlink:href="#DejaVuSans-20" transform="translate(298.583984 0)"/>
     <use xlink:href="#DejaVuSans-70" transform="translate(330.371094 0)"/>
     <use xlink:href="#DejaVuSans-6c" transform="translate(393.847656 0)"/>
     <use xlink:href="#DejaVuSans-6f" transform="translate(421.630859 0)"/>
     <use xlink:href="#DejaVuSans-74" transform="translate(482.8125 0)"/>
     <use xlink:href="#DejaVuSans-20" transform="translate(522.021484 0)"/>
     <use xlink:href="#DejaVuSans-66" transform="translate(553.808594 0)"/>
     <use xlink:href="#DejaVuSans-6f" transform="translate(589.013672 0)"/>
     <use xlink:href="#DejaVuSans-72" transform="translate(650.195312 0)"/>
     <use xlink:href="#DejaVuSans-20" transform="translate(691.308594 0)"/>
     <use xlink:href="#DejaVuSans-4e" transform="translate(723.095703 0)"/>
     <use xlink:href="#DejaVuSans-20" transform="translate(797.900391 0)"/>
     <use xlink:href="#DejaVuSans-3d" transform="translate(829.6875 0)"/>
     <use xlink:href="#DejaVuSans-20" transform="translate(913.476562 0)"/>
     <use xlink:href="#DejaVuSans-31" transform="translate(945.263672 0)"/>
     <use xlink:href="#DejaVuSans-30" transform="translate(1008.886719 0)"/>
     <use xlink:href="#DejaVuSans-2c" transform="translate(1072.509766 0)"/>
     <use xlink:href="#DejaVuSans-20" transform="translate(1104.296875 0)"/>
     <use xlink:href="#DejaVuSans-4b" transform="translate(1136.083984 0)"/>
     <use xlink:href="#DejaVuSans-20" transform="translate(1201.660156 0)"/>
     <use xlink:href="#DejaVuSans-3d" transform="translate(1233.447266 0)"/>
     <use xlink:href="#DejaVuSans-20" transform="translate(1317.236328 0)"/>
     <use xlink:href="#DejaVuSans-30" transform="translate(1349.023438 0)"/>
     <use xlink:href="#DejaVuSans-2e" transform="translate(1412.646484 0)"/>
     <use xlink:href="#DejaVuSans-30" transform="translate(1444.433594 0)"/>
     <use xlink:href="#DejaVuSans-31" transform="translate(1508.056641 0)"/>
     <use xlink:href="#DejaVuSans-2c" transform="translate(1571.679688 0)"/>
     <use xlink:href="#DejaVuSans-20" transform="translate(1603.466797 0)"/>
     <use xlink:href="#DejaVuSans-76" transform="translate(1635.253906 0)"/>
     <use xlink:href="#DejaVuSans-61" transform="translate(1694.433594 0)"/>
     <use xlink:href="#DejaVuSans-72" transform="translate(1755.712891 0)"/>
     <use xlink:href="#DejaVuSans-20" transform="translate(1796.826172 0)"/>
     <use xlink:href="#DejaVuSans-3d" transform="translate(1828.613281 0)"/>
     <use xlink:href="#DejaVuSans-20" transform="translate(1912.402344 0)"/>
     <use xlink:href="#DejaVuSans-30" transform="translate(1944.189453 0)"/>
     <use xlink:href="#DejaVuSans-2e" transform="translate(2007.8125 0)"/>
     <use xlink:href="#DejaVuSans-30" transform="translate(2039.599609 0)"/>
     <use xlink:href="#DejaVuSans-31" transform="translate(2103.222656 0)"/>
     <use xlink:href="#DejaVuSans-2c" transform="translate(2166.845703 0)"/>
     <use xlink:href="#DejaVuSans-20" transform="translate(2198.632812 0)"/>
     <use xlink:href="#DejaVuSans-4b" transform="translate(2230.419922 0)"/>
     <use xlink:href="#DejaVuSans-20" transform="translate(2295.996094 0)"/>
     <use xlink:href="#DejaVuSans-28" transform="translate(2327.783203 0)"/>
     <use xlink:href="#DejaVuSans-65" transform="translate(2366.796875 0)"/>
     <use xlink:href="#DejaVuSans-6e" transform="translate(2428.320312 0)"/>
     <use xlink:href="#DejaVuSans-76" transform="translate(2491.699219 0)"/>
     <use xlink:href="#DejaVuSans-29" transform="translate(2550.878906 0)"/>
     <use xlink:href="#DejaVuSans-20" transform="translate(2589.892578 0)"/>
     <use xlink:href="#DejaVuSans-3d" transform="translate(2621.679688 0)"/>
     <use xlink:href="#DejaVuSans-20" transform="translate(2705.46875 0)"/>
     <use xlink:href="#DejaVuSans-31" transform="translate(2737.255859 0)"/>
     <use xlink:href="#DejaVuSans-2e" transform="translate(2800.878906 0)"/>
     <use xlink:href="#DejaVuSans-30" transform="translate(2832.666016 0)"/>
     <use xlink:href="#DejaVuSans-30" transform="translate(2896.289062 0)"/>
     <use xlink:href="#DejaVuSans-2c" transform="translate(2959.912109 0)"/>
     <use xlink:href="#DejaVuSans-20" transform="translate(2991.699219 0)"/>
     <use xlink:href="#DejaVuSans-65" transform="translate(3023.486328 0)"/>
     <use xlink:href="#DejaVuSans-6e" transform="translate(3085.009766 0)"/>
     <use xlink:href="#DejaVuSans-76" transform="translate(3148.388672 0)"/>
     <use xlink:href="#DejaVuSans-2e" transform="translate(3199.818359 0)"/>
     <use xlink:href="#DejaVuSans-20" transform="translate(3231.605469 0)"/>
     <use xlink:href="#DejaVuSans-66" transform="translate(3263.392578 0)"/>
     <use xlink:href="#DejaVuSans-72" transform="translate(3298.597656 0)"/>
     <use xlink:href="#DejaVuSans-65" transform="translate(3337.460938 0)"/>
     <use xlink:href="#DejaVuSans-71" transform="translate(3398.984375 0)"/>
     <use xlink:href="#DejaVuSans-75" transform="translate(3462.460938 0)"/>
     <use xlink:href="#DejaVuSans-65" transform="translate(3525.839844 0)"/>
     <use xlink:href="#DejaVuSans-6e" transform="translate(3587.363281 0)"/>
     <use xlink:href="#DejaVuSans-63" transform="translate(3650.742188 0)"/>
     <use xlink:href="#DejaVuSans-79" transform="translate(3705.722656 0)"/>
     <use xlink:href="#DejaVuSans-20" transform="translate(3764.902344 0)"/>
     <use xlink:href="#DejaVuSans-3d" transform="translate(3796.689453 0)"/>
     <use xlink:href="#DejaVuSans-20" transform="translate(3880.478516 0)"/>
     <use xlink:href="#DejaVuSans-32" transform="translate(3912.265625 0)"/>
    </g>
   </g>
  </g>
  <g id="axes_2">
   <g id="patch_7">
    <path d="M 52.688 606.04 
L 853.2 606.04 
L 853.2 345.48 
L 52.688 345.48 
z
" style="fill: #ffffff"/>
   </g>
   <g id="matplotlib.axis_3">
    <g id="xtick_7">
     <g id="line2d_38">
      <path d="M 89.074909 606.04 
L 89.074909 345.48 
" clip-path="url(#p5898614d83)" style="fill: none; stroke: #b0b0b0; stroke-opacity: 0.4; stroke-width: 0.8; stroke-linecap: square"/>
     </g>
     <g id="line2d_39">
      <g>
       <use xlink:href="#m172ef853f0" x="89.074909" y="606.04" style="stroke: #000000; stroke-width: 0.8"/>
      </g>
     </g>
     <g id="text_17">
      <!-- 0 -->
      <g transform="translate(85.893659 620.638437) scale(0.1 -0.1)">
       <use xlink:href="#DejaVuSans-30"/>
      </g>
     </g>
    </g>
    <g id="xtick_8">
     <g id="line2d_40">
      <path d="M 234.914224 606.04 
L 234.914224 345.48 
" clip-path="url(#p5898614d83)" style="fill: none; stroke: #b0b0b0; stroke-opacity: 0.4; stroke-width: 0.8; stroke-linecap: square"/>
     </g>
     <g id="line2d_41">
      <g>
       <use xlink:href="#m172ef853f0" x="234.914224" y="606.04" style="stroke: #000000; stroke-width: 0.8"/>
      </g>
     </g>
     <g id="text_18">
      <!-- 10 -->
      <g transform="translate(228.551724 620.638437) scale(0.1 -0.1)">
       <use xlink:href="#DejaVuSans-31"/>
       <use xlink:href="#DejaVuSans-30" transform="translate(63.623047 0)"/>
      </g>
     </g>
    </g>
    <g id="xtick_9">
     <g id="line2d_42">
      <path d="M 380.753539 606.04 
L 380.753539 345.48 
" clip-path="url(#p5898614d83)" style="fill: none; stroke: #b0b0b0; stroke-opacity: 0.4; stroke-width: 0.8; stroke-linecap: square"/>
     </g>
     <g id="line2d_43">
      <g>
       <use xlink:href="#m172ef853f0" x="380.753539" y="606.04" style="stroke: #000000; stroke-width: 0.8"/>
      </g>
     </g>
     <g id="text_19">
      <!-- 20 -->
      <g transform="translate(374.391039 620.638437) scale(0.1 -0.1)">
       <use xlink:href="#DejaVuSans-32"/>
       <use xlink:href="#DejaVuSans-30" transform="translate(63.623047 0)"/>
      </g>
     </g>
    </g>
    <g id="xtick_10">
     <g id="line2d_44">
      <path d="M 526.592854 606.04 
L 526.592854 345.48 
" clip-path="url(#p5898614d83)" style="fill: none; stroke: #b0b0b0; stroke-opacity: 0.4; stroke-width: 0.8; stroke-linecap: square"/>
     </g>
     <g id="line2d_45">
      <g>
       <use xlink:href="#m172ef853f0" x="526.592854" y="606.04" style="stroke: #000000; stroke-width: 0.8"/>
      </g>
     </g>
     <g id="text_20">
      <!-- 30 -->
      <g transform="translate(520.230354 620.638437) scale(0.1 -0.1)">
       <use xlink:href="#DejaVuSans-33"/>
       <use xlink:href="#DejaVuSans-30" transform="translate(63.623047 0)"/>
      </g>
     </g>
    </g>
    <g id="xtick_11">
     <g id="line2d_46">
      <path d="M 672.432169 606.04 
L 672.432169 345.48 
" clip-path="url(#p5898614d83)" style="fill: none; stroke: #b0b0b0; stroke-opacity: 0.4; stroke-width: 0.8; stroke-linecap: square"/>
     </g>
     <g id="line2d_47">
      <g>
       <use xlink:href="#m172ef853f0" x="672.432169" y="606.04" style="stroke: #000000; stroke-width: 0.8"/>
      </g>
     </g>
     <g id="text_21">
      <!-- 40 -->
      <g transform="translate(666.069669 620.638437) scale(0.1 -0.1)">
       <use xlink:href="#DejaVuSans-34"/>
       <use xlink:href="#DejaVuSans-30" transform="translate(63.623047 0)"/>
      </g>
     </g>
    </g>
    <g id="xtick_12">
     <g id="line2d_48">
      <path d="M 818.271484 606.04 
L 818.271484 345.48 
" clip-path="url(#p5898614d83)" style="fill: none; stroke: #b0b0b0; stroke-opacity: 0.4; stroke-width: 0.8; stroke-linecap: square"/>
     </g>
     <g id="line2d_49">
      <g>
       <use xlink:href="#m172ef853f0" x="818.271484" y="606.04" style="stroke: #000000; stroke-width: 0.8"/>
      </g>
     </g>
     <g id="text_22">
      <!-- 50 -->
      <g transform="translate(811.908984 620.638437) scale(0.1 -0.1)">
       <use xlink:href="#DejaVuSans-35"/>
       <use xlink:href="#DejaVuSans-30" transform="translate(63.623047 0)"/>
      </g>
     </g>
    </g>
    <g id="text_23">
     <!-- $t$ -->
     <g transform="translate(450.944 634.316562) scale(0.1 -0.1)">
      <use xlink:href="#DejaVuSans-Oblique-74" transform="translate(0 0.78125)"/>
     </g>
    </g>
   </g>
   <g id="matplotlib.axis_4">
    <g id="ytick_8">
     <g id="line2d_50">
      <path d="M 52.688 563.766431 
L 853.2 563.766431 
" clip-path="url(#p5898614d83)" style="fill: none; stroke: #b0b0b0; stroke-opacity: 0.4; stroke-width: 0.8; stroke-linecap: square"/>
     </g>
     <g id="line2d_51">
      <g>
       <use xlink:href="#m66b0eb249d" x="52.688" y="563.766431" style="stroke: #000000; stroke-width: 0.8"/>
      </g>
     </g>
     <g id="text_24">
      <!-- 0.2 -->
      <g transform="translate(29.784875 567.56565) scale(0.1 -0.1)">
       <use xlink:href="#DejaVuSans-30"/>
       <use xlink:href="#DejaVuSans-2e" transform="translate(63.623047 0)"/>
       <use xlink:href="#DejaVuSans-32" transform="translate(95.410156 0)"/>
      </g>
     </g>
    </g>
    <g id="ytick_9">
     <g id="line2d_52">
      <path d="M 52.688 512.107693 
L 853.2 512.107693 
" clip-path="url(#p5898614d83)" style="fill: none; stroke: #b0b0b0; stroke-opacity: 0.4; stroke-width: 0.8; stroke-linecap: square"/>
     </g>
     <g id="line2d_53">
      <g>
       <use xlink:href="#m66b0eb249d" x="52.688" y="512.107693" style="stroke: #000000; stroke-width: 0.8"/>
      </g>
     </g>
     <g id="text_25">
      <!-- 0.4 -->
      <g transform="translate(29.784875 515.906912) scale(0.1 -0.1)">
       <use xlink:href="#DejaVuSans-30"/>
       <use xlink:href="#DejaVuSans-2e" transform="translate(63.623047 0)"/>
       <use xlink:href="#DejaVuSans-34" transform="translate(95.410156 0)"/>
      </g>
     </g>
    </g>
    <g id="ytick_10">
     <g id="line2d_54">
      <path d="M 52.688 460.448955 
L 853.2 460.448955 
" clip-path="url(#p5898614d83)" style="fill: none; stroke: #b0b0b0; stroke-opacity: 0.4; stroke-width: 0.8; stroke-linecap: square"/>
     </g>
     <g id="line2d_55">
      <g>
       <use xlink:href="#m66b0eb249d" x="52.688" y="460.448955" style="stroke: #000000; stroke-width: 0.8"/>
      </g>
     </g>
     <g id="text_26">
      <!-- 0.6 -->
      <g transform="translate(29.784875 464.248174) scale(0.1 -0.1)">
       <use xlink:href="#DejaVuSans-30"/>
       <use xlink:href="#DejaVuSans-2e" transform="translate(63.623047 0)"/>
       <use xlink:href="#DejaVuSans-36" transform="translate(95.410156 0)"/>
      </g>
     </g>
    </g>
    <g id="ytick_11">
     <g id="line2d_56">
      <path d="M 52.688 408.790218 
L 853.2 408.790218 
" clip-path="url(#p5898614d83)" style="fill: none; stroke: #b0b0b0; stroke-opacity: 0.4; stroke-width: 0.8; stroke-linecap: square"/>
     </g>
     <g id="line2d_57">
      <g>
       <use xlink:href="#m66b0eb249d" x="52.688" y="408.790218" style="stroke: #000000; stroke-width: 0.8"/>
      </g>
     </g>
     <g id="text_27">
      <!-- 0.8 -->
      <g transform="translate(29.784875 412.589436) scale(0.1 -0.1)">
       <defs>
        <path id="DejaVuSans-38" d="M 2034 2216 
Q 1584 2216 1326 1975 
Q 1069 1734 1069 1313 
Q 1069 891 1326 650 
Q 1584 409 2034 409 
Q 2484 409 2743 651 
Q 3003 894 3003 1313 
Q 3003 1734 2745 1975 
Q 2488 2216 2034 2216 
z
M 1403 2484 
Q 997 2584 770 2862 
Q 544 3141 544 3541 
Q 544 4100 942 4425 
Q 1341 4750 2034 4750 
Q 2731 4750 3128 4425 
Q 3525 4100 3525 3541 
Q 3525 3141 3298 2862 
Q 3072 2584 2669 2484 
Q 3125 2378 3379 2068 
Q 3634 1759 3634 1313 
Q 3634 634 3220 271 
Q 2806 -91 2034 -91 
Q 1263 -91 848 271 
Q 434 634 434 1313 
Q 434 1759 690 2068 
Q 947 2378 1403 2484 
z
M 1172 3481 
Q 1172 3119 1398 2916 
Q 1625 2713 2034 2713 
Q 2441 2713 2670 2916 
Q 2900 3119 2900 3481 
Q 2900 3844 2670 4047 
Q 2441 4250 2034 4250 
Q 1625 4250 1398 4047 
Q 1172 3844 1172 3481 
z
" transform="scale(0.015625)"/>
       </defs>
       <use xlink:href="#DejaVuSans-30"/>
       <use xlink:href="#DejaVuSans-2e" transform="translate(63.623047 0)"/>
       <use xlink:href="#DejaVuSans-38" transform="translate(95.410156 0)"/>
      </g>
     </g>
    </g>
    <g id="ytick_12">
     <g id="line2d_58">
      <path d="M 52.688 357.13148 
L 853.2 357.13148 
" clip-path="url(#p5898614d83)" style="fill: none; stroke: #b0b0b0; stroke-opacity: 0.4; stroke-width: 0.8; stroke-linecap: square"/>
     </g>
     <g id="line2d_59">
      <g>
       <use xlink:href="#m66b0eb249d" x="52.688" y="357.13148" style="stroke: #000000; stroke-width: 0.8"/>
      </g>
     </g>
     <g id="text_28">
      <!-- 1.0 -->
      <g transform="translate(29.784875 360.930699) scale(0.1 -0.1)">
       <use xlink:href="#DejaVuSans-31"/>
       <use xlink:href="#DejaVuSans-2e" transform="translate(63.623047 0)"/>
       <use xlink:href="#DejaVuSans-30" transform="translate(95.410156 0)"/>
      </g>
     </g>
    </g>
    <g id="text_29">
     <!-- Order parameter $|&lt;e^{i\theta}&gt;|$ -->
     <g transform="translate(23.384875 541.86) rotate(-90) scale(0.1 -0.1)">
      <defs>
       <path id="DejaVuSans-4f" d="M 2522 4238 
Q 1834 4238 1429 3725 
Q 1025 3213 1025 2328 
Q 1025 1447 1429 934 
Q 1834 422 2522 422 
Q 3209 422 3611 934 
Q 4013 1447 4013 2328 
Q 4013 3213 3611 3725 
Q 3209 4238 2522 4238 
z
M 2522 4750 
Q 3503 4750 4090 4092 
Q 4678 3434 4678 2328 
Q 4678 1225 4090 567 
Q 3503 -91 2522 -91 
Q 1538 -91 948 565 
Q 359 1222 359 2328 
Q 359 3434 948 4092 
Q 1538 4750 2522 4750 
z
" transform="scale(0.015625)"/>
       <path id="DejaVuSans-64" d="M 2906 2969 
L 2906 4863 
L 3481 4863 
L 3481 0 
L 2906 0 
L 2906 525 
Q 2725 213 2448 61 
Q 2172 -91 1784 -91 
Q 1150 -91 751 415 
Q 353 922 353 1747 
Q 353 2572 751 3078 
Q 1150 3584 1784 3584 
Q 2172 3584 2448 3432 
Q 2725 3281 2906 2969 
z
M 947 1747 
Q 947 1113 1208 752 
Q 1469 391 1925 391 
Q 2381 391 2643 752 
Q 2906 1113 2906 1747 
Q 2906 2381 2643 2742 
Q 2381 3103 1925 3103 
Q 1469 3103 1208 2742 
Q 947 2381 947 1747 
z
" transform="scale(0.015625)"/>
       <path id="DejaVuSans-6d" d="M 3328 2828 
Q 3544 3216 3844 3400 
Q 4144 3584 4550 3584 
Q 5097 3584 5394 3201 
Q 5691 2819 5691 2113 
L 5691 0 
L 5113 0 
L 5113 2094 
Q 5113 2597 4934 2840 
Q 4756 3084 4391 3084 
Q 3944 3084 3684 2787 
Q 3425 2491 3425 1978 
L 3425 0 
L 2847 0 
L 2847 2094 
Q 2847 2600 2669 2842 
Q 2491 3084 2119 3084 
Q 1678 3084 1418 2786 
Q 1159 2488 1159 1978 
L 1159 0 
L 581 0 
L 581 3500 
L 1159 3500 
L 1159 2956 
Q 1356 3278 1631 3431 
Q 1906 3584 2284 3584 
Q 2666 3584 2933 3390 
Q 3200 3197 3328 2828 
z
" transform="scale(0.015625)"/>
       <path id="DejaVuSans-7c" d="M 1344 4891 
L 1344 -1509 
L 813 -1509 
L 813 4891 
L 1344 4891 
z
" transform="scale(0.015625)"/>
       <path id="DejaVuSans-3c" d="M 4684 3150 
L 1459 2003 
L 4684 863 
L 4684 294 
L 678 1747 
L 678 2266 
L 4684 3719 
L 4684 3150 
z
" transform="scale(0.015625)"/>
       <path id="DejaVuSans-Oblique-65" d="M 3078 2063 
Q 3088 2113 3092 2166 
Q 3097 2219 3097 2272 
Q 3097 2653 2873 2875 
Q 2650 3097 2266 3097 
Q 1838 3097 1509 2826 
Q 1181 2556 1013 2059 
L 3078 2063 
z
M 3578 1613 
L 903 1613 
Q 884 1494 878 1425 
Q 872 1356 872 1306 
Q 872 872 1139 634 
Q 1406 397 1894 397 
Q 2269 397 2603 481 
Q 2938 566 3225 728 
L 3116 159 
Q 2806 34 2476 -28 
Q 2147 -91 1806 -91 
Q 1078 -91 686 257 
Q 294 606 294 1247 
Q 294 1794 489 2264 
Q 684 2734 1063 3103 
Q 1306 3334 1642 3459 
Q 1978 3584 2356 3584 
Q 2950 3584 3301 3228 
Q 3653 2872 3653 2272 
Q 3653 2128 3634 1964 
Q 3616 1800 3578 1613 
z
" transform="scale(0.015625)"/>
       <path id="DejaVuSans-Oblique-69" d="M 1172 4863 
L 1747 4863 
L 1606 4134 
L 1031 4134 
L 1172 4863 
z
M 909 3500 
L 1484 3500 
L 800 0 
L 225 0 
L 909 3500 
z
" transform="scale(0.015625)"/>
       <path id="DejaVuSans-3e" d="M 678 3150 
L 678 3719 
L 4684 2266 
L 4684 1747 
L 678 294 
L 678 863 
L 3897 2003 
L 678 3150 
z
" transform="scale(0.015625)"/>
      </defs>
      <use xlink:href="#DejaVuSans-4f" transform="translate(0 0.982812)"/>
      <use xlink:href="#DejaVuSans-72" transform="translate(78.710938 0.982812)"/>
      <use xlink:href="#DejaVuSans-64" transform="translate(119.824219 0.982812)"/>
      <use xlink:href="#DejaVuSans-65" transform="translate(183.300781 0.982812)"/>
      <use xlink:href="#DejaVuSans-72" transform="translate(244.824219 0.982812)"/>
      <use xlink:href="#DejaVuSans-20" transform="translate(285.9375 0.982812)"/>
      <use xlink:href="#DejaVuSans-70" transform="translate(317.724609 0.982812)"/>
      <use xlink:href="#DejaVuSans-61" transform="translate(381.201172 0.982812)"/>
      <use xlink:href="#DejaVuSans-72" transform="translate(442.480469 0.982812)"/>
      <use xlink:href="#DejaVuSans-61" transform="translate(483.59375 0.982812)"/>
      <use xlink:href="#DejaVuSans-6d" transform="translate(544.873047 0.982812)"/>
      <use xlink:href="#DejaVuSans-65" transform="translate(642.285156 0.982812)"/>
      <use xlink:href="#DejaVuSans-74" transform="translate(703.808594 0.982812)"/>
      <use xlink:href="#DejaVuSans-65" transform="translate(743.017578 0.982812)"/>
      <use xlink:href="#DejaVuSans-72" transform="translate(804.541016 0.982812)"/>
      <use xlink:href="#DejaVuSans-20" transform="translate(845.654297 0.982812)"/>
      <use xlink:href="#DejaVuSans-7c" transform="translate(877.441406 0.982812)"/>
      <use xlink:href="#DejaVuSans-3c" transform="translate(930.615234 0.982812)"/>
      <use xlink:href="#DejaVuSans-Oblique-65" transform="translate(1033.886719 0.982812)"/>
      <use xlink:href="#DejaVuSans-Oblique-69" transform="translate(1100.060052 39.264062) scale(0.7)"/>
      <use xlink:href="#DejaVuSans-Oblique-3b8" transform="translate(1119.508294 39.264062) scale(0.7)"/>
      <use xlink:href="#DejaVuSans-3e" transform="translate(1184.55224 0.982812)"/>
      <use xlink:href="#DejaVuSans-7c" transform="translate(1287.823724 0.982812)"/>
     </g>
    </g>
   </g>
   <g id="line2d_60">
    <path d="M 89.074909 594.196364 
L 90.533302 584.984979 
L 91.991695 572.336744 
L 99.283661 502.622947 
L 100.742054 491.119341 
L 102.200447 481.084643 
L 103.658841 472.570655 
L 105.117234 465.540123 
L 106.575627 459.893884 
L 108.03402 455.494621 
L 109.492413 452.182978 
L 110.950806 449.785259 
L 112.409199 448.114243 
L 113.867593 446.966185 
L 118.242772 444.366627 
L 119.701165 443.010567 
L 121.159558 441.118634 
L 122.617952 438.650805 
L 124.076345 435.688529 
L 128.451524 425.924533 
L 129.909917 423.145075 
L 131.36831 420.873733 
L 132.826704 419.169886 
L 134.285097 418.030406 
L 135.74349 417.400383 
L 137.201883 417.180665 
L 141.577062 417.386642 
L 143.035456 417.037845 
L 144.493849 416.09268 
L 145.952242 414.366963 
L 147.410635 411.772371 
L 148.869028 408.348901 
L 150.327421 404.263184 
L 156.160994 386.41816 
L 157.619387 382.602461 
L 159.07778 379.228183 
L 160.536173 376.292192 
L 161.994567 373.764388 
L 163.45296 371.601581 
L 164.911353 369.756697 
L 166.369746 368.184143 
L 167.828139 366.842484 
L 169.286532 365.695462 
L 170.744925 364.712076 
L 173.661712 363.135977 
L 176.578498 361.952935 
L 179.495284 361.051508 
L 182.412071 360.354633 
L 186.78725 359.579744 
L 191.16243 359.027727 
L 196.996002 358.515618 
L 204.287968 358.099122 
L 214.49672 357.752518 
L 229.080651 357.499949 
L 252.414942 357.349354 
L 293.24995 357.343035 
L 360.336035 357.568757 
L 418.671761 357.968919 
L 456.589983 358.438938 
L 481.382666 358.9479 
L 498.883384 359.499251 
L 512.008923 360.099714 
L 522.217675 360.749924 
L 530.968034 361.507734 
L 538.259999 362.353399 
L 544.093572 363.235278 
L 548.468751 364.063741 
L 552.843931 365.08571 
L 557.21911 366.366994 
L 560.135897 367.410635 
L 563.052683 368.649478 
L 565.969469 370.133924 
L 568.886255 371.930394 
L 571.803042 374.126873 
L 574.719828 376.839967 
L 576.178221 378.436493 
L 577.636614 380.222925 
L 579.095007 382.225235 
L 580.553401 384.472117 
L 582.011794 386.994481 
L 583.470187 389.824321 
L 584.92858 392.992599 
L 586.386973 396.525669 
L 587.845366 400.439674 
L 589.30376 404.732376 
L 592.220546 414.285663 
L 596.595725 429.097408 
L 598.054118 433.291034 
L 599.512512 436.712368 
L 600.970905 439.219534 
L 602.429298 440.795845 
L 603.887691 441.540782 
L 605.346084 441.614365 
L 606.804477 441.160937 
L 608.26287 440.247581 
L 609.721264 438.841509 
L 611.179657 436.832836 
L 612.63805 434.093265 
L 614.096443 430.548209 
L 615.554836 426.231843 
L 618.471623 415.994599 
L 621.388409 405.315109 
L 622.846802 400.357417 
L 624.305195 395.819144 
L 625.763588 391.745315 
L 627.221981 388.137202 
L 628.680375 384.969037 
L 630.138768 382.201066 
L 631.597161 379.788409 
L 633.055554 377.686407 
L 634.513947 375.853482 
L 635.97234 374.252409 
L 637.430733 372.850643 
L 638.889127 371.62015 
L 641.805913 369.580849 
L 644.722699 367.983288 
L 647.639486 366.718859 
L 650.556272 365.709315 
L 653.473058 364.897811 
L 657.848238 363.963663 
L 662.223417 363.285285 
L 668.05699 362.671324 
L 673.890562 362.306233 
L 679.724135 362.137166 
L 687.016101 362.164026 
L 694.308066 362.451715 
L 700.141639 362.895416 
L 705.975212 363.579582 
L 710.350391 364.299926 
L 714.72557 365.258969 
L 717.642357 366.07111 
L 720.559143 367.060723 
L 723.475929 368.273486 
L 726.392716 369.769609 
L 729.309502 371.628192 
L 732.226288 373.951833 
L 733.684681 375.327352 
L 735.143075 376.869501 
L 736.601468 378.597833 
L 738.059861 380.53204 
L 739.518254 382.690313 
L 740.976647 385.08666 
L 742.43504 387.726709 
L 745.351827 393.679254 
L 749.727006 403.239836 
L 751.185399 405.987154 
L 752.643792 408.121315 
L 754.102185 409.38634 
L 755.560579 409.584417 
L 757.018972 408.634642 
L 758.477365 406.605573 
L 759.935758 403.701969 
L 761.394151 400.210342 
L 765.769331 388.957808 
L 767.227724 385.567901 
L 768.686117 382.502835 
L 770.14451 379.776757 
L 771.602903 377.377918 
L 773.061296 375.280623 
L 774.51969 373.453242 
L 775.978083 371.863073 
L 777.436476 370.479016 
L 778.894869 369.272849 
L 781.811655 367.297918 
L 784.728442 365.777343 
L 787.645228 364.593756 
L 790.562014 363.662608 
L 793.478801 362.922953 
L 797.85398 362.079071 
L 802.229159 361.466171 
L 808.062732 360.897351 
L 815.354698 360.456779 
L 816.813091 360.395477 
L 816.813091 360.395477 
" clip-path="url(#p5898614d83)" style="fill: none; stroke: #ff0000; stroke-width: 2; stroke-linecap: square"/>
   </g>
   <g id="patch_8">
    <path d="M 52.688 606.04 
L 52.688 345.48 
" style="fill: none; stroke: #000000; stroke-width: 0.8; stroke-linejoin: miter; stroke-linecap: square"/>
   </g>
   <g id="patch_9">
    <path d="M 853.2 606.04 
L 853.2 345.48 
" style="fill: none; stroke: #000000; stroke-width: 0.8; stroke-linejoin: miter; stroke-linecap: square"/>
   </g>
   <g id="patch_10">
    <path d="M 52.688 606.04 
L 853.2 606.04 
" style="fill: none; stroke: #000000; stroke-width: 0.8; stroke-linejoin: miter; stroke-linecap: square"/>
   </g>
   <g id="patch_11">
    <path d="M 52.688 345.48 
L 853.2 345.48 
" style="fill: none; stroke: #000000; stroke-width: 0.8; stroke-linejoin: miter; stroke-linecap: square"/>
   </g>
   <g id="text_30">
    <!-- Order parameter for N = 10, K = 0.01, var = 0.01, K (env) = 1.00, env. frequency = 2 -->
    <g transform="translate(195.078062 339.48) scale(0.12 -0.12)">
     <use xlink:href="#DejaVuSans-4f"/>
     <use xlink:href="#DejaVuSans-72" transform="translate(78.710938 0)"/>
     <use xlink:href="#DejaVuSans-64" transform="translate(118.074219 0)"/>
     <use xlink:href="#DejaVuSans-65" transform="translate(181.550781 0)"/>
     <use xlink:href="#DejaVuSans-72" transform="translate(243.074219 0)"/>
     <use xlink:href="#DejaVuSans-20" transform="translate(284.1875 0)"/>
     <use xlink:href="#DejaVuSans-70" transform="translate(315.974609 0)"/>
     <use xlink:href="#DejaVuSans-61" transform="translate(379.451172 0)"/>
     <use xlink:href="#DejaVuSans-72" transform="translate(440.730469 0)"/>
     <use xlink:href="#DejaVuSans-61" transform="translate(481.84375 0)"/>
     <use xlink:href="#DejaVuSans-6d" transform="translate(543.123047 0)"/>
     <use xlink:href="#DejaVuSans-65" transform="translate(640.535156 0)"/>
     <use xlink:href="#DejaVuSans-74" transform="translate(702.058594 0)"/>
     <use xlink:href="#DejaVuSans-65" transform="translate(741.267578 0)"/>
     <use xlink:href="#DejaVuSans-72" transform="translate(802.791016 0)"/>
     <use xlink:href="#DejaVuSans-20" transform="translate(843.904297 0)"/>
     <use xlink:href="#DejaVuSans-66" transform="translate(875.691406 0)"/>
     <use xlink:href="#DejaVuSans-6f" transform="translate(910.896484 0)"/>
     <use xlink:href="#DejaVuSans-72" transform="translate(972.078125 0)"/>
     <use xlink:href="#DejaVuSans-20" transform="translate(1013.191406 0)"/>
     <use xlink:href="#DejaVuSans-4e" transform="translate(1044.978516 0)"/>
     <use xlink:href="#DejaVuSans-20" transform="translate(1119.783203 0)"/>
     <use xlink:href="#DejaVuSans-3d" transform="translate(1151.570312 0)"/>
     <use xlink:href="#DejaVuSans-20" transform="translate(1235.359375 0)"/>
     <use xlink:href="#DejaVuSans-31" transform="translate(1267.146484 0)"/>
     <use xlink:href="#DejaVuSans-30" transform="translate(1330.769531 0)"/>
     <use xlink:href="#DejaVuSans-2c" transform="translate(1394.392578 0)"/>
     <use xlink:href="#DejaVuSans-20" transform="translate(1426.179688 0)"/>
     <use xlink:href="#DejaVuSans-4b" transform="translate(1457.966797 0)"/>
     <use xlink:href="#DejaVuSans-20" transform="translate(1523.542969 0)"/>
     <use xlink:href="#DejaVuSans-3d" transform="translate(1555.330078 0)"/>
     <use xlink:href="#DejaVuSans-20" transform="translate(1639.119141 0)"/>
     <use xlink:href="#DejaVuSans-30" transform="translate(1670.90625 0)"/>
     <use xlink:href="#DejaVuSans-2e" transform="translate(1734.529297 0)"/>
     <use xlink:href="#DejaVuSans-30" transform="translate(1766.316406 0)"/>
     <use xlink:href="#DejaVuSans-31" transform="translate(1829.939453 0)"/>
     <use xlink:href="#DejaVuSans-2c" transform="translate(1893.5625 0)"/>
     <use xlink:href="#DejaVuSans-20" transform="translate(1925.349609 0)"/>
     <use xlink:href="#DejaVuSans-76" transform="translate(1957.136719 0)"/>
     <use xlink:href="#DejaVuSans-61" transform="translate(2016.316406 0)"/>
     <use xlink:href="#DejaVuSans-72" transform="translate(2077.595703 0)"/>
     <use xlink:href="#DejaVuSans-20" transform="translate(2118.708984 0)"/>
     <use xlink:href="#DejaVuSans-3d" transform="translate(2150.496094 0)"/>
     <use xlink:href="#DejaVuSans-20" transform="translate(2234.285156 0)"/>
     <use xlink:href="#DejaVuSans-30" transform="translate(2266.072266 0)"/>
     <use xlink:href="#DejaVuSans-2e" transform="translate(2329.695312 0)"/>
     <use xlink:href="#DejaVuSans-30" transform="translate(2361.482422 0)"/>
     <use xlink:href="#DejaVuSans-31" transform="translate(2425.105469 0)"/>
     <use xlink:href="#DejaVuSans-2c" transform="translate(2488.728516 0)"/>
     <use xlink:href="#DejaVuSans-20" transform="translate(2520.515625 0)"/>
     <use xlink:href="#DejaVuSans-4b" transform="translate(2552.302734 0)"/>
     <use xlink:href="#DejaVuSans-20" transform="translate(2617.878906 0)"/>
     <use xlink:href="#DejaVuSans-28" transform="translate(2649.666016 0)"/>
     <use xlink:href="#DejaVuSans-65" transform="translate(2688.679688 0)"/>
     <use xlink:href="#DejaVuSans-6e" transform="translate(2750.203125 0)"/>
     <use xlink:href="#DejaVuSans-76" transform="translate(2813.582031 0)"/>
     <use xlink:href="#DejaVuSans-29" transform="translate(2872.761719 0)"/>
     <use xlink:href="#DejaVuSans-20" transform="translate(2911.775391 0)"/>
     <use xlink:href="#DejaVuSans-3d" transform="translate(2943.5625 0)"/>
     <use xlink:href="#DejaVuSans-20" transform="translate(3027.351562 0)"/>
     <use xlink:href="#DejaVuSans-31" transform="translate(3059.138672 0)"/>
     <use xlink:href="#DejaVuSans-2e" transform="translate(3122.761719 0)"/>
     <use xlink:href="#DejaVuSans-30" transform="translate(3154.548828 0)"/>
     <use xlink:href="#DejaVuSans-30" transform="translate(3218.171875 0)"/>
     <use xlink:href="#DejaVuSans-2c" transform="translate(3281.794922 0)"/>
     <use xlink:href="#DejaVuSans-20" transform="translate(3313.582031 0)"/>
     <use xlink:href="#DejaVuSans-65" transform="translate(3345.369141 0)"/>
     <use xlink:href="#DejaVuSans-6e" transform="translate(3406.892578 0)"/>
     <use xlink:href="#DejaVuSans-76" transform="translate(3470.271484 0)"/>
     <use xlink:href="#DejaVuSans-2e" transform="translate(3521.701172 0)"/>
     <use xlink:href="#DejaVuSans-20" transform="translate(3553.488281 0)"/>
     <use xlink:href="#DejaVuSans-66" transform="translate(3585.275391 0)"/>
     <use xlink:href="#DejaVuSans-72" transform="translate(3620.480469 0)"/>
     <use xlink:href="#DejaVuSans-65" transform="translate(3659.34375 0)"/>
     <use xlink:href="#DejaVuSans-71" transform="translate(3720.867188 0)"/>
     <use xlink:href="#DejaVuSans-75" transform="translate(3784.34375 0)"/>
     <use xlink:href="#DejaVuSans-65" transform="translate(3847.722656 0)"/>
     <use xlink:href="#DejaVuSans-6e" transform="translate(3909.246094 0)"/>
     <use xlink:href="#DejaVuSans-63" transform="translate(3972.625 0)"/>
     <use xlink:href="#DejaVuSans-79" transform="translate(4027.605469 0)"/>
     <use xlink:href="#DejaVuSans-20" transform="translate(4086.785156 0)"/>
     <use xlink:href="#DejaVuSans-3d" transform="translate(4118.572266 0)"/>
     <use xlink:href="#DejaVuSans-20" transform="translate(4202.361328 0)"/>
     <use xlink:href="#DejaVuSans-32" transform="translate(4234.148438 0)"/>
    </g>
   </g>
  </g>
 </g>
 <defs>
  <clipPath id="p46f3c3ea74">
   <rect x="52.688" y="26.88" width="800.512" height="260.56"/>
  </clipPath>
  <clipPath id="p5898614d83">
   <rect x="52.688" y="345.48" width="800.512" height="260.56"/>
  </clipPath>
 </defs>
</svg>
