<?xml version="1.0" encoding="utf-8" standalone="no"?>
<!DOCTYPE svg PUBLIC "-//W3C//DTD SVG 1.1//EN"
  "http://www.w3.org/Graphics/SVG/1.1/DTD/svg11.dtd">
<svg xmlns:xlink="http://www.w3.org/1999/xlink" width="864pt" height="648pt" viewBox="0 0 864 648" xmlns="http://www.w3.org/2000/svg" version="1.1">
 <metadata>
  <rdf:RDF xmlns:dc="http://purl.org/dc/elements/1.1/" xmlns:cc="http://creativecommons.org/ns#" xmlns:rdf="http://www.w3.org/1999/02/22-rdf-syntax-ns#">
   <cc:Work>
    <dc:type rdf:resource="http://purl.org/dc/dcmitype/StillImage"/>
    <dc:date>2026-02-02T22:21:19.003214</dc:date>
    <dc:format>image/svg+xml</dc:format>
    <dc:creator>
     <cc:Agent>
      <dc:title>Matplotlib v3.10.8, https://matplotlib.org/</dc:title>
     </cc:Agent>
    </dc:creator>
   </cc:Work>
  </rdf:RDF>
 </metadata>
 <defs>
  <style type="text/css">*{stroke-linejoin: round; stroke-linecap: butt}</style>
 </defs>
 <g id="figure_1">
  <g id="patch_1">
   <path d="M 0 648 
L 864 648 
L 864 0 
L 0 0 
z
" style="fill: #ffffff"/>
  </g>
  <g id="axes_1">
   <g id="patch_2">
    <path d="M 58.988 287.44 
L 853.2 287.44 
L 853.2 26.88 
L 58.988 26.88 
z
" style="fill: #ffffff"/>
   </g>
   <g id="matplotlib.axis_1">
    <g id="xtick_1">
     <g id="line2d_1">
      <path d="M 95.088545 287.44 
L 95.088545 26.88 
" clip-path="url(#p6677189843)" style="fill: none; stroke: #b0b0b0; stroke-opacity: 0.4; stroke-width: 0.8; stroke-linecap: square"/>
     </g>
     <g id="line2d_2">
      <defs>
       <path id="m84e1bfa8ab" d="M 0 0 
L 0 3.5 
" style="stroke: #000000; stroke-width: 0.8"/>
      </defs>
      <g>
       <use xlink:href="#m84e1bfa8ab" x="95.088545" y="287.44" style="stroke: #000000; stroke-width: 0.8"/>
      </g>
     </g>
     <g id="text_1">
      <!-- 0 -->
      <g transform="translate(91.907295 302.038437) scale(0.1 -0.1)">
       <defs>
        <path id="DejaVuSans-30" d="M 2034 4250 
Q 1547 4250 1301 3770 
Q 1056 3291 1056 2328 
Q 1056 1369 1301 889 
Q 1547 409 2034 409 
Q 2525 409 2770 889 
Q 3016 1369 3016 2328 
Q 3016 3291 2770 3770 
Q 2525 4250 2034 4250 
z
M 2034 4750 
Q 2819 4750 3233 4129 
Q 3647 3509 3647 2328 
Q 3647 1150 3233 529 
Q 2819 -91 2034 -91 
Q 1250 -91 836 529 
Q 422 1150 422 2328 
Q 422 3509 836 4129 
Q 1250 4750 2034 4750 
z
" transform="scale(0.015625)"/>
       </defs>
       <use xlink:href="#DejaVuSans-30"/>
      </g>
     </g>
    </g>
    <g id="xtick_2">
     <g id="line2d_3">
      <path d="M 239.78011 287.44 
L 239.78011 26.88 
" clip-path="url(#p6677189843)" style="fill: none; stroke: #b0b0b0; stroke-opacity: 0.4; stroke-width: 0.8; stroke-linecap: square"/>
     </g>
     <g id="line2d_4">
      <g>
       <use xlink:href="#m84e1bfa8ab" x="239.78011" y="287.44" style="stroke: #000000; stroke-width: 0.8"/>
      </g>
     </g>
     <g id="text_2">
      <!-- 10 -->
      <g transform="translate(233.41761 302.038437) scale(0.1 -0.1)">
       <defs>
        <path id="DejaVuSans-31" d="M 794 531 
L 1825 531 
L 1825 4091 
L 703 3866 
L 703 4441 
L 1819 4666 
L 2450 4666 
L 2450 531 
L 3481 531 
L 3481 0 
L 794 0 
L 794 531 
z
" transform="scale(0.015625)"/>
       </defs>
       <use xlink:href="#DejaVuSans-31"/>
       <use xlink:href="#DejaVuSans-30" transform="translate(63.623047 0)"/>
      </g>
     </g>
    </g>
    <g id="xtick_3">
     <g id="line2d_5">
      <path d="M 384.471675 287.44 
L 384.471675 26.88 
" clip-path="url(#p6677189843)" style="fill: none; stroke: #b0b0b0; stroke-opacity: 0.4; stroke-width: 0.8; stroke-linecap: square"/>
     </g>
     <g id="line2d_6">
      <g>
       <use xlink:href="#m84e1bfa8ab" x="384.471675" y="287.44" style="stroke: #000000; stroke-width: 0.8"/>
      </g>
     </g>
     <g id="text_3">
      <!-- 20 -->
      <g transform="translate(378.109175 302.038437) scale(0.1 -0.1)">
       <defs>
        <path id="DejaVuSans-32" d="M 1228 531 
L 3431 531 
L 3431 0 
L 469 0 
L 469 531 
Q 828 903 1448 1529 
Q 2069 2156 2228 2338 
Q 2531 2678 2651 2914 
Q 2772 3150 2772 3378 
Q 2772 3750 2511 3984 
Q 2250 4219 1831 4219 
Q 1534 4219 1204 4116 
Q 875 4013 500 3803 
L 500 4441 
Q 881 4594 1212 4672 
Q 1544 4750 1819 4750 
Q 2544 4750 2975 4387 
Q 3406 4025 3406 3419 
Q 3406 3131 3298 2873 
Q 3191 2616 2906 2266 
Q 2828 2175 2409 1742 
Q 1991 1309 1228 531 
z
" transform="scale(0.015625)"/>
       </defs>
       <use xlink:href="#DejaVuSans-32"/>
       <use xlink:href="#DejaVuSans-30" transform="translate(63.623047 0)"/>
      </g>
     </g>
    </g>
    <g id="xtick_4">
     <g id="line2d_7">
      <path d="M 529.16324 287.44 
L 529.16324 26.88 
" clip-path="url(#p6677189843)" style="fill: none; stroke: #b0b0b0; stroke-opacity: 0.4; stroke-width: 0.8; stroke-linecap: square"/>
     </g>
     <g id="line2d_8">
      <g>
       <use xlink:href="#m84e1bfa8ab" x="529.16324" y="287.44" style="stroke: #000000; stroke-width: 0.8"/>
      </g>
     </g>
     <g id="text_4">
      <!-- 30 -->
      <g transform="translate(522.80074 302.038437) scale(0.1 -0.1)">
       <defs>
        <path id="DejaVuSans-33" d="M 2597 2516 
Q 3050 2419 3304 2112 
Q 3559 1806 3559 1356 
Q 3559 666 3084 287 
Q 2609 -91 1734 -91 
Q 1441 -91 1130 -33 
Q 819 25 488 141 
L 488 750 
Q 750 597 1062 519 
Q 1375 441 1716 441 
Q 2309 441 2620 675 
Q 2931 909 2931 1356 
Q 2931 1769 2642 2001 
Q 2353 2234 1838 2234 
L 1294 2234 
L 1294 2753 
L 1863 2753 
Q 2328 2753 2575 2939 
Q 2822 3125 2822 3475 
Q 2822 3834 2567 4026 
Q 2313 4219 1838 4219 
Q 1578 4219 1281 4162 
Q 984 4106 628 3988 
L 628 4550 
Q 988 4650 1302 4700 
Q 1616 4750 1894 4750 
Q 2613 4750 3031 4423 
Q 3450 4097 3450 3541 
Q 3450 3153 3228 2886 
Q 3006 2619 2597 2516 
z
" transform="scale(0.015625)"/>
       </defs>
       <use xlink:href="#DejaVuSans-33"/>
       <use xlink:href="#DejaVuSans-30" transform="translate(63.623047 0)"/>
      </g>
     </g>
    </g>
    <g id="xtick_5">
     <g id="line2d_9">
      <path d="M 673.854805 287.44 
L 673.854805 26.88 
" clip-path="url(#p6677189843)" style="fill: none; stroke: #b0b0b0; stroke-opacity: 0.4; stroke-width: 0.8; stroke-linecap: square"/>
     </g>
     <g id="line2d_10">
      <g>
       <use xlink:href="#m84e1bfa8ab" x="673.854805" y="287.44" style="stroke: #000000; stroke-width: 0.8"/>
      </g>
     </g>
     <g id="text_5">
      <!-- 40 -->
      <g transform="translate(667.492305 302.038437) scale(0.1 -0.1)">
       <defs>
        <path id="DejaVuSans-34" d="M 2419 4116 
L 825 1625 
L 2419 1625 
L 2419 4116 
z
M 2253 4666 
L 3047 4666 
L 3047 1625 
L 3713 1625 
L 3713 1100 
L 3047 1100 
L 3047 0 
L 2419 0 
L 2419 1100 
L 313 1100 
L 313 1709 
L 2253 4666 
z
" transform="scale(0.015625)"/>
       </defs>
       <use xlink:href="#DejaVuSans-34"/>
       <use xlink:href="#DejaVuSans-30" transform="translate(63.623047 0)"/>
      </g>
     </g>
    </g>
    <g id="xtick_6">
     <g id="line2d_11">
      <path d="M 818.54637 287.44 
L 818.54637 26.88 
" clip-path="url(#p6677189843)" style="fill: none; stroke: #b0b0b0; stroke-opacity: 0.4; stroke-width: 0.8; stroke-linecap: square"/>
     </g>
     <g id="line2d_12">
      <g>
       <use xlink:href="#m84e1bfa8ab" x="818.54637" y="287.44" style="stroke: #000000; stroke-width: 0.8"/>
      </g>
     </g>
     <g id="text_6">
      <!-- 50 -->
      <g transform="translate(812.18387 302.038437) scale(0.1 -0.1)">
       <defs>
        <path id="DejaVuSans-35" d="M 691 4666 
L 3169 4666 
L 3169 4134 
L 1269 4134 
L 1269 2991 
Q 1406 3038 1543 3061 
Q 1681 3084 1819 3084 
Q 2600 3084 3056 2656 
Q 3513 2228 3513 1497 
Q 3513 744 3044 326 
Q 2575 -91 1722 -91 
Q 1428 -91 1123 -41 
Q 819 9 494 109 
L 494 744 
Q 775 591 1075 516 
Q 1375 441 1709 441 
Q 2250 441 2565 725 
Q 2881 1009 2881 1497 
Q 2881 1984 2565 2268 
Q 2250 2553 1709 2553 
Q 1456 2553 1204 2497 
Q 953 2441 691 2322 
L 691 4666 
z
" transform="scale(0.015625)"/>
       </defs>
       <use xlink:href="#DejaVuSans-35"/>
       <use xlink:href="#DejaVuSans-30" transform="translate(63.623047 0)"/>
      </g>
     </g>
    </g>
    <g id="text_7">
     <!-- $t$ -->
     <g transform="translate(454.094 315.716563) scale(0.1 -0.1)">
      <defs>
       <path id="DejaVuSans-Oblique-74" d="M 2706 3500 
L 2619 3053 
L 1472 3053 
L 1100 1153 
Q 1081 1047 1072 975 
Q 1063 903 1063 863 
Q 1063 663 1183 572 
Q 1303 481 1569 481 
L 2150 481 
L 2053 0 
L 1503 0 
Q 991 0 739 200 
Q 488 400 488 806 
Q 488 878 497 964 
Q 506 1050 525 1153 
L 897 3053 
L 409 3053 
L 500 3500 
L 978 3500 
L 1172 4494 
L 1747 4494 
L 1556 3500 
L 2706 3500 
z
" transform="scale(0.015625)"/>
      </defs>
      <use xlink:href="#DejaVuSans-Oblique-74" transform="translate(0 0.78125)"/>
     </g>
    </g>
   </g>
   <g id="matplotlib.axis_2">
    <g id="ytick_1">
     <g id="line2d_13">
      <path d="M 58.988 275.596364 
L 853.2 275.596364 
" clip-path="url(#p6677189843)" style="fill: none; stroke: #b0b0b0; stroke-opacity: 0.4; stroke-width: 0.8; stroke-linecap: square"/>
     </g>
     <g id="line2d_14">
      <defs>
       <path id="m12920fbd2d" d="M 0 0 
L -3.5 0 
" style="stroke: #000000; stroke-width: 0.8"/>
      </defs>
      <g>
       <use xlink:href="#m12920fbd2d" x="58.988" y="275.596364" style="stroke: #000000; stroke-width: 0.8"/>
      </g>
     </g>
     <g id="text_8">
      <!-- 0 -->
      <g transform="translate(45.6255 279.395582) scale(0.1 -0.1)">
       <use xlink:href="#DejaVuSans-30"/>
      </g>
     </g>
    </g>
    <g id="ytick_2">
     <g id="line2d_15">
      <path d="M 58.988 237.889414 
L 853.2 237.889414 
" clip-path="url(#p6677189843)" style="fill: none; stroke: #b0b0b0; stroke-opacity: 0.4; stroke-width: 0.8; stroke-linecap: square"/>
     </g>
     <g id="line2d_16">
      <g>
       <use xlink:href="#m12920fbd2d" x="58.988" y="237.889414" style="stroke: #000000; stroke-width: 0.8"/>
      </g>
     </g>
     <g id="text_9">
      <!-- 1 -->
      <g transform="translate(45.6255 241.688633) scale(0.1 -0.1)">
       <use xlink:href="#DejaVuSans-31"/>
      </g>
     </g>
    </g>
    <g id="ytick_3">
     <g id="line2d_17">
      <path d="M 58.988 200.182465 
L 853.2 200.182465 
" clip-path="url(#p6677189843)" style="fill: none; stroke: #b0b0b0; stroke-opacity: 0.4; stroke-width: 0.8; stroke-linecap: square"/>
     </g>
     <g id="line2d_18">
      <g>
       <use xlink:href="#m12920fbd2d" x="58.988" y="200.182465" style="stroke: #000000; stroke-width: 0.8"/>
      </g>
     </g>
     <g id="text_10">
      <!-- 2 -->
      <g transform="translate(45.6255 203.981684) scale(0.1 -0.1)">
       <use xlink:href="#DejaVuSans-32"/>
      </g>
     </g>
    </g>
    <g id="ytick_4">
     <g id="line2d_19">
      <path d="M 58.988 162.475516 
L 853.2 162.475516 
" clip-path="url(#p6677189843)" style="fill: none; stroke: #b0b0b0; stroke-opacity: 0.4; stroke-width: 0.8; stroke-linecap: square"/>
     </g>
     <g id="line2d_20">
      <g>
       <use xlink:href="#m12920fbd2d" x="58.988" y="162.475516" style="stroke: #000000; stroke-width: 0.8"/>
      </g>
     </g>
     <g id="text_11">
      <!-- 3 -->
      <g transform="translate(45.6255 166.274734) scale(0.1 -0.1)">
       <use xlink:href="#DejaVuSans-33"/>
      </g>
     </g>
    </g>
    <g id="ytick_5">
     <g id="line2d_21">
      <path d="M 58.988 124.768566 
L 853.2 124.768566 
" clip-path="url(#p6677189843)" style="fill: none; stroke: #b0b0b0; stroke-opacity: 0.4; stroke-width: 0.8; stroke-linecap: square"/>
     </g>
     <g id="line2d_22">
      <g>
       <use xlink:href="#m12920fbd2d" x="58.988" y="124.768566" style="stroke: #000000; stroke-width: 0.8"/>
      </g>
     </g>
     <g id="text_12">
      <!-- 4 -->
      <g transform="translate(45.6255 128.567785) scale(0.1 -0.1)">
       <use xlink:href="#DejaVuSans-34"/>
      </g>
     </g>
    </g>
    <g id="ytick_6">
     <g id="line2d_23">
      <path d="M 58.988 87.061617 
L 853.2 87.061617 
" clip-path="url(#p6677189843)" style="fill: none; stroke: #b0b0b0; stroke-opacity: 0.4; stroke-width: 0.8; stroke-linecap: square"/>
     </g>
     <g id="line2d_24">
      <g>
       <use xlink:href="#m12920fbd2d" x="58.988" y="87.061617" style="stroke: #000000; stroke-width: 0.8"/>
      </g>
     </g>
     <g id="text_13">
      <!-- 5 -->
      <g transform="translate(45.6255 90.860836) scale(0.1 -0.1)">
       <use xlink:href="#DejaVuSans-35"/>
      </g>
     </g>
    </g>
    <g id="ytick_7">
     <g id="line2d_25">
      <path d="M 58.988 49.354668 
L 853.2 49.354668 
" clip-path="url(#p6677189843)" style="fill: none; stroke: #b0b0b0; stroke-opacity: 0.4; stroke-width: 0.8; stroke-linecap: square"/>
     </g>
     <g id="line2d_26">
      <g>
       <use xlink:href="#m12920fbd2d" x="58.988" y="49.354668" style="stroke: #000000; stroke-width: 0.8"/>
      </g>
     </g>
     <g id="text_14">
      <!-- 6 -->
      <g transform="translate(45.6255 53.153886) scale(0.1 -0.1)">
       <defs>
        <path id="DejaVuSans-36" d="M 2113 2584 
Q 1688 2584 1439 2293 
Q 1191 2003 1191 1497 
Q 1191 994 1439 701 
Q 1688 409 2113 409 
Q 2538 409 2786 701 
Q 3034 994 3034 1497 
Q 3034 2003 2786 2293 
Q 2538 2584 2113 2584 
z
M 3366 4563 
L 3366 3988 
Q 3128 4100 2886 4159 
Q 2644 4219 2406 4219 
Q 1781 4219 1451 3797 
Q 1122 3375 1075 2522 
Q 1259 2794 1537 2939 
Q 1816 3084 2150 3084 
Q 2853 3084 3261 2657 
Q 3669 2231 3669 1497 
Q 3669 778 3244 343 
Q 2819 -91 2113 -91 
Q 1303 -91 875 529 
Q 447 1150 447 2328 
Q 447 3434 972 4092 
Q 1497 4750 2381 4750 
Q 2619 4750 2861 4703 
Q 3103 4656 3366 4563 
z
" transform="scale(0.015625)"/>
       </defs>
       <use xlink:href="#DejaVuSans-36"/>
      </g>
     </g>
    </g>
    <g id="text_15">
     <!-- Phase $\theta$ -->
     <g transform="translate(39.545812 176.76) rotate(-90) scale(0.1 -0.1)">
      <defs>
       <path id="DejaVuSans-50" d="M 1259 4147 
L 1259 2394 
L 2053 2394 
Q 2494 2394 2734 2622 
Q 2975 2850 2975 3272 
Q 2975 3691 2734 3919 
Q 2494 4147 2053 4147 
L 1259 4147 
z
M 628 4666 
L 2053 4666 
Q 2838 4666 3239 4311 
Q 3641 3956 3641 3272 
Q 3641 2581 3239 2228 
Q 2838 1875 2053 1875 
L 1259 1875 
L 1259 0 
L 628 0 
L 628 4666 
z
" transform="scale(0.015625)"/>
       <path id="DejaVuSans-68" d="M 3513 2113 
L 3513 0 
L 2938 0 
L 2938 2094 
Q 2938 2591 2744 2837 
Q 2550 3084 2163 3084 
Q 1697 3084 1428 2787 
Q 1159 2491 1159 1978 
L 1159 0 
L 581 0 
L 581 4863 
L 1159 4863 
L 1159 2956 
Q 1366 3272 1645 3428 
Q 1925 3584 2291 3584 
Q 2894 3584 3203 3211 
Q 3513 2838 3513 2113 
z
" transform="scale(0.015625)"/>
       <path id="DejaVuSans-61" d="M 2194 1759 
Q 1497 1759 1228 1600 
Q 959 1441 959 1056 
Q 959 750 1161 570 
Q 1363 391 1709 391 
Q 2188 391 2477 730 
Q 2766 1069 2766 1631 
L 2766 1759 
L 2194 1759 
z
M 3341 1997 
L 3341 0 
L 2766 0 
L 2766 531 
Q 2569 213 2275 61 
Q 1981 -91 1556 -91 
Q 1019 -91 701 211 
Q 384 513 384 1019 
Q 384 1609 779 1909 
Q 1175 2209 1959 2209 
L 2766 2209 
L 2766 2266 
Q 2766 2663 2505 2880 
Q 2244 3097 1772 3097 
Q 1472 3097 1187 3025 
Q 903 2953 641 2809 
L 641 3341 
Q 956 3463 1253 3523 
Q 1550 3584 1831 3584 
Q 2591 3584 2966 3190 
Q 3341 2797 3341 1997 
z
" transform="scale(0.015625)"/>
       <path id="DejaVuSans-73" d="M 2834 3397 
L 2834 2853 
Q 2591 2978 2328 3040 
Q 2066 3103 1784 3103 
Q 1356 3103 1142 2972 
Q 928 2841 928 2578 
Q 928 2378 1081 2264 
Q 1234 2150 1697 2047 
L 1894 2003 
Q 2506 1872 2764 1633 
Q 3022 1394 3022 966 
Q 3022 478 2636 193 
Q 2250 -91 1575 -91 
Q 1294 -91 989 -36 
Q 684 19 347 128 
L 347 722 
Q 666 556 975 473 
Q 1284 391 1588 391 
Q 1994 391 2212 530 
Q 2431 669 2431 922 
Q 2431 1156 2273 1281 
Q 2116 1406 1581 1522 
L 1381 1569 
Q 847 1681 609 1914 
Q 372 2147 372 2553 
Q 372 3047 722 3315 
Q 1072 3584 1716 3584 
Q 2034 3584 2315 3537 
Q 2597 3491 2834 3397 
z
" transform="scale(0.015625)"/>
       <path id="DejaVuSans-65" d="M 3597 1894 
L 3597 1613 
L 953 1613 
Q 991 1019 1311 708 
Q 1631 397 2203 397 
Q 2534 397 2845 478 
Q 3156 559 3463 722 
L 3463 178 
Q 3153 47 2828 -22 
Q 2503 -91 2169 -91 
Q 1331 -91 842 396 
Q 353 884 353 1716 
Q 353 2575 817 3079 
Q 1281 3584 2069 3584 
Q 2775 3584 3186 3129 
Q 3597 2675 3597 1894 
z
M 3022 2063 
Q 3016 2534 2758 2815 
Q 2500 3097 2075 3097 
Q 1594 3097 1305 2825 
Q 1016 2553 972 2059 
L 3022 2063 
z
" transform="scale(0.015625)"/>
       <path id="DejaVuSans-20" transform="scale(0.015625)"/>
       <path id="DejaVuSans-Oblique-3b8" d="M 2913 2219 
L 925 2219 
Q 791 1284 928 888 
Q 1100 400 1566 400 
Q 2034 400 2391 891 
Q 2703 1322 2913 2219 
z
M 3009 2750 
Q 3094 3638 2984 3950 
Q 2813 4444 2353 4444 
Q 1875 4444 1525 3956 
Q 1250 3563 1034 2750 
L 3009 2750 
z
M 2444 4913 
Q 3194 4913 3494 4250 
Q 3794 3591 3566 2422 
Q 3341 1256 2781 594 
Q 2225 -72 1475 -72 
Q 722 -72 425 594 
Q 128 1256 353 2422 
Q 581 3591 1134 4250 
Q 1691 4913 2444 4913 
z
" transform="scale(0.015625)"/>
      </defs>
      <use xlink:href="#DejaVuSans-50" transform="translate(0 0.234375)"/>
      <use xlink:href="#DejaVuSans-68" transform="translate(60.302734 0.234375)"/>
      <use xlink:href="#DejaVuSans-61" transform="translate(123.681641 0.234375)"/>
      <use xlink:href="#DejaVuSans-73" transform="translate(184.960938 0.234375)"/>
      <use xlink:href="#DejaVuSans-65" transform="translate(237.060547 0.234375)"/>
      <use xlink:href="#DejaVuSans-20" transform="translate(298.583984 0.234375)"/>
      <use xlink:href="#DejaVuSans-Oblique-3b8" transform="translate(330.371094 0.234375)"/>
     </g>
    </g>
   </g>
   <g id="line2d_27">
    <path d="M 95.088545 159.841566 
L 141.389846 40.595641 
L 142.836762 273.788996 
L 233.992448 39.029613 
L 235.439363 272.223064 
L 325.148134 41.193189 
L 326.595049 274.386646 
L 417.750735 39.62797 
L 419.197651 272.821341 
L 508.906421 41.780846 
L 510.353337 274.974041 
L 601.509023 40.193078 
L 602.955938 273.386004 
L 692.664709 42.31252 
L 694.111624 275.505097 
L 785.26731 40.679898 
L 786.714226 273.872041 
L 817.099455 195.590538 
L 817.099455 195.590538 
" clip-path="url(#p6677189843)" style="fill: none; stroke: #1f77b4; stroke-opacity: 0.6; stroke-width: 0.6; stroke-linecap: square"/>
   </g>
   <g id="line2d_28">
    <path d="M 95.088545 47.510319 
L 97.982377 39.961696 
L 99.429292 273.107134 
L 189.138063 39.097955 
L 190.584978 272.243331 
L 278.846833 42.004047 
L 280.293749 275.149339 
L 370.002519 41.12956 
L 371.449435 274.274739 
L 461.158205 40.247127 
L 462.60512 273.392166 
L 552.313891 39.35489 
L 553.760806 272.499758 
L 642.022661 42.225979 
L 643.469577 275.370647 
L 733.178347 41.30846 
L 734.625263 274.452894 
L 817.099455 59.253051 
L 817.099455 59.253051 
" clip-path="url(#p6677189843)" style="fill: none; stroke: #ff7f0e; stroke-opacity: 0.6; stroke-width: 0.6; stroke-linecap: square"/>
   </g>
   <g id="line2d_29">
    <path d="M 95.088545 226.85375 
L 165.987412 41.545815 
L 167.434328 274.683617 
L 257.143098 40.190576 
L 258.590014 273.327981 
L 348.298784 38.810163 
L 349.7457 271.947167 
L 438.007554 41.187513 
L 439.45447 274.32412 
L 529.16324 39.756933 
L 530.610156 272.893144 
L 618.872011 42.085734 
L 620.318926 275.221569 
L 710.027696 40.607618 
L 711.474612 273.743095 
L 801.183382 39.107839 
L 802.630298 272.242989 
L 817.099455 234.396723 
L 817.099455 234.396723 
" clip-path="url(#p6677189843)" style="fill: none; stroke: #2ca02c; stroke-opacity: 0.6; stroke-width: 0.6; stroke-linecap: square"/>
   </g>
   <g id="line2d_30">
    <path d="M 95.088545 246.242498 
L 173.221991 40.738084 
L 174.668906 273.85212 
L 262.930761 41.697709 
L 264.377676 274.811548 
L 354.086447 38.838261 
L 355.533362 271.951877 
L 443.795217 39.770623 
L 445.242133 272.884006 
L 533.503987 40.688402 
L 534.950903 273.801549 
L 623.212758 41.591874 
L 624.659673 274.704798 
L 712.921528 42.482174 
L 714.368443 275.594899 
L 804.077214 39.554175 
L 805.524129 272.666741 
L 817.099455 242.209196 
L 817.099455 242.209196 
" clip-path="url(#p6677189843)" style="fill: none; stroke: #d62728; stroke-opacity: 0.6; stroke-width: 0.6; stroke-linecap: square"/>
   </g>
   <g id="line2d_31">
    <path d="M 95.088545 83.087114 
L 112.451533 38.794288 
L 113.898449 272.023076 
L 205.054135 39.52731 
L 206.50105 272.75723 
L 297.656736 40.337147 
L 299.103652 273.568332 
L 390.259338 41.231391 
L 391.706254 274.463945 
L 482.86194 42.215395 
L 484.308855 275.449379 
L 576.911457 39.607502 
L 578.358372 272.842958 
L 669.514058 40.777331 
L 670.960974 274.014202 
L 762.11666 42.035217 
L 763.563576 275.273414 
L 817.099455 139.069485 
L 817.099455 139.069485 
" clip-path="url(#p6677189843)" style="fill: none; stroke: #9467bd; stroke-opacity: 0.6; stroke-width: 0.6; stroke-linecap: square"/>
   </g>
   <g id="line2d_32">
    <path d="M 95.088545 217.177253 
L 163.093581 38.970281 
L 164.540497 272.098292 
L 252.802351 40.794317 
L 254.249267 273.92207 
L 343.958037 38.810313 
L 345.404953 271.937812 
L 433.666807 40.603338 
L 435.113723 273.730606 
L 523.375578 42.382725 
L 524.822493 275.509786 
L 614.531264 40.357479 
L 615.978179 273.484366 
L 704.240034 42.115608 
L 705.68695 275.242368 
L 795.39572 40.074317 
L 796.842635 273.201 
L 817.099455 220.098002 
L 817.099455 220.098002 
" clip-path="url(#p6677189843)" style="fill: none; stroke: #8c564b; stroke-opacity: 0.6; stroke-width: 0.6; stroke-linecap: square"/>
   </g>
   <g id="line2d_33">
    <path d="M 95.088545 71.76024 
L 106.663871 41.774187 
L 108.110786 274.945709 
L 199.266472 38.820373 
L 200.713388 271.992316 
L 290.422158 39.642111 
L 291.869074 272.814507 
L 381.577844 40.493537 
L 383.02476 273.666423 
L 472.73353 41.376945 
L 474.180446 274.550357 
L 563.889216 42.294529 
L 565.336132 275.4685 
L 656.491817 39.503152 
L 657.938733 272.677723 
L 747.647503 40.495677 
L 749.094419 273.670867 
L 817.099455 97.687964 
L 817.099455 97.687964 
" clip-path="url(#p6677189843)" style="fill: none; stroke: #e377c2; stroke-opacity: 0.6; stroke-width: 0.6; stroke-linecap: square"/>
   </g>
   <g id="line2d_34">
    <path d="M 95.088545 222.630099 
L 164.540497 40.890213 
L 165.987412 274.023586 
L 255.696183 39.257638 
L 257.143098 272.390671 
L 345.404953 41.390694 
L 346.851868 274.523393 
L 436.560639 39.715832 
L 438.007554 272.848198 
L 526.269409 41.808148 
L 527.716325 274.940202 
L 617.425095 40.093755 
L 618.872011 273.225514 
L 707.133865 42.150041 
L 708.580781 275.281543 
L 798.289551 40.403074 
L 799.736467 273.534356 
L 817.099455 228.072492 
L 817.099455 228.072492 
" clip-path="url(#p6677189843)" style="fill: none; stroke: #7f7f7f; stroke-opacity: 0.6; stroke-width: 0.6; stroke-linecap: square"/>
   </g>
   <g id="line2d_35">
    <path d="M 95.088545 180.012888 
L 148.624424 41.380358 
L 150.07134 274.553211 
L 239.78011 42.237587 
L 241.227026 275.410176 
L 332.382712 39.329677 
L 333.829628 272.501964 
L 423.538398 40.149194 
L 424.985314 273.321152 
L 514.694084 40.947168 
L 516.140999 274.118771 
L 605.84977 41.722043 
L 607.296685 274.893268 
L 698.452371 38.723636 
L 699.899287 271.89446 
L 789.608057 39.448437 
L 791.054973 272.618853 
L 817.099455 205.129721 
L 817.099455 205.129721 
" clip-path="url(#p6677189843)" style="fill: none; stroke: #bcbd22; stroke-opacity: 0.6; stroke-width: 0.6; stroke-linecap: square"/>
   </g>
   <g id="line2d_36">
    <path d="M 95.088545 185.053512 
L 150.07134 41.629748 
L 151.518256 274.775136 
L 241.227026 40.759603 
L 242.673942 273.90483 
L 332.382712 39.879849 
L 333.829628 273.024932 
L 423.538398 38.991694 
L 424.985314 272.136655 
L 513.247168 41.87148 
L 514.694084 275.016345 
L 604.402854 40.9712 
L 605.84977 274.115997 
L 695.55854 40.067553 
L 697.005456 273.212312 
L 786.714226 39.162633 
L 788.161142 272.30739 
L 817.099455 196.807592 
L 817.099455 196.807592 
" clip-path="url(#p6677189843)" style="fill: none; stroke: #17becf; stroke-opacity: 0.6; stroke-width: 0.6; stroke-linecap: square"/>
   </g>
   <g id="line2d_37">
    <path d="M 95.088545 275.596364 
L 139.942931 41.813278 
L 141.389846 271.191638 
L 184.797316 44.949942 
L 186.244231 274.328302 
L 231.098617 40.545216 
L 232.545532 269.923576 
L 275.953002 43.68188 
L 277.399917 273.060241 
L 322.254302 39.277155 
L 323.701218 268.655515 
L 367.108688 42.413819 
L 368.555603 271.792179 
L 411.963073 45.550483 
L 413.409988 274.928843 
L 458.264373 41.145757 
L 459.711289 270.524117 
L 503.118759 44.282421 
L 504.565674 273.660782 
L 549.420059 39.877696 
L 550.866975 269.256056 
L 594.274445 43.01436 
L 595.72136 272.39272 
L 639.12883 46.151024 
L 640.575745 275.529384 
L 685.43013 41.746298 
L 686.877046 271.124659 
L 730.284516 44.882962 
L 731.731431 274.261323 
L 776.585816 40.478237 
L 778.032732 269.856597 
L 817.099455 66.239071 
L 817.099455 66.239071 
" clip-path="url(#p6677189843)" style="fill: none; stroke: #1f77b4; stroke-width: 2; stroke-linecap: square"/>
   </g>
   <g id="patch_3">
    <path d="M 58.988 287.44 
L 58.988 26.88 
" style="fill: none; stroke: #000000; stroke-width: 0.8; stroke-linejoin: miter; stroke-linecap: square"/>
   </g>
   <g id="patch_4">
    <path d="M 853.2 287.44 
L 853.2 26.88 
" style="fill: none; stroke: #000000; stroke-width: 0.8; stroke-linejoin: miter; stroke-linecap: square"/>
   </g>
   <g id="patch_5">
    <path d="M 58.988 287.44 
L 853.2 287.44 
" style="fill: none; stroke: #000000; stroke-width: 0.8; stroke-linejoin: miter; stroke-linecap: square"/>
   </g>
   <g id="patch_6">
    <path d="M 58.988 26.88 
L 853.2 26.88 
" style="fill: none; stroke: #000000; stroke-width: 0.8; stroke-linejoin: miter; stroke-linecap: square"/>
   </g>
   <g id="text_16">
    <!-- Phase plot for N = 10, K = 0.01, var = 0.01, K (env) = 0.00, env. frequency = 2 -->
    <g transform="translate(217.542437 20.88) scale(0.12 -0.12)">
     <defs>
      <path id="DejaVuSans-70" d="M 1159 525 
L 1159 -1331 
L 581 -1331 
L 581 3500 
L 1159 3500 
L 1159 2969 
Q 1341 3281 1617 3432 
Q 1894 3584 2278 3584 
Q 2916 3584 3314 3078 
Q 3713 2572 3713 1747 
Q 3713 922 3314 415 
Q 2916 -91 2278 -91 
Q 1894 -91 1617 61 
Q 1341 213 1159 525 
z
M 3116 1747 
Q 3116 2381 2855 2742 
Q 2594 3103 2138 3103 
Q 1681 3103 1420 2742 
Q 1159 2381 1159 1747 
Q 1159 1113 1420 752 
Q 1681 391 2138 391 
Q 2594 391 2855 752 
Q 3116 1113 3116 1747 
z
" transform="scale(0.015625)"/>
      <path id="DejaVuSans-6c" d="M 603 4863 
L 1178 4863 
L 1178 0 
L 603 0 
L 603 4863 
z
" transform="scale(0.015625)"/>
      <path id="DejaVuSans-6f" d="M 1959 3097 
Q 1497 3097 1228 2736 
Q 959 2375 959 1747 
Q 959 1119 1226 758 
Q 1494 397 1959 397 
Q 2419 397 2687 759 
Q 2956 1122 2956 1747 
Q 2956 2369 2687 2733 
Q 2419 3097 1959 3097 
z
M 1959 3584 
Q 2709 3584 3137 3096 
Q 3566 2609 3566 1747 
Q 3566 888 3137 398 
Q 2709 -91 1959 -91 
Q 1206 -91 779 398 
Q 353 888 353 1747 
Q 353 2609 779 3096 
Q 1206 3584 1959 3584 
z
" transform="scale(0.015625)"/>
      <path id="DejaVuSans-74" d="M 1172 4494 
L 1172 3500 
L 2356 3500 
L 2356 3053 
L 1172 3053 
L 1172 1153 
Q 1172 725 1289 603 
Q 1406 481 1766 481 
L 2356 481 
L 2356 0 
L 1766 0 
Q 1100 0 847 248 
Q 594 497 594 1153 
L 594 3053 
L 172 3053 
L 172 3500 
L 594 3500 
L 594 4494 
L 1172 4494 
z
" transform="scale(0.015625)"/>
      <path id="DejaVuSans-66" d="M 2375 4863 
L 2375 4384 
L 1825 4384 
Q 1516 4384 1395 4259 
Q 1275 4134 1275 3809 
L 1275 3500 
L 2222 3500 
L 2222 3053 
L 1275 3053 
L 1275 0 
L 697 0 
L 697 3053 
L 147 3053 
L 147 3500 
L 697 3500 
L 697 3744 
Q 697 4328 969 4595 
Q 1241 4863 1831 4863 
L 2375 4863 
z
" transform="scale(0.015625)"/>
      <path id="DejaVuSans-72" d="M 2631 2963 
Q 2534 3019 2420 3045 
Q 2306 3072 2169 3072 
Q 1681 3072 1420 2755 
Q 1159 2438 1159 1844 
L 1159 0 
L 581 0 
L 581 3500 
L 1159 3500 
L 1159 2956 
Q 1341 3275 1631 3429 
Q 1922 3584 2338 3584 
Q 2397 3584 2469 3576 
Q 2541 3569 2628 3553 
L 2631 2963 
z
" transform="scale(0.015625)"/>
      <path id="DejaVuSans-4e" d="M 628 4666 
L 1478 4666 
L 3547 763 
L 3547 4666 
L 4159 4666 
L 4159 0 
L 3309 0 
L 1241 3903 
L 1241 0 
L 628 0 
L 628 4666 
z
" transform="scale(0.015625)"/>
      <path id="DejaVuSans-3d" d="M 678 2906 
L 4684 2906 
L 4684 2381 
L 678 2381 
L 678 2906 
z
M 678 1631 
L 4684 1631 
L 4684 1100 
L 678 1100 
L 678 1631 
z
" transform="scale(0.015625)"/>
      <path id="DejaVuSans-2c" d="M 750 794 
L 1409 794 
L 1409 256 
L 897 -744 
L 494 -744 
L 750 256 
L 750 794 
z
" transform="scale(0.015625)"/>
      <path id="DejaVuSans-4b" d="M 628 4666 
L 1259 4666 
L 1259 2694 
L 3353 4666 
L 4166 4666 
L 1850 2491 
L 4331 0 
L 3500 0 
L 1259 2247 
L 1259 0 
L 628 0 
L 628 4666 
z
" transform="scale(0.015625)"/>
      <path id="DejaVuSans-2e" d="M 684 794 
L 1344 794 
L 1344 0 
L 684 0 
L 684 794 
z
" transform="scale(0.015625)"/>
      <path id="DejaVuSans-76" d="M 191 3500 
L 800 3500 
L 1894 563 
L 2988 3500 
L 3597 3500 
L 2284 0 
L 1503 0 
L 191 3500 
z
" transform="scale(0.015625)"/>
      <path id="DejaVuSans-28" d="M 1984 4856 
Q 1566 4138 1362 3434 
Q 1159 2731 1159 2009 
Q 1159 1288 1364 580 
Q 1569 -128 1984 -844 
L 1484 -844 
Q 1016 -109 783 600 
Q 550 1309 550 2009 
Q 550 2706 781 3412 
Q 1013 4119 1484 4856 
L 1984 4856 
z
" transform="scale(0.015625)"/>
      <path id="DejaVuSans-6e" d="M 3513 2113 
L 3513 0 
L 2938 0 
L 2938 2094 
Q 2938 2591 2744 2837 
Q 2550 3084 2163 3084 
Q 1697 3084 1428 2787 
Q 1159 2491 1159 1978 
L 1159 0 
L 581 0 
L 581 3500 
L 1159 3500 
L 1159 2956 
Q 1366 3272 1645 3428 
Q 1925 3584 2291 3584 
Q 2894 3584 3203 3211 
Q 3513 2838 3513 2113 
z
" transform="scale(0.015625)"/>
      <path id="DejaVuSans-29" d="M 513 4856 
L 1013 4856 
Q 1481 4119 1714 3412 
Q 1947 2706 1947 2009 
Q 1947 1309 1714 600 
Q 1481 -109 1013 -844 
L 513 -844 
Q 928 -128 1133 580 
Q 1338 1288 1338 2009 
Q 1338 2731 1133 3434 
Q 928 4138 513 4856 
z
" transform="scale(0.015625)"/>
      <path id="DejaVuSans-71" d="M 947 1747 
Q 947 1113 1208 752 
Q 1469 391 1925 391 
Q 2381 391 2643 752 
Q 2906 1113 2906 1747 
Q 2906 2381 2643 2742 
Q 2381 3103 1925 3103 
Q 1469 3103 1208 2742 
Q 947 2381 947 1747 
z
M 2906 525 
Q 2725 213 2448 61 
Q 2172 -91 1784 -91 
Q 1150 -91 751 415 
Q 353 922 353 1747 
Q 353 2572 751 3078 
Q 1150 3584 1784 3584 
Q 2172 3584 2448 3432 
Q 2725 3281 2906 2969 
L 2906 3500 
L 3481 3500 
L 3481 -1331 
L 2906 -1331 
L 2906 525 
z
" transform="scale(0.015625)"/>
      <path id="DejaVuSans-75" d="M 544 1381 
L 544 3500 
L 1119 3500 
L 1119 1403 
Q 1119 906 1312 657 
Q 1506 409 1894 409 
Q 2359 409 2629 706 
Q 2900 1003 2900 1516 
L 2900 3500 
L 3475 3500 
L 3475 0 
L 2900 0 
L 2900 538 
Q 2691 219 2414 64 
Q 2138 -91 1772 -91 
Q 1169 -91 856 284 
Q 544 659 544 1381 
z
M 1991 3584 
L 1991 3584 
z
" transform="scale(0.015625)"/>
      <path id="DejaVuSans-63" d="M 3122 3366 
L 3122 2828 
Q 2878 2963 2633 3030 
Q 2388 3097 2138 3097 
Q 1578 3097 1268 2742 
Q 959 2388 959 1747 
Q 959 1106 1268 751 
Q 1578 397 2138 397 
Q 2388 397 2633 464 
Q 2878 531 3122 666 
L 3122 134 
Q 2881 22 2623 -34 
Q 2366 -91 2075 -91 
Q 1284 -91 818 406 
Q 353 903 353 1747 
Q 353 2603 823 3093 
Q 1294 3584 2113 3584 
Q 2378 3584 2631 3529 
Q 2884 3475 3122 3366 
z
" transform="scale(0.015625)"/>
      <path id="DejaVuSans-79" d="M 2059 -325 
Q 1816 -950 1584 -1140 
Q 1353 -1331 966 -1331 
L 506 -1331 
L 506 -850 
L 844 -850 
Q 1081 -850 1212 -737 
Q 1344 -625 1503 -206 
L 1606 56 
L 191 3500 
L 800 3500 
L 1894 763 
L 2988 3500 
L 3597 3500 
L 2059 -325 
z
" transform="scale(0.015625)"/>
     </defs>
     <use xlink:href="#DejaVuSans-50"/>
     <use xlink:href="#DejaVuSans-68" transform="translate(60.302734 0)"/>
     <use xlink:href="#DejaVuSans-61" transform="translate(123.681641 0)"/>
     <use xlink:href="#DejaVuSans-73" transform="translate(184.960938 0)"/>
     <use xlink:href="#DejaVuSans-65" transform="translate(237.060547 0)"/>
     <use xlink:href="#DejaVuSans-20" transform="translate(298.583984 0)"/>
     <use xlink:href="#DejaVuSans-70" transform="translate(330.371094 0)"/>
     <use xlink:href="#DejaVuSans-6c" transform="translate(393.847656 0)"/>
     <use xlink:href="#DejaVuSans-6f" transform="translate(421.630859 0)"/>
     <use xlink:href="#DejaVuSans-74" transform="translate(482.8125 0)"/>
     <use xlink:href="#DejaVuSans-20" transform="translate(522.021484 0)"/>
     <use xlink:href="#DejaVuSans-66" transform="translate(553.808594 0)"/>
     <use xlink:href="#DejaVuSans-6f" transform="translate(589.013672 0)"/>
     <use xlink:href="#DejaVuSans-72" transform="translate(650.195312 0)"/>
     <use xlink:href="#DejaVuSans-20" transform="translate(691.308594 0)"/>
     <use xlink:href="#DejaVuSans-4e" transform="translate(723.095703 0)"/>
     <use xlink:href="#DejaVuSans-20" transform="translate(797.900391 0)"/>
     <use xlink:href="#DejaVuSans-3d" transform="translate(829.6875 0)"/>
     <use xlink:href="#DejaVuSans-20" transform="translate(913.476562 0)"/>
     <use xlink:href="#DejaVuSans-31" transform="translate(945.263672 0)"/>
     <use xlink:href="#DejaVuSans-30" transform="translate(1008.886719 0)"/>
     <use xlink:href="#DejaVuSans-2c" transform="translate(1072.509766 0)"/>
     <use xlink:href="#DejaVuSans-20" transform="translate(1104.296875 0)"/>
     <use xlink:href="#DejaVuSans-4b" transform="translate(1136.083984 0)"/>
     <use xlink:href="#DejaVuSans-20" transform="translate(1201.660156 0)"/>
     <use xlink:href="#DejaVuSans-3d" transform="translate(1233.447266 0)"/>
     <use xlink:href="#DejaVuSans-20" transform="translate(1317.236328 0)"/>
     <use xlink:href="#DejaVuSans-30" transform="translate(1349.023438 0)"/>
     <use xlink:href="#DejaVuSans-2e" transform="translate(1412.646484 0)"/>
     <use xlink:href="#DejaVuSans-30" transform="translate(1444.433594 0)"/>
     <use xlink:href="#DejaVuSans-31" transform="translate(1508.056641 0)"/>
     <use xlink:href="#DejaVuSans-2c" transform="translate(1571.679688 0)"/>
     <use xlink:href="#DejaVuSans-20" transform="translate(1603.466797 0)"/>
     <use xlink:href="#DejaVuSans-76" transform="translate(1635.253906 0)"/>
     <use xlink:href="#DejaVuSans-61" transform="translate(1694.433594 0)"/>
     <use xlink:href="#DejaVuSans-72" transform="translate(1755.712891 0)"/>
     <use xlink:href="#DejaVuSans-20" transform="translate(1796.826172 0)"/>
     <use xlink:href="#DejaVuSans-3d" transform="translate(1828.613281 0)"/>
     <use xlink:href="#DejaVuSans-20" transform="translate(1912.402344 0)"/>
     <use xlink:href="#DejaVuSans-30" transform="translate(1944.189453 0)"/>
     <use xlink:href="#DejaVuSans-2e" transform="translate(2007.8125 0)"/>
     <use xlink:href="#DejaVuSans-30" transform="translate(2039.599609 0)"/>
     <use xlink:href="#DejaVuSans-31" transform="translate(2103.222656 0)"/>
     <use xlink:href="#DejaVuSans-2c" transform="translate(2166.845703 0)"/>
     <use xlink:href="#DejaVuSans-20" transform="translate(2198.632812 0)"/>
     <use xlink:href="#DejaVuSans-4b" transform="translate(2230.419922 0)"/>
     <use xlink:href="#DejaVuSans-20" transform="translate(2295.996094 0)"/>
     <use xlink:href="#DejaVuSans-28" transform="translate(2327.783203 0)"/>
     <use xlink:href="#DejaVuSans-65" transform="translate(2366.796875 0)"/>
     <use xlink:href="#DejaVuSans-6e" transform="translate(2428.320312 0)"/>
     <use xlink:href="#DejaVuSans-76" transform="translate(2491.699219 0)"/>
     <use xlink:href="#DejaVuSans-29" transform="translate(2550.878906 0)"/>
     <use xlink:href="#DejaVuSans-20" transform="translate(2589.892578 0)"/>
     <use xlink:href="#DejaVuSans-3d" transform="translate(2621.679688 0)"/>
     <use xlink:href="#DejaVuSans-20" transform="translate(2705.46875 0)"/>
     <use xlink:href="#DejaVuSans-30" transform="translate(2737.255859 0)"/>
     <use xlink:href="#DejaVuSans-2e" transform="translate(2800.878906 0)"/>
     <use xlink:href="#DejaVuSans-30" transform="translate(2832.666016 0)"/>
     <use xlink:href="#DejaVuSans-30" transform="translate(2896.289062 0)"/>
     <use xlink:href="#DejaVuSans-2c" transform="translate(2959.912109 0)"/>
     <use xlink:href="#DejaVuSans-20" transform="translate(2991.699219 0)"/>
     <use xlink:href="#DejaVuSans-65" transform="translate(3023.486328 0)"/>
     <use xlink:href="#DejaVuSans-6e" transform="translate(3085.009766 0)"/>
     <use xlink:href="#DejaVuSans-76" transform="translate(3148.388672 0)"/>
     <use xlink:href="#DejaVuSans-2e" transform="translate(3199.818359 0)"/>
     <use xlink:href="#DejaVuSans-20" transform="translate(3231.605469 0)"/>
     <use xlink:href="#DejaVuSans-66" transform="translate(3263.392578 0)"/>
     <use xlink:href="#DejaVuSans-72" transform="translate(3298.597656 0)"/>
     <use xlink:href="#DejaVuSans-65" transform="translate(3337.460938 0)"/>
     <use xlink:href="#DejaVuSans-71" transform="translate(3398.984375 0)"/>
     <use xlink:href="#DejaVuSans-75" transform="translate(3462.460938 0)"/>
     <use xlink:href="#DejaVuSans-65" transform="translate(3525.839844 0)"/>
     <use xlink:href="#DejaVuSans-6e" transform="translate(3587.363281 0)"/>
     <use xlink:href="#DejaVuSans-63" transform="translate(3650.742188 0)"/>
     <use xlink:href="#DejaVuSans-79" transform="translate(3705.722656 0)"/>
     <use xlink:href="#DejaVuSans-20" transform="translate(3764.902344 0)"/>
     <use xlink:href="#DejaVuSans-3d" transform="translate(3796.689453 0)"/>
     <use xlink:href="#DejaVuSans-20" transform="translate(3880.478516 0)"/>
     <use xlink:href="#DejaVuSans-32" transform="translate(3912.265625 0)"/>
    </g>
   </g>
  </g>
  <g id="axes_2">
   <g id="patch_7">
    <path d="M 58.988 606.04 
L 853.2 606.04 
L 853.2 345.48 
L 58.988 345.48 
z
" style="fill: #ffffff"/>
   </g>
   <g id="matplotlib.axis_3">
    <g id="xtick_7">
     <g id="line2d_38">
      <path d="M 95.088545 606.04 
L 95.088545 345.48 
" clip-path="url(#pdce8d9ca15)" style="fill: none; stroke: #b0b0b0; stroke-opacity: 0.4; stroke-width: 0.8; stroke-linecap: square"/>
     </g>
     <g id="line2d_39">
      <g>
       <use xlink:href="#m84e1bfa8ab" x="95.088545" y="606.04" style="stroke: #000000; stroke-width: 0.8"/>
      </g>
     </g>
     <g id="text_17">
      <!-- 0 -->
      <g transform="translate(91.907295 620.638437) scale(0.1 -0.1)">
       <use xlink:href="#DejaVuSans-30"/>
      </g>
     </g>
    </g>
    <g id="xtick_8">
     <g id="line2d_40">
      <path d="M 239.78011 606.04 
L 239.78011 345.48 
" clip-path="url(#pdce8d9ca15)" style="fill: none; stroke: #b0b0b0; stroke-opacity: 0.4; stroke-width: 0.8; stroke-linecap: square"/>
     </g>
     <g id="line2d_41">
      <g>
       <use xlink:href="#m84e1bfa8ab" x="239.78011" y="606.04" style="stroke: #000000; stroke-width: 0.8"/>
      </g>
     </g>
     <g id="text_18">
      <!-- 10 -->
      <g transform="translate(233.41761 620.638437) scale(0.1 -0.1)">
       <use xlink:href="#DejaVuSans-31"/>
       <use xlink:href="#DejaVuSans-30" transform="translate(63.623047 0)"/>
      </g>
     </g>
    </g>
    <g id="xtick_9">
     <g id="line2d_42">
      <path d="M 384.471675 606.04 
L 384.471675 345.48 
" clip-path="url(#pdce8d9ca15)" style="fill: none; stroke: #b0b0b0; stroke-opacity: 0.4; stroke-width: 0.8; stroke-linecap: square"/>
     </g>
     <g id="line2d_43">
      <g>
       <use xlink:href="#m84e1bfa8ab" x="384.471675" y="606.04" style="stroke: #000000; stroke-width: 0.8"/>
      </g>
     </g>
     <g id="text_19">
      <!-- 20 -->
      <g transform="translate(378.109175 620.638437) scale(0.1 -0.1)">
       <use xlink:href="#DejaVuSans-32"/>
       <use xlink:href="#DejaVuSans-30" transform="translate(63.623047 0)"/>
      </g>
     </g>
    </g>
    <g id="xtick_10">
     <g id="line2d_44">
      <path d="M 529.16324 606.04 
L 529.16324 345.48 
" clip-path="url(#pdce8d9ca15)" style="fill: none; stroke: #b0b0b0; stroke-opacity: 0.4; stroke-width: 0.8; stroke-linecap: square"/>
     </g>
     <g id="line2d_45">
      <g>
       <use xlink:href="#m84e1bfa8ab" x="529.16324" y="606.04" style="stroke: #000000; stroke-width: 0.8"/>
      </g>
     </g>
     <g id="text_20">
      <!-- 30 -->
      <g transform="translate(522.80074 620.638437) scale(0.1 -0.1)">
       <use xlink:href="#DejaVuSans-33"/>
       <use xlink:href="#DejaVuSans-30" transform="translate(63.623047 0)"/>
      </g>
     </g>
    </g>
    <g id="xtick_11">
     <g id="line2d_46">
      <path d="M 673.854805 606.04 
L 673.854805 345.48 
" clip-path="url(#pdce8d9ca15)" style="fill: none; stroke: #b0b0b0; stroke-opacity: 0.4; stroke-width: 0.8; stroke-linecap: square"/>
     </g>
     <g id="line2d_47">
      <g>
       <use xlink:href="#m84e1bfa8ab" x="673.854805" y="606.04" style="stroke: #000000; stroke-width: 0.8"/>
      </g>
     </g>
     <g id="text_21">
      <!-- 40 -->
      <g transform="translate(667.492305 620.638437) scale(0.1 -0.1)">
       <use xlink:href="#DejaVuSans-34"/>
       <use xlink:href="#DejaVuSans-30" transform="translate(63.623047 0)"/>
      </g>
     </g>
    </g>
    <g id="xtick_12">
     <g id="line2d_48">
      <path d="M 818.54637 606.04 
L 818.54637 345.48 
" clip-path="url(#pdce8d9ca15)" style="fill: none; stroke: #b0b0b0; stroke-opacity: 0.4; stroke-width: 0.8; stroke-linecap: square"/>
     </g>
     <g id="line2d_49">
      <g>
       <use xlink:href="#m84e1bfa8ab" x="818.54637" y="606.04" style="stroke: #000000; stroke-width: 0.8"/>
      </g>
     </g>
     <g id="text_22">
      <!-- 50 -->
      <g transform="translate(812.18387 620.638437) scale(0.1 -0.1)">
       <use xlink:href="#DejaVuSans-35"/>
       <use xlink:href="#DejaVuSans-30" transform="translate(63.623047 0)"/>
      </g>
     </g>
    </g>
    <g id="text_23">
     <!-- $t$ -->
     <g transform="translate(454.094 634.316562) scale(0.1 -0.1)">
      <use xlink:href="#DejaVuSans-Oblique-74" transform="translate(0 0.78125)"/>
     </g>
    </g>
   </g>
   <g id="matplotlib.axis_4">
    <g id="ytick_8">
     <g id="line2d_50">
      <path d="M 58.988 574.951659 
L 853.2 574.951659 
" clip-path="url(#pdce8d9ca15)" style="fill: none; stroke: #b0b0b0; stroke-opacity: 0.4; stroke-width: 0.8; stroke-linecap: square"/>
     </g>
     <g id="line2d_51">
      <g>
       <use xlink:href="#m12920fbd2d" x="58.988" y="574.951659" style="stroke: #000000; stroke-width: 0.8"/>
      </g>
     </g>
     <g id="text_24">
      <!-- 0.32 -->
      <g transform="translate(29.722375 578.750877) scale(0.1 -0.1)">
       <use xlink:href="#DejaVuSans-30"/>
       <use xlink:href="#DejaVuSans-2e" transform="translate(63.623047 0)"/>
       <use xlink:href="#DejaVuSans-33" transform="translate(95.410156 0)"/>
       <use xlink:href="#DejaVuSans-32" transform="translate(159.033203 0)"/>
      </g>
     </g>
    </g>
    <g id="ytick_9">
     <g id="line2d_52">
      <path d="M 58.988 535.690073 
L 853.2 535.690073 
" clip-path="url(#pdce8d9ca15)" style="fill: none; stroke: #b0b0b0; stroke-opacity: 0.4; stroke-width: 0.8; stroke-linecap: square"/>
     </g>
     <g id="line2d_53">
      <g>
       <use xlink:href="#m12920fbd2d" x="58.988" y="535.690073" style="stroke: #000000; stroke-width: 0.8"/>
      </g>
     </g>
     <g id="text_25">
      <!-- 0.34 -->
      <g transform="translate(29.722375 539.489292) scale(0.1 -0.1)">
       <use xlink:href="#DejaVuSans-30"/>
       <use xlink:href="#DejaVuSans-2e" transform="translate(63.623047 0)"/>
       <use xlink:href="#DejaVuSans-33" transform="translate(95.410156 0)"/>
       <use xlink:href="#DejaVuSans-34" transform="translate(159.033203 0)"/>
      </g>
     </g>
    </g>
    <g id="ytick_10">
     <g id="line2d_54">
      <path d="M 58.988 496.428488 
L 853.2 496.428488 
" clip-path="url(#pdce8d9ca15)" style="fill: none; stroke: #b0b0b0; stroke-opacity: 0.4; stroke-width: 0.8; stroke-linecap: square"/>
     </g>
     <g id="line2d_55">
      <g>
       <use xlink:href="#m12920fbd2d" x="58.988" y="496.428488" style="stroke: #000000; stroke-width: 0.8"/>
      </g>
     </g>
     <g id="text_26">
      <!-- 0.36 -->
      <g transform="translate(29.722375 500.227707) scale(0.1 -0.1)">
       <use xlink:href="#DejaVuSans-30"/>
       <use xlink:href="#DejaVuSans-2e" transform="translate(63.623047 0)"/>
       <use xlink:href="#DejaVuSans-33" transform="translate(95.410156 0)"/>
       <use xlink:href="#DejaVuSans-36" transform="translate(159.033203 0)"/>
      </g>
     </g>
    </g>
    <g id="ytick_11">
     <g id="line2d_56">
      <path d="M 58.988 457.166902 
L 853.2 457.166902 
" clip-path="url(#pdce8d9ca15)" style="fill: none; stroke: #b0b0b0; stroke-opacity: 0.4; stroke-width: 0.8; stroke-linecap: square"/>
     </g>
     <g id="line2d_57">
      <g>
       <use xlink:href="#m12920fbd2d" x="58.988" y="457.166902" style="stroke: #000000; stroke-width: 0.8"/>
      </g>
     </g>
     <g id="text_27">
      <!-- 0.38 -->
      <g transform="translate(29.722375 460.966121) scale(0.1 -0.1)">
       <defs>
        <path id="DejaVuSans-38" d="M 2034 2216 
Q 1584 2216 1326 1975 
Q 1069 1734 1069 1313 
Q 1069 891 1326 650 
Q 1584 409 2034 409 
Q 2484 409 2743 651 
Q 3003 894 3003 1313 
Q 3003 1734 2745 1975 
Q 2488 2216 2034 2216 
z
M 1403 2484 
Q 997 2584 770 2862 
Q 544 3141 544 3541 
Q 544 4100 942 4425 
Q 1341 4750 2034 4750 
Q 2731 4750 3128 4425 
Q 3525 4100 3525 3541 
Q 3525 3141 3298 2862 
Q 3072 2584 2669 2484 
Q 3125 2378 3379 2068 
Q 3634 1759 3634 1313 
Q 3634 634 3220 271 
Q 2806 -91 2034 -91 
Q 1263 -91 848 271 
Q 434 634 434 1313 
Q 434 1759 690 2068 
Q 947 2378 1403 2484 
z
M 1172 3481 
Q 1172 3119 1398 2916 
Q 1625 2713 2034 2713 
Q 2441 2713 2670 2916 
Q 2900 3119 2900 3481 
Q 2900 3844 2670 4047 
Q 2441 4250 2034 4250 
Q 1625 4250 1398 4047 
Q 1172 3844 1172 3481 
z
" transform="scale(0.015625)"/>
       </defs>
       <use xlink:href="#DejaVuSans-30"/>
       <use xlink:href="#DejaVuSans-2e" transform="translate(63.623047 0)"/>
       <use xlink:href="#DejaVuSans-33" transform="translate(95.410156 0)"/>
       <use xlink:href="#DejaVuSans-38" transform="translate(159.033203 0)"/>
      </g>
     </g>
    </g>
    <g id="ytick_12">
     <g id="line2d_58">
      <path d="M 58.988 417.905317 
L 853.2 417.905317 
" clip-path="url(#pdce8d9ca15)" style="fill: none; stroke: #b0b0b0; stroke-opacity: 0.4; stroke-width: 0.8; stroke-linecap: square"/>
     </g>
     <g id="line2d_59">
      <g>
       <use xlink:href="#m12920fbd2d" x="58.988" y="417.905317" style="stroke: #000000; stroke-width: 0.8"/>
      </g>
     </g>
     <g id="text_28">
      <!-- 0.40 -->
      <g transform="translate(29.722375 421.704536) scale(0.1 -0.1)">
       <use xlink:href="#DejaVuSans-30"/>
       <use xlink:href="#DejaVuSans-2e" transform="translate(63.623047 0)"/>
       <use xlink:href="#DejaVuSans-34" transform="translate(95.410156 0)"/>
       <use xlink:href="#DejaVuSans-30" transform="translate(159.033203 0)"/>
      </g>
     </g>
    </g>
    <g id="ytick_13">
     <g id="line2d_60">
      <path d="M 58.988 378.643731 
L 853.2 378.643731 
" clip-path="url(#pdce8d9ca15)" style="fill: none; stroke: #b0b0b0; stroke-opacity: 0.4; stroke-width: 0.8; stroke-linecap: square"/>
     </g>
     <g id="line2d_61">
      <g>
       <use xlink:href="#m12920fbd2d" x="58.988" y="378.643731" style="stroke: #000000; stroke-width: 0.8"/>
      </g>
     </g>
     <g id="text_29">
      <!-- 0.42 -->
      <g transform="translate(29.722375 382.44295) scale(0.1 -0.1)">
       <use xlink:href="#DejaVuSans-30"/>
       <use xlink:href="#DejaVuSans-2e" transform="translate(63.623047 0)"/>
       <use xlink:href="#DejaVuSans-34" transform="translate(95.410156 0)"/>
       <use xlink:href="#DejaVuSans-32" transform="translate(159.033203 0)"/>
      </g>
     </g>
    </g>
    <g id="text_30">
     <!-- Order parameter $|&lt;e^{i\theta}&gt;|$ -->
     <g transform="translate(23.322375 541.86) rotate(-90) scale(0.1 -0.1)">
      <defs>
       <path id="DejaVuSans-4f" d="M 2522 4238 
Q 1834 4238 1429 3725 
Q 1025 3213 1025 2328 
Q 1025 1447 1429 934 
Q 1834 422 2522 422 
Q 3209 422 3611 934 
Q 4013 1447 4013 2328 
Q 4013 3213 3611 3725 
Q 3209 4238 2522 4238 
z
M 2522 4750 
Q 3503 4750 4090 4092 
Q 4678 3434 4678 2328 
Q 4678 1225 4090 567 
Q 3503 -91 2522 -91 
Q 1538 -91 948 565 
Q 359 1222 359 2328 
Q 359 3434 948 4092 
Q 1538 4750 2522 4750 
z
" transform="scale(0.015625)"/>
       <path id="DejaVuSans-64" d="M 2906 2969 
L 2906 4863 
L 3481 4863 
L 3481 0 
L 2906 0 
L 2906 525 
Q 2725 213 2448 61 
Q 2172 -91 1784 -91 
Q 1150 -91 751 415 
Q 353 922 353 1747 
Q 353 2572 751 3078 
Q 1150 3584 1784 3584 
Q 2172 3584 2448 3432 
Q 2725 3281 2906 2969 
z
M 947 1747 
Q 947 1113 1208 752 
Q 1469 391 1925 391 
Q 2381 391 2643 752 
Q 2906 1113 2906 1747 
Q 2906 2381 2643 2742 
Q 2381 3103 1925 3103 
Q 1469 3103 1208 2742 
Q 947 2381 947 1747 
z
" transform="scale(0.015625)"/>
       <path id="DejaVuSans-6d" d="M 3328 2828 
Q 3544 3216 3844 3400 
Q 4144 3584 4550 3584 
Q 5097 3584 5394 3201 
Q 5691 2819 5691 2113 
L 5691 0 
L 5113 0 
L 5113 2094 
Q 5113 2597 4934 2840 
Q 4756 3084 4391 3084 
Q 3944 3084 3684 2787 
Q 3425 2491 3425 1978 
L 3425 0 
L 2847 0 
L 2847 2094 
Q 2847 2600 2669 2842 
Q 2491 3084 2119 3084 
Q 1678 3084 1418 2786 
Q 1159 2488 1159 1978 
L 1159 0 
L 581 0 
L 581 3500 
L 1159 3500 
L 1159 2956 
Q 1356 3278 1631 3431 
Q 1906 3584 2284 3584 
Q 2666 3584 2933 3390 
Q 3200 3197 3328 2828 
z
" transform="scale(0.015625)"/>
       <path id="DejaVuSans-7c" d="M 1344 4891 
L 1344 -1509 
L 813 -1509 
L 813 4891 
L 1344 4891 
z
" transform="scale(0.015625)"/>
       <path id="DejaVuSans-3c" d="M 4684 3150 
L 1459 2003 
L 4684 863 
L 4684 294 
L 678 1747 
L 678 2266 
L 4684 3719 
L 4684 3150 
z
" transform="scale(0.015625)"/>
       <path id="DejaVuSans-Oblique-65" d="M 3078 2063 
Q 3088 2113 3092 2166 
Q 3097 2219 3097 2272 
Q 3097 2653 2873 2875 
Q 2650 3097 2266 3097 
Q 1838 3097 1509 2826 
Q 1181 2556 1013 2059 
L 3078 2063 
z
M 3578 1613 
L 903 1613 
Q 884 1494 878 1425 
Q 872 1356 872 1306 
Q 872 872 1139 634 
Q 1406 397 1894 397 
Q 2269 397 2603 481 
Q 2938 566 3225 728 
L 3116 159 
Q 2806 34 2476 -28 
Q 2147 -91 1806 -91 
Q 1078 -91 686 257 
Q 294 606 294 1247 
Q 294 1794 489 2264 
Q 684 2734 1063 3103 
Q 1306 3334 1642 3459 
Q 1978 3584 2356 3584 
Q 2950 3584 3301 3228 
Q 3653 2872 3653 2272 
Q 3653 2128 3634 1964 
Q 3616 1800 3578 1613 
z
" transform="scale(0.015625)"/>
       <path id="DejaVuSans-Oblique-69" d="M 1172 4863 
L 1747 4863 
L 1606 4134 
L 1031 4134 
L 1172 4863 
z
M 909 3500 
L 1484 3500 
L 800 0 
L 225 0 
L 909 3500 
z
" transform="scale(0.015625)"/>
       <path id="DejaVuSans-3e" d="M 678 3150 
L 678 3719 
L 4684 2266 
L 4684 1747 
L 678 294 
L 678 863 
L 3897 2003 
L 678 3150 
z
" transform="scale(0.015625)"/>
      </defs>
      <use xlink:href="#DejaVuSans-4f" transform="translate(0 0.982812)"/>
      <use xlink:href="#DejaVuSans-72" transform="translate(78.710938 0.982812)"/>
      <use xlink:href="#DejaVuSans-64" transform="translate(119.824219 0.982812)"/>
      <use xlink:href="#DejaVuSans-65" transform="translate(183.300781 0.982812)"/>
      <use xlink:href="#DejaVuSans-72" transform="translate(244.824219 0.982812)"/>
      <use xlink:href="#DejaVuSans-20" transform="translate(285.9375 0.982812)"/>
      <use xlink:href="#DejaVuSans-70" transform="translate(317.724609 0.982812)"/>
      <use xlink:href="#DejaVuSans-61" transform="translate(381.201172 0.982812)"/>
      <use xlink:href="#DejaVuSans-72" transform="translate(442.480469 0.982812)"/>
      <use xlink:href="#DejaVuSans-61" transform="translate(483.59375 0.982812)"/>
      <use xlink:href="#DejaVuSans-6d" transform="translate(544.873047 0.982812)"/>
      <use xlink:href="#DejaVuSans-65" transform="translate(642.285156 0.982812)"/>
      <use xlink:href="#DejaVuSans-74" transform="translate(703.808594 0.982812)"/>
      <use xlink:href="#DejaVuSans-65" transform="translate(743.017578 0.982812)"/>
      <use xlink:href="#DejaVuSans-72" transform="translate(804.541016 0.982812)"/>
      <use xlink:href="#DejaVuSans-20" transform="translate(845.654297 0.982812)"/>
      <use xlink:href="#DejaVuSans-7c" transform="translate(877.441406 0.982812)"/>
      <use xlink:href="#DejaVuSans-3c" transform="translate(930.615234 0.982812)"/>
      <use xlink:href="#DejaVuSans-Oblique-65" transform="translate(1033.886719 0.982812)"/>
      <use xlink:href="#DejaVuSans-Oblique-69" transform="translate(1100.060052 39.264062) scale(0.7)"/>
      <use xlink:href="#DejaVuSans-Oblique-3b8" transform="translate(1119.508294 39.264062) scale(0.7)"/>
      <use xlink:href="#DejaVuSans-3e" transform="translate(1184.55224 0.982812)"/>
      <use xlink:href="#DejaVuSans-7c" transform="translate(1287.823724 0.982812)"/>
     </g>
    </g>
   </g>
   <g id="line2d_62">
    <path d="M 95.088545 594.196364 
L 112.451533 592.78536 
L 129.814521 591.155485 
L 147.177509 589.303663 
L 164.540497 587.227186 
L 181.903484 584.92372 
L 199.266472 582.39132 
L 216.62946 579.628435 
L 233.992448 576.633918 
L 251.355436 573.407028 
L 268.718423 569.947433 
L 286.081411 566.255213 
L 303.444399 562.330856 
L 320.807387 558.175258 
L 338.170375 553.78972 
L 355.533362 549.175938 
L 372.89635 544.335998 
L 390.259338 539.27237 
L 407.622326 533.987892 
L 424.985314 528.485767 
L 443.795217 522.283649 
L 462.60512 515.83523 
L 481.415024 509.145915 
L 500.224927 502.221535 
L 519.034831 495.068322 
L 539.29165 487.116547 
L 559.548469 478.915792 
L 579.805288 470.475244 
L 600.062107 461.804516 
L 621.765842 452.270396 
L 643.469577 442.496301 
L 666.620227 431.820986 
L 689.770877 420.904198 
L 714.368443 409.059543 
L 740.412925 396.265152 
L 767.904322 382.50516 
L 796.842635 367.771079 
L 817.099455 357.323636 
L 817.099455 357.323636 
" clip-path="url(#pdce8d9ca15)" style="fill: none; stroke: #ff0000; stroke-width: 2; stroke-linecap: square"/>
   </g>
   <g id="patch_8">
    <path d="M 58.988 606.04 
L 58.988 345.48 
" style="fill: none; stroke: #000000; stroke-width: 0.8; stroke-linejoin: miter; stroke-linecap: square"/>
   </g>
   <g id="patch_9">
    <path d="M 853.2 606.04 
L 853.2 345.48 
" style="fill: none; stroke: #000000; stroke-width: 0.8; stroke-linejoin: miter; stroke-linecap: square"/>
   </g>
   <g id="patch_10">
    <path d="M 58.988 606.04 
L 853.2 606.04 
" style="fill: none; stroke: #000000; stroke-width: 0.8; stroke-linejoin: miter; stroke-linecap: square"/>
   </g>
   <g id="patch_11">
    <path d="M 58.988 345.48 
L 853.2 345.48 
" style="fill: none; stroke: #000000; stroke-width: 0.8; stroke-linejoin: miter; stroke-linecap: square"/>
   </g>
   <g id="text_31">
    <!-- Order parameter for N = 10, K = 0.01, var = 0.01, K (env) = 0.00, env. frequency = 2 -->
    <g transform="translate(198.228062 339.48) scale(0.12 -0.12)">
     <use xlink:href="#DejaVuSans-4f"/>
     <use xlink:href="#DejaVuSans-72" transform="translate(78.710938 0)"/>
     <use xlink:href="#DejaVuSans-64" transform="translate(118.074219 0)"/>
     <use xlink:href="#DejaVuSans-65" transform="translate(181.550781 0)"/>
     <use xlink:href="#DejaVuSans-72" transform="translate(243.074219 0)"/>
     <use xlink:href="#DejaVuSans-20" transform="translate(284.1875 0)"/>
     <use xlink:href="#DejaVuSans-70" transform="translate(315.974609 0)"/>
     <use xlink:href="#DejaVuSans-61" transform="translate(379.451172 0)"/>
     <use xlink:href="#DejaVuSans-72" transform="translate(440.730469 0)"/>
     <use xlink:href="#DejaVuSans-61" transform="translate(481.84375 0)"/>
     <use xlink:href="#DejaVuSans-6d" transform="translate(543.123047 0)"/>
     <use xlink:href="#DejaVuSans-65" transform="translate(640.535156 0)"/>
     <use xlink:href="#DejaVuSans-74" transform="translate(702.058594 0)"/>
     <use xlink:href="#DejaVuSans-65" transform="translate(741.267578 0)"/>
     <use xlink:href="#DejaVuSans-72" transform="translate(802.791016 0)"/>
     <use xlink:href="#DejaVuSans-20" transform="translate(843.904297 0)"/>
     <use xlink:href="#DejaVuSans-66" transform="translate(875.691406 0)"/>
     <use xlink:href="#DejaVuSans-6f" transform="translate(910.896484 0)"/>
     <use xlink:href="#DejaVuSans-72" transform="translate(972.078125 0)"/>
     <use xlink:href="#DejaVuSans-20" transform="translate(1013.191406 0)"/>
     <use xlink:href="#DejaVuSans-4e" transform="translate(1044.978516 0)"/>
     <use xlink:href="#DejaVuSans-20" transform="translate(1119.783203 0)"/>
     <use xlink:href="#DejaVuSans-3d" transform="translate(1151.570312 0)"/>
     <use xlink:href="#DejaVuSans-20" transform="translate(1235.359375 0)"/>
     <use xlink:href="#DejaVuSans-31" transform="translate(1267.146484 0)"/>
     <use xlink:href="#DejaVuSans-30" transform="translate(1330.769531 0)"/>
     <use xlink:href="#DejaVuSans-2c" transform="translate(1394.392578 0)"/>
     <use xlink:href="#DejaVuSans-20" transform="translate(1426.179688 0)"/>
     <use xlink:href="#DejaVuSans-4b" transform="translate(1457.966797 0)"/>
     <use xlink:href="#DejaVuSans-20" transform="translate(1523.542969 0)"/>
     <use xlink:href="#DejaVuSans-3d" transform="translate(1555.330078 0)"/>
     <use xlink:href="#DejaVuSans-20" transform="translate(1639.119141 0)"/>
     <use xlink:href="#DejaVuSans-30" transform="translate(1670.90625 0)"/>
     <use xlink:href="#DejaVuSans-2e" transform="translate(1734.529297 0)"/>
     <use xlink:href="#DejaVuSans-30" transform="translate(1766.316406 0)"/>
     <use xlink:href="#DejaVuSans-31" transform="translate(1829.939453 0)"/>
     <use xlink:href="#DejaVuSans-2c" transform="translate(1893.5625 0)"/>
     <use xlink:href="#DejaVuSans-20" transform="translate(1925.349609 0)"/>
     <use xlink:href="#DejaVuSans-76" transform="translate(1957.136719 0)"/>
     <use xlink:href="#DejaVuSans-61" transform="translate(2016.316406 0)"/>
     <use xlink:href="#DejaVuSans-72" transform="translate(2077.595703 0)"/>
     <use xlink:href="#DejaVuSans-20" transform="translate(2118.708984 0)"/>
     <use xlink:href="#DejaVuSans-3d" transform="translate(2150.496094 0)"/>
     <use xlink:href="#DejaVuSans-20" transform="translate(2234.285156 0)"/>
     <use xlink:href="#DejaVuSans-30" transform="translate(2266.072266 0)"/>
     <use xlink:href="#DejaVuSans-2e" transform="translate(2329.695312 0)"/>
     <use xlink:href="#DejaVuSans-30" transform="translate(2361.482422 0)"/>
     <use xlink:href="#DejaVuSans-31" transform="translate(2425.105469 0)"/>
     <use xlink:href="#DejaVuSans-2c" transform="translate(2488.728516 0)"/>
     <use xlink:href="#DejaVuSans-20" transform="translate(2520.515625 0)"/>
     <use xlink:href="#DejaVuSans-4b" transform="translate(2552.302734 0)"/>
     <use xlink:href="#DejaVuSans-20" transform="translate(2617.878906 0)"/>
     <use xlink:href="#DejaVuSans-28" transform="translate(2649.666016 0)"/>
     <use xlink:href="#DejaVuSans-65" transform="translate(2688.679688 0)"/>
     <use xlink:href="#DejaVuSans-6e" transform="translate(2750.203125 0)"/>
     <use xlink:href="#DejaVuSans-76" transform="translate(2813.582031 0)"/>
     <use xlink:href="#DejaVuSans-29" transform="translate(2872.761719 0)"/>
     <use xlink:href="#DejaVuSans-20" transform="translate(2911.775391 0)"/>
     <use xlink:href="#DejaVuSans-3d" transform="translate(2943.5625 0)"/>
     <use xlink:href="#DejaVuSans-20" transform="translate(3027.351562 0)"/>
     <use xlink:href="#DejaVuSans-30" transform="translate(3059.138672 0)"/>
     <use xlink:href="#DejaVuSans-2e" transform="translate(3122.761719 0)"/>
     <use xlink:href="#DejaVuSans-30" transform="translate(3154.548828 0)"/>
     <use xlink:href="#DejaVuSans-30" transform="translate(3218.171875 0)"/>
     <use xlink:href="#DejaVuSans-2c" transform="translate(3281.794922 0)"/>
     <use xlink:href="#DejaVuSans-20" transform="translate(3313.582031 0)"/>
     <use xlink:href="#DejaVuSans-65" transform="translate(3345.369141 0)"/>
     <use xlink:href="#DejaVuSans-6e" transform="translate(3406.892578 0)"/>
     <use xlink:href="#DejaVuSans-76" transform="translate(3470.271484 0)"/>
     <use xlink:href="#DejaVuSans-2e" transform="translate(3521.701172 0)"/>
     <use xlink:href="#DejaVuSans-20" transform="translate(3553.488281 0)"/>
     <use xlink:href="#DejaVuSans-66" transform="translate(3585.275391 0)"/>
     <use xlink:href="#DejaVuSans-72" transform="translate(3620.480469 0)"/>
     <use xlink:href="#DejaVuSans-65" transform="translate(3659.34375 0)"/>
     <use xlink:href="#DejaVuSans-71" transform="translate(3720.867188 0)"/>
     <use xlink:href="#DejaVuSans-75" transform="translate(3784.34375 0)"/>
     <use xlink:href="#DejaVuSans-65" transform="translate(3847.722656 0)"/>
     <use xlink:href="#DejaVuSans-6e" transform="translate(3909.246094 0)"/>
     <use xlink:href="#DejaVuSans-63" transform="translate(3972.625 0)"/>
     <use xlink:href="#DejaVuSans-79" transform="translate(4027.605469 0)"/>
     <use xlink:href="#DejaVuSans-20" transform="translate(4086.785156 0)"/>
     <use xlink:href="#DejaVuSans-3d" transform="translate(4118.572266 0)"/>
     <use xlink:href="#DejaVuSans-20" transform="translate(4202.361328 0)"/>
     <use xlink:href="#DejaVuSans-32" transform="translate(4234.148438 0)"/>
    </g>
   </g>
  </g>
 </g>
 <defs>
  <clipPath id="p6677189843">
   <rect x="58.988" y="26.88" width="794.212" height="260.56"/>
  </clipPath>
  <clipPath id="pdce8d9ca15">
   <rect x="58.988" y="345.48" width="794.212" height="260.56"/>
  </clipPath>
 </defs>
</svg>
