<?xml version="1.0" encoding="utf-8" standalone="no"?>
<!DOCTYPE svg PUBLIC "-//W3C//DTD SVG 1.1//EN"
  "http://www.w3.org/Graphics/SVG/1.1/DTD/svg11.dtd">
<svg xmlns:xlink="http://www.w3.org/1999/xlink" width="864pt" height="648pt" viewBox="0 0 864 648" xmlns="http://www.w3.org/2000/svg" version="1.1">
 <metadata>
  <rdf:RDF xmlns:dc="http://purl.org/dc/elements/1.1/" xmlns:cc="http://creativecommons.org/ns#" xmlns:rdf="http://www.w3.org/1999/02/22-rdf-syntax-ns#">
   <cc:Work>
    <dc:type rdf:resource="http://purl.org/dc/dcmitype/StillImage"/>
    <dc:date>2026-02-02T22:06:08.240811</dc:date>
    <dc:format>image/svg+xml</dc:format>
    <dc:creator>
     <cc:Agent>
      <dc:title>Matplotlib v3.10.8, https://matplotlib.org/</dc:title>
     </cc:Agent>
    </dc:creator>
   </cc:Work>
  </rdf:RDF>
 </metadata>
 <defs>
  <style type="text/css">*{stroke-linejoin: round; stroke-linecap: butt}</style>
 </defs>
 <g id="figure_1">
  <g id="patch_1">
   <path d="M 0 648 
L 864 648 
L 864 0 
L 0 0 
z
" style="fill: #ffffff"/>
  </g>
  <g id="axes_1">
   <g id="patch_2">
    <path d="M 52.688 287.44 
L 853.2 287.44 
L 853.2 26.88 
L 52.688 26.88 
z
" style="fill: #ffffff"/>
   </g>
   <g id="matplotlib.axis_1">
    <g id="xtick_1">
     <g id="line2d_1">
      <path d="M 89.074909 287.44 
L 89.074909 26.88 
" clip-path="url(#p41fe4947d7)" style="fill: none; stroke: #b0b0b0; stroke-opacity: 0.4; stroke-width: 0.8; stroke-linecap: square"/>
     </g>
     <g id="line2d_2">
      <defs>
       <path id="ma663560c11" d="M 0 0 
L 0 3.5 
" style="stroke: #000000; stroke-width: 0.8"/>
      </defs>
      <g>
       <use xlink:href="#ma663560c11" x="89.074909" y="287.44" style="stroke: #000000; stroke-width: 0.8"/>
      </g>
     </g>
     <g id="text_1">
      <!-- 0 -->
      <g transform="translate(85.893659 302.038437) scale(0.1 -0.1)">
       <defs>
        <path id="DejaVuSans-30" d="M 2034 4250 
Q 1547 4250 1301 3770 
Q 1056 3291 1056 2328 
Q 1056 1369 1301 889 
Q 1547 409 2034 409 
Q 2525 409 2770 889 
Q 3016 1369 3016 2328 
Q 3016 3291 2770 3770 
Q 2525 4250 2034 4250 
z
M 2034 4750 
Q 2819 4750 3233 4129 
Q 3647 3509 3647 2328 
Q 3647 1150 3233 529 
Q 2819 -91 2034 -91 
Q 1250 -91 836 529 
Q 422 1150 422 2328 
Q 422 3509 836 4129 
Q 1250 4750 2034 4750 
z
" transform="scale(0.015625)"/>
       </defs>
       <use xlink:href="#DejaVuSans-30"/>
      </g>
     </g>
    </g>
    <g id="xtick_2">
     <g id="line2d_3">
      <path d="M 234.914224 287.44 
L 234.914224 26.88 
" clip-path="url(#p41fe4947d7)" style="fill: none; stroke: #b0b0b0; stroke-opacity: 0.4; stroke-width: 0.8; stroke-linecap: square"/>
     </g>
     <g id="line2d_4">
      <g>
       <use xlink:href="#ma663560c11" x="234.914224" y="287.44" style="stroke: #000000; stroke-width: 0.8"/>
      </g>
     </g>
     <g id="text_2">
      <!-- 10 -->
      <g transform="translate(228.551724 302.038437) scale(0.1 -0.1)">
       <defs>
        <path id="DejaVuSans-31" d="M 794 531 
L 1825 531 
L 1825 4091 
L 703 3866 
L 703 4441 
L 1819 4666 
L 2450 4666 
L 2450 531 
L 3481 531 
L 3481 0 
L 794 0 
L 794 531 
z
" transform="scale(0.015625)"/>
       </defs>
       <use xlink:href="#DejaVuSans-31"/>
       <use xlink:href="#DejaVuSans-30" transform="translate(63.623047 0)"/>
      </g>
     </g>
    </g>
    <g id="xtick_3">
     <g id="line2d_5">
      <path d="M 380.753539 287.44 
L 380.753539 26.88 
" clip-path="url(#p41fe4947d7)" style="fill: none; stroke: #b0b0b0; stroke-opacity: 0.4; stroke-width: 0.8; stroke-linecap: square"/>
     </g>
     <g id="line2d_6">
      <g>
       <use xlink:href="#ma663560c11" x="380.753539" y="287.44" style="stroke: #000000; stroke-width: 0.8"/>
      </g>
     </g>
     <g id="text_3">
      <!-- 20 -->
      <g transform="translate(374.391039 302.038437) scale(0.1 -0.1)">
       <defs>
        <path id="DejaVuSans-32" d="M 1228 531 
L 3431 531 
L 3431 0 
L 469 0 
L 469 531 
Q 828 903 1448 1529 
Q 2069 2156 2228 2338 
Q 2531 2678 2651 2914 
Q 2772 3150 2772 3378 
Q 2772 3750 2511 3984 
Q 2250 4219 1831 4219 
Q 1534 4219 1204 4116 
Q 875 4013 500 3803 
L 500 4441 
Q 881 4594 1212 4672 
Q 1544 4750 1819 4750 
Q 2544 4750 2975 4387 
Q 3406 4025 3406 3419 
Q 3406 3131 3298 2873 
Q 3191 2616 2906 2266 
Q 2828 2175 2409 1742 
Q 1991 1309 1228 531 
z
" transform="scale(0.015625)"/>
       </defs>
       <use xlink:href="#DejaVuSans-32"/>
       <use xlink:href="#DejaVuSans-30" transform="translate(63.623047 0)"/>
      </g>
     </g>
    </g>
    <g id="xtick_4">
     <g id="line2d_7">
      <path d="M 526.592854 287.44 
L 526.592854 26.88 
" clip-path="url(#p41fe4947d7)" style="fill: none; stroke: #b0b0b0; stroke-opacity: 0.4; stroke-width: 0.8; stroke-linecap: square"/>
     </g>
     <g id="line2d_8">
      <g>
       <use xlink:href="#ma663560c11" x="526.592854" y="287.44" style="stroke: #000000; stroke-width: 0.8"/>
      </g>
     </g>
     <g id="text_4">
      <!-- 30 -->
      <g transform="translate(520.230354 302.038437) scale(0.1 -0.1)">
       <defs>
        <path id="DejaVuSans-33" d="M 2597 2516 
Q 3050 2419 3304 2112 
Q 3559 1806 3559 1356 
Q 3559 666 3084 287 
Q 2609 -91 1734 -91 
Q 1441 -91 1130 -33 
Q 819 25 488 141 
L 488 750 
Q 750 597 1062 519 
Q 1375 441 1716 441 
Q 2309 441 2620 675 
Q 2931 909 2931 1356 
Q 2931 1769 2642 2001 
Q 2353 2234 1838 2234 
L 1294 2234 
L 1294 2753 
L 1863 2753 
Q 2328 2753 2575 2939 
Q 2822 3125 2822 3475 
Q 2822 3834 2567 4026 
Q 2313 4219 1838 4219 
Q 1578 4219 1281 4162 
Q 984 4106 628 3988 
L 628 4550 
Q 988 4650 1302 4700 
Q 1616 4750 1894 4750 
Q 2613 4750 3031 4423 
Q 3450 4097 3450 3541 
Q 3450 3153 3228 2886 
Q 3006 2619 2597 2516 
z
" transform="scale(0.015625)"/>
       </defs>
       <use xlink:href="#DejaVuSans-33"/>
       <use xlink:href="#DejaVuSans-30" transform="translate(63.623047 0)"/>
      </g>
     </g>
    </g>
    <g id="xtick_5">
     <g id="line2d_9">
      <path d="M 672.432169 287.44 
L 672.432169 26.88 
" clip-path="url(#p41fe4947d7)" style="fill: none; stroke: #b0b0b0; stroke-opacity: 0.4; stroke-width: 0.8; stroke-linecap: square"/>
     </g>
     <g id="line2d_10">
      <g>
       <use xlink:href="#ma663560c11" x="672.432169" y="287.44" style="stroke: #000000; stroke-width: 0.8"/>
      </g>
     </g>
     <g id="text_5">
      <!-- 40 -->
      <g transform="translate(666.069669 302.038437) scale(0.1 -0.1)">
       <defs>
        <path id="DejaVuSans-34" d="M 2419 4116 
L 825 1625 
L 2419 1625 
L 2419 4116 
z
M 2253 4666 
L 3047 4666 
L 3047 1625 
L 3713 1625 
L 3713 1100 
L 3047 1100 
L 3047 0 
L 2419 0 
L 2419 1100 
L 313 1100 
L 313 1709 
L 2253 4666 
z
" transform="scale(0.015625)"/>
       </defs>
       <use xlink:href="#DejaVuSans-34"/>
       <use xlink:href="#DejaVuSans-30" transform="translate(63.623047 0)"/>
      </g>
     </g>
    </g>
    <g id="xtick_6">
     <g id="line2d_11">
      <path d="M 818.271484 287.44 
L 818.271484 26.88 
" clip-path="url(#p41fe4947d7)" style="fill: none; stroke: #b0b0b0; stroke-opacity: 0.4; stroke-width: 0.8; stroke-linecap: square"/>
     </g>
     <g id="line2d_12">
      <g>
       <use xlink:href="#ma663560c11" x="818.271484" y="287.44" style="stroke: #000000; stroke-width: 0.8"/>
      </g>
     </g>
     <g id="text_6">
      <!-- 50 -->
      <g transform="translate(811.908984 302.038437) scale(0.1 -0.1)">
       <defs>
        <path id="DejaVuSans-35" d="M 691 4666 
L 3169 4666 
L 3169 4134 
L 1269 4134 
L 1269 2991 
Q 1406 3038 1543 3061 
Q 1681 3084 1819 3084 
Q 2600 3084 3056 2656 
Q 3513 2228 3513 1497 
Q 3513 744 3044 326 
Q 2575 -91 1722 -91 
Q 1428 -91 1123 -41 
Q 819 9 494 109 
L 494 744 
Q 775 591 1075 516 
Q 1375 441 1709 441 
Q 2250 441 2565 725 
Q 2881 1009 2881 1497 
Q 2881 1984 2565 2268 
Q 2250 2553 1709 2553 
Q 1456 2553 1204 2497 
Q 953 2441 691 2322 
L 691 4666 
z
" transform="scale(0.015625)"/>
       </defs>
       <use xlink:href="#DejaVuSans-35"/>
       <use xlink:href="#DejaVuSans-30" transform="translate(63.623047 0)"/>
      </g>
     </g>
    </g>
    <g id="text_7">
     <!-- $t$ -->
     <g transform="translate(450.944 315.716563) scale(0.1 -0.1)">
      <defs>
       <path id="DejaVuSans-Oblique-74" d="M 2706 3500 
L 2619 3053 
L 1472 3053 
L 1100 1153 
Q 1081 1047 1072 975 
Q 1063 903 1063 863 
Q 1063 663 1183 572 
Q 1303 481 1569 481 
L 2150 481 
L 2053 0 
L 1503 0 
Q 991 0 739 200 
Q 488 400 488 806 
Q 488 878 497 964 
Q 506 1050 525 1153 
L 897 3053 
L 409 3053 
L 500 3500 
L 978 3500 
L 1172 4494 
L 1747 4494 
L 1556 3500 
L 2706 3500 
z
" transform="scale(0.015625)"/>
      </defs>
      <use xlink:href="#DejaVuSans-Oblique-74" transform="translate(0 0.78125)"/>
     </g>
    </g>
   </g>
   <g id="matplotlib.axis_2">
    <g id="ytick_1">
     <g id="line2d_13">
      <path d="M 52.688 275.596364 
L 853.2 275.596364 
" clip-path="url(#p41fe4947d7)" style="fill: none; stroke: #b0b0b0; stroke-opacity: 0.4; stroke-width: 0.8; stroke-linecap: square"/>
     </g>
     <g id="line2d_14">
      <defs>
       <path id="madb6851e37" d="M 0 0 
L -3.5 0 
" style="stroke: #000000; stroke-width: 0.8"/>
      </defs>
      <g>
       <use xlink:href="#madb6851e37" x="52.688" y="275.596364" style="stroke: #000000; stroke-width: 0.8"/>
      </g>
     </g>
     <g id="text_8">
      <!-- 0 -->
      <g transform="translate(39.3255 279.395582) scale(0.1 -0.1)">
       <use xlink:href="#DejaVuSans-30"/>
      </g>
     </g>
    </g>
    <g id="ytick_2">
     <g id="line2d_15">
      <path d="M 52.688 237.886664 
L 853.2 237.886664 
" clip-path="url(#p41fe4947d7)" style="fill: none; stroke: #b0b0b0; stroke-opacity: 0.4; stroke-width: 0.8; stroke-linecap: square"/>
     </g>
     <g id="line2d_16">
      <g>
       <use xlink:href="#madb6851e37" x="52.688" y="237.886664" style="stroke: #000000; stroke-width: 0.8"/>
      </g>
     </g>
     <g id="text_9">
      <!-- 1 -->
      <g transform="translate(39.3255 241.685882) scale(0.1 -0.1)">
       <use xlink:href="#DejaVuSans-31"/>
      </g>
     </g>
    </g>
    <g id="ytick_3">
     <g id="line2d_17">
      <path d="M 52.688 200.176963 
L 853.2 200.176963 
" clip-path="url(#p41fe4947d7)" style="fill: none; stroke: #b0b0b0; stroke-opacity: 0.4; stroke-width: 0.8; stroke-linecap: square"/>
     </g>
     <g id="line2d_18">
      <g>
       <use xlink:href="#madb6851e37" x="52.688" y="200.176963" style="stroke: #000000; stroke-width: 0.8"/>
      </g>
     </g>
     <g id="text_10">
      <!-- 2 -->
      <g transform="translate(39.3255 203.976182) scale(0.1 -0.1)">
       <use xlink:href="#DejaVuSans-32"/>
      </g>
     </g>
    </g>
    <g id="ytick_4">
     <g id="line2d_19">
      <path d="M 52.688 162.467263 
L 853.2 162.467263 
" clip-path="url(#p41fe4947d7)" style="fill: none; stroke: #b0b0b0; stroke-opacity: 0.4; stroke-width: 0.8; stroke-linecap: square"/>
     </g>
     <g id="line2d_20">
      <g>
       <use xlink:href="#madb6851e37" x="52.688" y="162.467263" style="stroke: #000000; stroke-width: 0.8"/>
      </g>
     </g>
     <g id="text_11">
      <!-- 3 -->
      <g transform="translate(39.3255 166.266482) scale(0.1 -0.1)">
       <use xlink:href="#DejaVuSans-33"/>
      </g>
     </g>
    </g>
    <g id="ytick_5">
     <g id="line2d_21">
      <path d="M 52.688 124.757563 
L 853.2 124.757563 
" clip-path="url(#p41fe4947d7)" style="fill: none; stroke: #b0b0b0; stroke-opacity: 0.4; stroke-width: 0.8; stroke-linecap: square"/>
     </g>
     <g id="line2d_22">
      <g>
       <use xlink:href="#madb6851e37" x="52.688" y="124.757563" style="stroke: #000000; stroke-width: 0.8"/>
      </g>
     </g>
     <g id="text_12">
      <!-- 4 -->
      <g transform="translate(39.3255 128.556782) scale(0.1 -0.1)">
       <use xlink:href="#DejaVuSans-34"/>
      </g>
     </g>
    </g>
    <g id="ytick_6">
     <g id="line2d_23">
      <path d="M 52.688 87.047863 
L 853.2 87.047863 
" clip-path="url(#p41fe4947d7)" style="fill: none; stroke: #b0b0b0; stroke-opacity: 0.4; stroke-width: 0.8; stroke-linecap: square"/>
     </g>
     <g id="line2d_24">
      <g>
       <use xlink:href="#madb6851e37" x="52.688" y="87.047863" style="stroke: #000000; stroke-width: 0.8"/>
      </g>
     </g>
     <g id="text_13">
      <!-- 5 -->
      <g transform="translate(39.3255 90.847082) scale(0.1 -0.1)">
       <use xlink:href="#DejaVuSans-35"/>
      </g>
     </g>
    </g>
    <g id="ytick_7">
     <g id="line2d_25">
      <path d="M 52.688 49.338163 
L 853.2 49.338163 
" clip-path="url(#p41fe4947d7)" style="fill: none; stroke: #b0b0b0; stroke-opacity: 0.4; stroke-width: 0.8; stroke-linecap: square"/>
     </g>
     <g id="line2d_26">
      <g>
       <use xlink:href="#madb6851e37" x="52.688" y="49.338163" style="stroke: #000000; stroke-width: 0.8"/>
      </g>
     </g>
     <g id="text_14">
      <!-- 6 -->
      <g transform="translate(39.3255 53.137382) scale(0.1 -0.1)">
       <defs>
        <path id="DejaVuSans-36" d="M 2113 2584 
Q 1688 2584 1439 2293 
Q 1191 2003 1191 1497 
Q 1191 994 1439 701 
Q 1688 409 2113 409 
Q 2538 409 2786 701 
Q 3034 994 3034 1497 
Q 3034 2003 2786 2293 
Q 2538 2584 2113 2584 
z
M 3366 4563 
L 3366 3988 
Q 3128 4100 2886 4159 
Q 2644 4219 2406 4219 
Q 1781 4219 1451 3797 
Q 1122 3375 1075 2522 
Q 1259 2794 1537 2939 
Q 1816 3084 2150 3084 
Q 2853 3084 3261 2657 
Q 3669 2231 3669 1497 
Q 3669 778 3244 343 
Q 2819 -91 2113 -91 
Q 1303 -91 875 529 
Q 447 1150 447 2328 
Q 447 3434 972 4092 
Q 1497 4750 2381 4750 
Q 2619 4750 2861 4703 
Q 3103 4656 3366 4563 
z
" transform="scale(0.015625)"/>
       </defs>
       <use xlink:href="#DejaVuSans-36"/>
      </g>
     </g>
    </g>
    <g id="text_15">
     <!-- Phase $\theta$ -->
     <g transform="translate(33.245812 176.76) rotate(-90) scale(0.1 -0.1)">
      <defs>
       <path id="DejaVuSans-50" d="M 1259 4147 
L 1259 2394 
L 2053 2394 
Q 2494 2394 2734 2622 
Q 2975 2850 2975 3272 
Q 2975 3691 2734 3919 
Q 2494 4147 2053 4147 
L 1259 4147 
z
M 628 4666 
L 2053 4666 
Q 2838 4666 3239 4311 
Q 3641 3956 3641 3272 
Q 3641 2581 3239 2228 
Q 2838 1875 2053 1875 
L 1259 1875 
L 1259 0 
L 628 0 
L 628 4666 
z
" transform="scale(0.015625)"/>
       <path id="DejaVuSans-68" d="M 3513 2113 
L 3513 0 
L 2938 0 
L 2938 2094 
Q 2938 2591 2744 2837 
Q 2550 3084 2163 3084 
Q 1697 3084 1428 2787 
Q 1159 2491 1159 1978 
L 1159 0 
L 581 0 
L 581 4863 
L 1159 4863 
L 1159 2956 
Q 1366 3272 1645 3428 
Q 1925 3584 2291 3584 
Q 2894 3584 3203 3211 
Q 3513 2838 3513 2113 
z
" transform="scale(0.015625)"/>
       <path id="DejaVuSans-61" d="M 2194 1759 
Q 1497 1759 1228 1600 
Q 959 1441 959 1056 
Q 959 750 1161 570 
Q 1363 391 1709 391 
Q 2188 391 2477 730 
Q 2766 1069 2766 1631 
L 2766 1759 
L 2194 1759 
z
M 3341 1997 
L 3341 0 
L 2766 0 
L 2766 531 
Q 2569 213 2275 61 
Q 1981 -91 1556 -91 
Q 1019 -91 701 211 
Q 384 513 384 1019 
Q 384 1609 779 1909 
Q 1175 2209 1959 2209 
L 2766 2209 
L 2766 2266 
Q 2766 2663 2505 2880 
Q 2244 3097 1772 3097 
Q 1472 3097 1187 3025 
Q 903 2953 641 2809 
L 641 3341 
Q 956 3463 1253 3523 
Q 1550 3584 1831 3584 
Q 2591 3584 2966 3190 
Q 3341 2797 3341 1997 
z
" transform="scale(0.015625)"/>
       <path id="DejaVuSans-73" d="M 2834 3397 
L 2834 2853 
Q 2591 2978 2328 3040 
Q 2066 3103 1784 3103 
Q 1356 3103 1142 2972 
Q 928 2841 928 2578 
Q 928 2378 1081 2264 
Q 1234 2150 1697 2047 
L 1894 2003 
Q 2506 1872 2764 1633 
Q 3022 1394 3022 966 
Q 3022 478 2636 193 
Q 2250 -91 1575 -91 
Q 1294 -91 989 -36 
Q 684 19 347 128 
L 347 722 
Q 666 556 975 473 
Q 1284 391 1588 391 
Q 1994 391 2212 530 
Q 2431 669 2431 922 
Q 2431 1156 2273 1281 
Q 2116 1406 1581 1522 
L 1381 1569 
Q 847 1681 609 1914 
Q 372 2147 372 2553 
Q 372 3047 722 3315 
Q 1072 3584 1716 3584 
Q 2034 3584 2315 3537 
Q 2597 3491 2834 3397 
z
" transform="scale(0.015625)"/>
       <path id="DejaVuSans-65" d="M 3597 1894 
L 3597 1613 
L 953 1613 
Q 991 1019 1311 708 
Q 1631 397 2203 397 
Q 2534 397 2845 478 
Q 3156 559 3463 722 
L 3463 178 
Q 3153 47 2828 -22 
Q 2503 -91 2169 -91 
Q 1331 -91 842 396 
Q 353 884 353 1716 
Q 353 2575 817 3079 
Q 1281 3584 2069 3584 
Q 2775 3584 3186 3129 
Q 3597 2675 3597 1894 
z
M 3022 2063 
Q 3016 2534 2758 2815 
Q 2500 3097 2075 3097 
Q 1594 3097 1305 2825 
Q 1016 2553 972 2059 
L 3022 2063 
z
" transform="scale(0.015625)"/>
       <path id="DejaVuSans-20" transform="scale(0.015625)"/>
       <path id="DejaVuSans-Oblique-3b8" d="M 2913 2219 
L 925 2219 
Q 791 1284 928 888 
Q 1100 400 1566 400 
Q 2034 400 2391 891 
Q 2703 1322 2913 2219 
z
M 3009 2750 
Q 3094 3638 2984 3950 
Q 2813 4444 2353 4444 
Q 1875 4444 1525 3956 
Q 1250 3563 1034 2750 
L 3009 2750 
z
M 2444 4913 
Q 3194 4913 3494 4250 
Q 3794 3591 3566 2422 
Q 3341 1256 2781 594 
Q 2225 -72 1475 -72 
Q 722 -72 425 594 
Q 128 1256 353 2422 
Q 581 3591 1134 4250 
Q 1691 4913 2444 4913 
z
" transform="scale(0.015625)"/>
      </defs>
      <use xlink:href="#DejaVuSans-50" transform="translate(0 0.234375)"/>
      <use xlink:href="#DejaVuSans-68" transform="translate(60.302734 0.234375)"/>
      <use xlink:href="#DejaVuSans-61" transform="translate(123.681641 0.234375)"/>
      <use xlink:href="#DejaVuSans-73" transform="translate(184.960938 0.234375)"/>
      <use xlink:href="#DejaVuSans-65" transform="translate(237.060547 0.234375)"/>
      <use xlink:href="#DejaVuSans-20" transform="translate(298.583984 0.234375)"/>
      <use xlink:href="#DejaVuSans-Oblique-3b8" transform="translate(330.371094 0.234375)"/>
     </g>
    </g>
   </g>
   <g id="line2d_27">
    <path d="M 89.074909 222.552131 
L 124.076345 133.704028 
L 157.619387 47.931155 
L 160.536173 40.444286 
L 161.994567 273.636316 
L 201.371182 172.194983 
L 252.414942 40.277156 
L 253.873335 273.446482 
L 309.292275 130.586448 
L 344.29371 40.752149 
L 345.752103 273.952823 
L 399.71265 136.017655 
L 437.630872 39.302749 
L 439.089265 272.520179 
L 497.424991 123.441025 
L 529.50964 40.914202 
L 530.968034 274.086335 
L 561.59429 194.71225 
L 595.137332 107.132918 
L 619.930016 42.105944 
L 621.388409 275.214007 
L 687.016101 103.193908 
L 710.350391 42.413404 
L 711.808784 275.561005 
L 745.351827 188.722147 
L 780.353262 98.742619 
L 803.687553 39.081569 
L 805.145946 272.297564 
L 816.813091 242.559685 
L 816.813091 242.559685 
" clip-path="url(#p41fe4947d7)" style="fill: none; stroke: #1f77b4; stroke-opacity: 0.6; stroke-width: 0.6; stroke-linecap: square"/>
   </g>
   <g id="line2d_28">
    <path d="M 89.074909 226.70987 
L 131.36831 108.871827 
L 156.160994 39.540484 
L 157.619387 272.396604 
L 210.121541 125.802673 
L 239.289404 45.057733 
L 240.747797 41.039011 
L 242.20619 273.959164 
L 269.91566 197.987122 
L 299.083523 118.684604 
L 328.251386 39.933093 
L 329.709779 272.943939 
L 374.919966 151.574802 
L 415.754975 42.164348 
L 417.213368 275.191923 
L 474.090701 122.395091 
L 504.716957 39.856754 
L 506.17535 272.861723 
L 557.21911 135.551052 
L 586.386973 57.760846 
L 592.220546 42.290958 
L 593.678939 275.365437 
L 619.930016 206.178572 
L 647.639486 133.80646 
L 678.265742 54.455094 
L 684.099314 39.399879 
L 685.557707 272.575575 
L 727.851109 163.821542 
L 775.978083 40.44382 
L 777.436476 273.642996 
L 816.813091 172.648733 
L 816.813091 172.648733 
" clip-path="url(#p41fe4947d7)" style="fill: none; stroke: #ff7f0e; stroke-opacity: 0.6; stroke-width: 0.6; stroke-linecap: square"/>
   </g>
   <g id="line2d_29">
    <path d="M 89.074909 206.288822 
L 135.74349 81.842353 
L 151.785815 38.954342 
L 153.244208 271.991386 
L 214.49672 108.489055 
L 240.747797 38.85335 
L 242.20619 271.932133 
L 277.207625 179.660269 
L 316.58424 76.502401 
L 329.709779 42.229038 
L 331.168172 275.3605 
L 421.588547 39.68788 
L 423.04694 272.817444 
L 466.798735 158.286315 
L 506.17535 54.584215 
L 512.008923 39.172476 
L 513.467316 272.255003 
L 600.970905 41.166521 
L 602.429298 274.279003 
L 630.138768 201.922745 
L 657.848238 130.176005 
L 688.474494 51.524982 
L 692.849673 40.337006 
L 694.308066 273.547087 
L 730.767895 180.704315 
L 778.894869 58.824353 
L 786.186835 40.396113 
L 787.645228 273.648231 
L 816.813091 199.981413 
L 816.813091 199.981413 
" clip-path="url(#p41fe4947d7)" style="fill: none; stroke: #2ca02c; stroke-opacity: 0.6; stroke-width: 0.6; stroke-linecap: square"/>
   </g>
   <g id="line2d_30">
    <path d="M 89.074909 190.493484 
L 121.159558 112.59198 
L 150.327421 41.289793 
L 151.785815 274.650407 
L 189.704036 181.348073 
L 242.20619 51.502661 
L 246.581369 40.665176 
L 248.039762 273.989419 
L 342.835317 39.101493 
L 344.29371 272.425936 
L 437.630872 41.222875 
L 439.089265 274.544582 
L 497.424991 129.63159 
L 532.426427 42.166982 
L 533.88482 275.446866 
L 565.969469 194.676219 
L 596.595725 116.983976 
L 627.221981 38.769475 
L 628.680375 271.971549 
L 679.724135 140.91699 
L 719.10075 39.75738 
L 720.559143 272.952077 
L 768.686117 149.758551 
L 810.979518 42.096479 
L 812.437911 275.331932 
L 816.813091 264.231576 
L 816.813091 264.231576 
" clip-path="url(#p41fe4947d7)" style="fill: none; stroke: #d62728; stroke-opacity: 0.6; stroke-width: 0.6; stroke-linecap: square"/>
   </g>
   <g id="line2d_31">
    <path d="M 89.074909 244.283217 
L 132.826704 140.913514 
L 175.120105 40.432674 
L 176.578498 273.896463 
L 274.290839 40.998758 
L 275.749232 274.471381 
L 312.209061 188.155219 
L 342.835317 116.206965 
L 370.544787 51.669402 
L 374.919966 41.533959 
L 376.37836 275.09601 
L 401.171043 217.999918 
L 425.963727 161.457838 
L 450.75641 105.490783 
L 475.549094 50.08505 
L 479.924273 40.362193 
L 481.382666 274.0617 
L 509.092136 212.843272 
L 544.093572 136.10919 
L 587.845366 40.482012 
L 589.30376 274.227462 
L 625.763588 194.17527 
L 654.931451 129.614784 
L 682.640921 67.730994 
L 694.308066 41.499932 
L 695.766459 275.150649 
L 722.017536 215.714692 
L 749.727006 152.411123 
L 778.894869 85.193921 
L 797.85398 41.214111 
L 799.312373 274.759406 
L 816.813091 233.96837 
L 816.813091 233.96837 
" clip-path="url(#p41fe4947d7)" style="fill: none; stroke: #9467bd; stroke-opacity: 0.6; stroke-width: 0.6; stroke-linecap: square"/>
   </g>
   <g id="line2d_32">
    <path d="M 89.074909 131.509681 
L 125.534738 39.453166 
L 126.993131 272.719188 
L 161.994567 184.922123 
L 198.454395 94.085868 
L 220.330293 39.823111 
L 221.788686 273.147154 
L 315.125847 42.090569 
L 316.58424 275.409079 
L 361.794428 162.922717 
L 399.71265 67.99101 
L 409.921402 42.322593 
L 411.379795 275.588629 
L 446.381231 187.165675 
L 481.382666 98.126223 
L 503.258564 42.200894 
L 504.716957 275.403614 
L 596.595725 40.13607 
L 598.054118 273.359216 
L 631.597161 188.26416 
L 666.598596 100.110377 
L 689.932887 41.637734 
L 691.39128 274.926495 
L 742.43504 147.549732 
L 784.728442 42.228828 
L 786.186835 275.534339 
L 816.813091 199.243372 
L 816.813091 199.243372 
" clip-path="url(#p41fe4947d7)" style="fill: none; stroke: #8c564b; stroke-opacity: 0.6; stroke-width: 0.6; stroke-linecap: square"/>
   </g>
   <g id="line2d_33">
    <path d="M 89.074909 167.497915 
L 128.451524 73.635474 
L 143.035456 38.723636 
L 144.493849 272.165224 
L 185.328857 174.001476 
L 231.997438 61.227104 
L 240.747797 40.023828 
L 242.20619 273.425358 
L 296.166736 142.309622 
L 338.460138 39.166748 
L 339.918531 272.541593 
L 398.254257 129.750144 
L 434.714086 40.170265 
L 436.172479 273.517645 
L 479.924273 165.531148 
L 516.384102 74.960447 
L 529.50964 42.183746 
L 530.968034 275.472619 
L 561.59429 198.552059 
L 593.678939 117.338463 
L 624.305195 39.323318 
L 625.763588 272.536609 
L 716.183964 41.36957 
L 717.642357 274.585823 
L 764.310938 155.837957 
L 808.062732 45.135507 
L 809.521125 41.456068 
L 810.979518 274.714337 
L 816.813091 260.005982 
L 816.813091 260.005982 
" clip-path="url(#p41fe4947d7)" style="fill: none; stroke: #e377c2; stroke-opacity: 0.6; stroke-width: 0.6; stroke-linecap: square"/>
   </g>
   <g id="line2d_34">
    <path d="M 89.074909 104.207456 
L 115.325986 40.045935 
L 116.784379 273.430037 
L 147.410635 199.120838 
L 179.495284 121.882373 
L 213.038327 41.677375 
L 214.49672 275.136461 
L 313.667454 38.885699 
L 315.125847 272.336735 
L 353.044069 181.414298 
L 386.587112 100.421974 
L 411.379795 40.151748 
L 412.838188 273.531786 
L 443.464445 198.516994 
L 472.632308 126.490207 
L 503.258564 50.259243 
L 507.633743 39.323029 
L 509.092136 272.612341 
L 547.010358 177.444484 
L 600.970905 41.646213 
L 602.429298 274.918788 
L 644.722699 168.954482 
L 687.016101 63.613786 
L 695.766459 41.885603 
L 697.224853 275.203104 
L 757.018972 127.118147 
L 792.020407 40.569305 
L 793.478801 273.900198 
L 816.813091 216.1908 
L 816.813091 216.1908 
" clip-path="url(#p41fe4947d7)" style="fill: none; stroke: #7f7f7f; stroke-opacity: 0.6; stroke-width: 0.6; stroke-linecap: square"/>
   </g>
   <g id="line2d_35">
    <path d="M 89.074909 89.668987 
L 110.950806 46.942781 
L 113.867593 41.282503 
L 115.325986 275.392341 
L 141.577062 224.777539 
L 195.537609 120.931296 
L 214.49672 83.876899 
L 231.997438 49.208823 
L 236.372617 40.46613 
L 237.83101 274.482088 
L 255.331728 239.164208 
L 274.290839 200.376291 
L 294.708343 158.070016 
L 318.042634 109.192701 
L 350.127283 41.43642 
L 351.585676 275.286454 
L 401.171043 170.574358 
L 424.505334 121.83923 
L 443.464445 82.71304 
L 460.965162 47.073024 
L 463.881949 41.18278 
L 465.340342 275.18028 
L 481.382666 243.098721 
L 497.424991 211.492232 
L 513.467316 180.348157 
L 532.426427 144.059613 
L 557.21911 97.168422 
L 587.845366 39.364021 
L 589.30376 273.534826 
L 609.721264 234.548327 
L 627.221981 200.642024 
L 643.264306 169.088721 
L 659.306631 137.058068 
L 675.348955 104.555699 
L 692.849673 68.592855 
L 705.975212 41.305722 
L 707.433605 275.195517 
L 727.851109 232.245416 
L 751.185399 182.601858 
L 778.894869 123.103309 
L 816.813091 41.206782 
L 816.813091 41.206782 
" clip-path="url(#p41fe4947d7)" style="fill: none; stroke: #bcbd22; stroke-opacity: 0.6; stroke-width: 0.6; stroke-linecap: square"/>
   </g>
   <g id="line2d_36">
    <path d="M 89.074909 118.33463 
L 119.701165 39.25082 
L 121.159558 272.433733 
L 153.244208 190.150789 
L 186.78725 104.751551 
L 211.579934 41.965714 
L 213.038327 275.216128 
L 277.207625 113.330064 
L 306.375488 39.721627 
L 307.833882 272.974789 
L 358.877642 143.730451 
L 399.71265 39.802994 
L 401.171043 273.018805 
L 447.839624 153.623132 
L 491.591418 41.335246 
L 493.049812 274.528899 
L 542.635179 147.553341 
L 576.178221 62.281102 
L 584.92858 40.146144 
L 586.386973 273.398555 
L 618.471623 192.64932 
L 656.389844 97.857975 
L 679.724135 39.752729 
L 681.182528 273.061934 
L 774.51969 41.065211 
L 775.978083 274.372832 
L 816.813091 172.594074 
L 816.813091 172.594074 
" clip-path="url(#p41fe4947d7)" style="fill: none; stroke: #17becf; stroke-opacity: 0.6; stroke-width: 0.6; stroke-linecap: square"/>
   </g>
   <g id="line2d_37">
    <path d="M 89.074909 275.596364 
L 134.285097 41.796223 
L 135.74349 271.191317 
L 179.495284 44.933116 
L 180.953678 274.32821 
L 226.163865 40.528069 
L 227.622258 269.923163 
L 271.374053 43.664962 
L 272.832446 273.060056 
L 318.042634 39.259915 
L 319.501027 268.655009 
L 363.252821 42.396808 
L 364.711214 271.791901 
L 408.463009 45.533701 
L 409.921402 274.928794 
L 455.13159 41.128654 
L 456.589983 270.523747 
L 500.341777 44.265547 
L 501.800171 273.66064 
L 547.010358 39.8605 
L 548.468751 269.255593 
L 592.220546 42.997393 
L 593.678939 272.392486 
L 637.430733 46.134286 
L 638.889127 275.529379 
L 684.099314 41.729239 
L 685.557707 271.124332 
L 729.309502 44.866132 
L 730.767895 274.261225 
L 775.978083 40.461085 
L 777.436476 269.856178 
L 816.813091 66.223798 
L 816.813091 66.223798 
" clip-path="url(#p41fe4947d7)" style="fill: none; stroke: #1f77b4; stroke-width: 2; stroke-linecap: square"/>
   </g>
   <g id="patch_3">
    <path d="M 52.688 287.44 
L 52.688 26.88 
" style="fill: none; stroke: #000000; stroke-width: 0.8; stroke-linejoin: miter; stroke-linecap: square"/>
   </g>
   <g id="patch_4">
    <path d="M 853.2 287.44 
L 853.2 26.88 
" style="fill: none; stroke: #000000; stroke-width: 0.8; stroke-linejoin: miter; stroke-linecap: square"/>
   </g>
   <g id="patch_5">
    <path d="M 52.688 287.44 
L 853.2 287.44 
" style="fill: none; stroke: #000000; stroke-width: 0.8; stroke-linejoin: miter; stroke-linecap: square"/>
   </g>
   <g id="patch_6">
    <path d="M 52.688 26.88 
L 853.2 26.88 
" style="fill: none; stroke: #000000; stroke-width: 0.8; stroke-linejoin: miter; stroke-linecap: square"/>
   </g>
   <g id="text_16">
    <!-- Phase plot for N = 10, K = 0.10, var = 0.10, K (env) = 0.00, env. frequency = 2 -->
    <g transform="translate(214.392437 20.88) scale(0.12 -0.12)">
     <defs>
      <path id="DejaVuSans-70" d="M 1159 525 
L 1159 -1331 
L 581 -1331 
L 581 3500 
L 1159 3500 
L 1159 2969 
Q 1341 3281 1617 3432 
Q 1894 3584 2278 3584 
Q 2916 3584 3314 3078 
Q 3713 2572 3713 1747 
Q 3713 922 3314 415 
Q 2916 -91 2278 -91 
Q 1894 -91 1617 61 
Q 1341 213 1159 525 
z
M 3116 1747 
Q 3116 2381 2855 2742 
Q 2594 3103 2138 3103 
Q 1681 3103 1420 2742 
Q 1159 2381 1159 1747 
Q 1159 1113 1420 752 
Q 1681 391 2138 391 
Q 2594 391 2855 752 
Q 3116 1113 3116 1747 
z
" transform="scale(0.015625)"/>
      <path id="DejaVuSans-6c" d="M 603 4863 
L 1178 4863 
L 1178 0 
L 603 0 
L 603 4863 
z
" transform="scale(0.015625)"/>
      <path id="DejaVuSans-6f" d="M 1959 3097 
Q 1497 3097 1228 2736 
Q 959 2375 959 1747 
Q 959 1119 1226 758 
Q 1494 397 1959 397 
Q 2419 397 2687 759 
Q 2956 1122 2956 1747 
Q 2956 2369 2687 2733 
Q 2419 3097 1959 3097 
z
M 1959 3584 
Q 2709 3584 3137 3096 
Q 3566 2609 3566 1747 
Q 3566 888 3137 398 
Q 2709 -91 1959 -91 
Q 1206 -91 779 398 
Q 353 888 353 1747 
Q 353 2609 779 3096 
Q 1206 3584 1959 3584 
z
" transform="scale(0.015625)"/>
      <path id="DejaVuSans-74" d="M 1172 4494 
L 1172 3500 
L 2356 3500 
L 2356 3053 
L 1172 3053 
L 1172 1153 
Q 1172 725 1289 603 
Q 1406 481 1766 481 
L 2356 481 
L 2356 0 
L 1766 0 
Q 1100 0 847 248 
Q 594 497 594 1153 
L 594 3053 
L 172 3053 
L 172 3500 
L 594 3500 
L 594 4494 
L 1172 4494 
z
" transform="scale(0.015625)"/>
      <path id="DejaVuSans-66" d="M 2375 4863 
L 2375 4384 
L 1825 4384 
Q 1516 4384 1395 4259 
Q 1275 4134 1275 3809 
L 1275 3500 
L 2222 3500 
L 2222 3053 
L 1275 3053 
L 1275 0 
L 697 0 
L 697 3053 
L 147 3053 
L 147 3500 
L 697 3500 
L 697 3744 
Q 697 4328 969 4595 
Q 1241 4863 1831 4863 
L 2375 4863 
z
" transform="scale(0.015625)"/>
      <path id="DejaVuSans-72" d="M 2631 2963 
Q 2534 3019 2420 3045 
Q 2306 3072 2169 3072 
Q 1681 3072 1420 2755 
Q 1159 2438 1159 1844 
L 1159 0 
L 581 0 
L 581 3500 
L 1159 3500 
L 1159 2956 
Q 1341 3275 1631 3429 
Q 1922 3584 2338 3584 
Q 2397 3584 2469 3576 
Q 2541 3569 2628 3553 
L 2631 2963 
z
" transform="scale(0.015625)"/>
      <path id="DejaVuSans-4e" d="M 628 4666 
L 1478 4666 
L 3547 763 
L 3547 4666 
L 4159 4666 
L 4159 0 
L 3309 0 
L 1241 3903 
L 1241 0 
L 628 0 
L 628 4666 
z
" transform="scale(0.015625)"/>
      <path id="DejaVuSans-3d" d="M 678 2906 
L 4684 2906 
L 4684 2381 
L 678 2381 
L 678 2906 
z
M 678 1631 
L 4684 1631 
L 4684 1100 
L 678 1100 
L 678 1631 
z
" transform="scale(0.015625)"/>
      <path id="DejaVuSans-2c" d="M 750 794 
L 1409 794 
L 1409 256 
L 897 -744 
L 494 -744 
L 750 256 
L 750 794 
z
" transform="scale(0.015625)"/>
      <path id="DejaVuSans-4b" d="M 628 4666 
L 1259 4666 
L 1259 2694 
L 3353 4666 
L 4166 4666 
L 1850 2491 
L 4331 0 
L 3500 0 
L 1259 2247 
L 1259 0 
L 628 0 
L 628 4666 
z
" transform="scale(0.015625)"/>
      <path id="DejaVuSans-2e" d="M 684 794 
L 1344 794 
L 1344 0 
L 684 0 
L 684 794 
z
" transform="scale(0.015625)"/>
      <path id="DejaVuSans-76" d="M 191 3500 
L 800 3500 
L 1894 563 
L 2988 3500 
L 3597 3500 
L 2284 0 
L 1503 0 
L 191 3500 
z
" transform="scale(0.015625)"/>
      <path id="DejaVuSans-28" d="M 1984 4856 
Q 1566 4138 1362 3434 
Q 1159 2731 1159 2009 
Q 1159 1288 1364 580 
Q 1569 -128 1984 -844 
L 1484 -844 
Q 1016 -109 783 600 
Q 550 1309 550 2009 
Q 550 2706 781 3412 
Q 1013 4119 1484 4856 
L 1984 4856 
z
" transform="scale(0.015625)"/>
      <path id="DejaVuSans-6e" d="M 3513 2113 
L 3513 0 
L 2938 0 
L 2938 2094 
Q 2938 2591 2744 2837 
Q 2550 3084 2163 3084 
Q 1697 3084 1428 2787 
Q 1159 2491 1159 1978 
L 1159 0 
L 581 0 
L 581 3500 
L 1159 3500 
L 1159 2956 
Q 1366 3272 1645 3428 
Q 1925 3584 2291 3584 
Q 2894 3584 3203 3211 
Q 3513 2838 3513 2113 
z
" transform="scale(0.015625)"/>
      <path id="DejaVuSans-29" d="M 513 4856 
L 1013 4856 
Q 1481 4119 1714 3412 
Q 1947 2706 1947 2009 
Q 1947 1309 1714 600 
Q 1481 -109 1013 -844 
L 513 -844 
Q 928 -128 1133 580 
Q 1338 1288 1338 2009 
Q 1338 2731 1133 3434 
Q 928 4138 513 4856 
z
" transform="scale(0.015625)"/>
      <path id="DejaVuSans-71" d="M 947 1747 
Q 947 1113 1208 752 
Q 1469 391 1925 391 
Q 2381 391 2643 752 
Q 2906 1113 2906 1747 
Q 2906 2381 2643 2742 
Q 2381 3103 1925 3103 
Q 1469 3103 1208 2742 
Q 947 2381 947 1747 
z
M 2906 525 
Q 2725 213 2448 61 
Q 2172 -91 1784 -91 
Q 1150 -91 751 415 
Q 353 922 353 1747 
Q 353 2572 751 3078 
Q 1150 3584 1784 3584 
Q 2172 3584 2448 3432 
Q 2725 3281 2906 2969 
L 2906 3500 
L 3481 3500 
L 3481 -1331 
L 2906 -1331 
L 2906 525 
z
" transform="scale(0.015625)"/>
      <path id="DejaVuSans-75" d="M 544 1381 
L 544 3500 
L 1119 3500 
L 1119 1403 
Q 1119 906 1312 657 
Q 1506 409 1894 409 
Q 2359 409 2629 706 
Q 2900 1003 2900 1516 
L 2900 3500 
L 3475 3500 
L 3475 0 
L 2900 0 
L 2900 538 
Q 2691 219 2414 64 
Q 2138 -91 1772 -91 
Q 1169 -91 856 284 
Q 544 659 544 1381 
z
M 1991 3584 
L 1991 3584 
z
" transform="scale(0.015625)"/>
      <path id="DejaVuSans-63" d="M 3122 3366 
L 3122 2828 
Q 2878 2963 2633 3030 
Q 2388 3097 2138 3097 
Q 1578 3097 1268 2742 
Q 959 2388 959 1747 
Q 959 1106 1268 751 
Q 1578 397 2138 397 
Q 2388 397 2633 464 
Q 2878 531 3122 666 
L 3122 134 
Q 2881 22 2623 -34 
Q 2366 -91 2075 -91 
Q 1284 -91 818 406 
Q 353 903 353 1747 
Q 353 2603 823 3093 
Q 1294 3584 2113 3584 
Q 2378 3584 2631 3529 
Q 2884 3475 3122 3366 
z
" transform="scale(0.015625)"/>
      <path id="DejaVuSans-79" d="M 2059 -325 
Q 1816 -950 1584 -1140 
Q 1353 -1331 966 -1331 
L 506 -1331 
L 506 -850 
L 844 -850 
Q 1081 -850 1212 -737 
Q 1344 -625 1503 -206 
L 1606 56 
L 191 3500 
L 800 3500 
L 1894 763 
L 2988 3500 
L 3597 3500 
L 2059 -325 
z
" transform="scale(0.015625)"/>
     </defs>
     <use xlink:href="#DejaVuSans-50"/>
     <use xlink:href="#DejaVuSans-68" transform="translate(60.302734 0)"/>
     <use xlink:href="#DejaVuSans-61" transform="translate(123.681641 0)"/>
     <use xlink:href="#DejaVuSans-73" transform="translate(184.960938 0)"/>
     <use xlink:href="#DejaVuSans-65" transform="translate(237.060547 0)"/>
     <use xlink:href="#DejaVuSans-20" transform="translate(298.583984 0)"/>
     <use xlink:href="#DejaVuSans-70" transform="translate(330.371094 0)"/>
     <use xlink:href="#DejaVuSans-6c" transform="translate(393.847656 0)"/>
     <use xlink:href="#DejaVuSans-6f" transform="translate(421.630859 0)"/>
     <use xlink:href="#DejaVuSans-74" transform="translate(482.8125 0)"/>
     <use xlink:href="#DejaVuSans-20" transform="translate(522.021484 0)"/>
     <use xlink:href="#DejaVuSans-66" transform="translate(553.808594 0)"/>
     <use xlink:href="#DejaVuSans-6f" transform="translate(589.013672 0)"/>
     <use xlink:href="#DejaVuSans-72" transform="translate(650.195312 0)"/>
     <use xlink:href="#DejaVuSans-20" transform="translate(691.308594 0)"/>
     <use xlink:href="#DejaVuSans-4e" transform="translate(723.095703 0)"/>
     <use xlink:href="#DejaVuSans-20" transform="translate(797.900391 0)"/>
     <use xlink:href="#DejaVuSans-3d" transform="translate(829.6875 0)"/>
     <use xlink:href="#DejaVuSans-20" transform="translate(913.476562 0)"/>
     <use xlink:href="#DejaVuSans-31" transform="translate(945.263672 0)"/>
     <use xlink:href="#DejaVuSans-30" transform="translate(1008.886719 0)"/>
     <use xlink:href="#DejaVuSans-2c" transform="translate(1072.509766 0)"/>
     <use xlink:href="#DejaVuSans-20" transform="translate(1104.296875 0)"/>
     <use xlink:href="#DejaVuSans-4b" transform="translate(1136.083984 0)"/>
     <use xlink:href="#DejaVuSans-20" transform="translate(1201.660156 0)"/>
     <use xlink:href="#DejaVuSans-3d" transform="translate(1233.447266 0)"/>
     <use xlink:href="#DejaVuSans-20" transform="translate(1317.236328 0)"/>
     <use xlink:href="#DejaVuSans-30" transform="translate(1349.023438 0)"/>
     <use xlink:href="#DejaVuSans-2e" transform="translate(1412.646484 0)"/>
     <use xlink:href="#DejaVuSans-31" transform="translate(1444.433594 0)"/>
     <use xlink:href="#DejaVuSans-30" transform="translate(1508.056641 0)"/>
     <use xlink:href="#DejaVuSans-2c" transform="translate(1571.679688 0)"/>
     <use xlink:href="#DejaVuSans-20" transform="translate(1603.466797 0)"/>
     <use xlink:href="#DejaVuSans-76" transform="translate(1635.253906 0)"/>
     <use xlink:href="#DejaVuSans-61" transform="translate(1694.433594 0)"/>
     <use xlink:href="#DejaVuSans-72" transform="translate(1755.712891 0)"/>
     <use xlink:href="#DejaVuSans-20" transform="translate(1796.826172 0)"/>
     <use xlink:href="#DejaVuSans-3d" transform="translate(1828.613281 0)"/>
     <use xlink:href="#DejaVuSans-20" transform="translate(1912.402344 0)"/>
     <use xlink:href="#DejaVuSans-30" transform="translate(1944.189453 0)"/>
     <use xlink:href="#DejaVuSans-2e" transform="translate(2007.8125 0)"/>
     <use xlink:href="#DejaVuSans-31" transform="translate(2039.599609 0)"/>
     <use xlink:href="#DejaVuSans-30" transform="translate(2103.222656 0)"/>
     <use xlink:href="#DejaVuSans-2c" transform="translate(2166.845703 0)"/>
     <use xlink:href="#DejaVuSans-20" transform="translate(2198.632812 0)"/>
     <use xlink:href="#DejaVuSans-4b" transform="translate(2230.419922 0)"/>
     <use xlink:href="#DejaVuSans-20" transform="translate(2295.996094 0)"/>
     <use xlink:href="#DejaVuSans-28" transform="translate(2327.783203 0)"/>
     <use xlink:href="#DejaVuSans-65" transform="translate(2366.796875 0)"/>
     <use xlink:href="#DejaVuSans-6e" transform="translate(2428.320312 0)"/>
     <use xlink:href="#DejaVuSans-76" transform="translate(2491.699219 0)"/>
     <use xlink:href="#DejaVuSans-29" transform="translate(2550.878906 0)"/>
     <use xlink:href="#DejaVuSans-20" transform="translate(2589.892578 0)"/>
     <use xlink:href="#DejaVuSans-3d" transform="translate(2621.679688 0)"/>
     <use xlink:href="#DejaVuSans-20" transform="translate(2705.46875 0)"/>
     <use xlink:href="#DejaVuSans-30" transform="translate(2737.255859 0)"/>
     <use xlink:href="#DejaVuSans-2e" transform="translate(2800.878906 0)"/>
     <use xlink:href="#DejaVuSans-30" transform="translate(2832.666016 0)"/>
     <use xlink:href="#DejaVuSans-30" transform="translate(2896.289062 0)"/>
     <use xlink:href="#DejaVuSans-2c" transform="translate(2959.912109 0)"/>
     <use xlink:href="#DejaVuSans-20" transform="translate(2991.699219 0)"/>
     <use xlink:href="#DejaVuSans-65" transform="translate(3023.486328 0)"/>
     <use xlink:href="#DejaVuSans-6e" transform="translate(3085.009766 0)"/>
     <use xlink:href="#DejaVuSans-76" transform="translate(3148.388672 0)"/>
     <use xlink:href="#DejaVuSans-2e" transform="translate(3199.818359 0)"/>
     <use xlink:href="#DejaVuSans-20" transform="translate(3231.605469 0)"/>
     <use xlink:href="#DejaVuSans-66" transform="translate(3263.392578 0)"/>
     <use xlink:href="#DejaVuSans-72" transform="translate(3298.597656 0)"/>
     <use xlink:href="#DejaVuSans-65" transform="translate(3337.460938 0)"/>
     <use xlink:href="#DejaVuSans-71" transform="translate(3398.984375 0)"/>
     <use xlink:href="#DejaVuSans-75" transform="translate(3462.460938 0)"/>
     <use xlink:href="#DejaVuSans-65" transform="translate(3525.839844 0)"/>
     <use xlink:href="#DejaVuSans-6e" transform="translate(3587.363281 0)"/>
     <use xlink:href="#DejaVuSans-63" transform="translate(3650.742188 0)"/>
     <use xlink:href="#DejaVuSans-79" transform="translate(3705.722656 0)"/>
     <use xlink:href="#DejaVuSans-20" transform="translate(3764.902344 0)"/>
     <use xlink:href="#DejaVuSans-3d" transform="translate(3796.689453 0)"/>
     <use xlink:href="#DejaVuSans-20" transform="translate(3880.478516 0)"/>
     <use xlink:href="#DejaVuSans-32" transform="translate(3912.265625 0)"/>
    </g>
   </g>
  </g>
  <g id="axes_2">
   <g id="patch_7">
    <path d="M 52.688 606.04 
L 853.2 606.04 
L 853.2 345.48 
L 52.688 345.48 
z
" style="fill: #ffffff"/>
   </g>
   <g id="matplotlib.axis_3">
    <g id="xtick_7">
     <g id="line2d_38">
      <path d="M 89.074909 606.04 
L 89.074909 345.48 
" clip-path="url(#p09597c7b63)" style="fill: none; stroke: #b0b0b0; stroke-opacity: 0.4; stroke-width: 0.8; stroke-linecap: square"/>
     </g>
     <g id="line2d_39">
      <g>
       <use xlink:href="#ma663560c11" x="89.074909" y="606.04" style="stroke: #000000; stroke-width: 0.8"/>
      </g>
     </g>
     <g id="text_17">
      <!-- 0 -->
      <g transform="translate(85.893659 620.638437) scale(0.1 -0.1)">
       <use xlink:href="#DejaVuSans-30"/>
      </g>
     </g>
    </g>
    <g id="xtick_8">
     <g id="line2d_40">
      <path d="M 234.914224 606.04 
L 234.914224 345.48 
" clip-path="url(#p09597c7b63)" style="fill: none; stroke: #b0b0b0; stroke-opacity: 0.4; stroke-width: 0.8; stroke-linecap: square"/>
     </g>
     <g id="line2d_41">
      <g>
       <use xlink:href="#ma663560c11" x="234.914224" y="606.04" style="stroke: #000000; stroke-width: 0.8"/>
      </g>
     </g>
     <g id="text_18">
      <!-- 10 -->
      <g transform="translate(228.551724 620.638437) scale(0.1 -0.1)">
       <use xlink:href="#DejaVuSans-31"/>
       <use xlink:href="#DejaVuSans-30" transform="translate(63.623047 0)"/>
      </g>
     </g>
    </g>
    <g id="xtick_9">
     <g id="line2d_42">
      <path d="M 380.753539 606.04 
L 380.753539 345.48 
" clip-path="url(#p09597c7b63)" style="fill: none; stroke: #b0b0b0; stroke-opacity: 0.4; stroke-width: 0.8; stroke-linecap: square"/>
     </g>
     <g id="line2d_43">
      <g>
       <use xlink:href="#ma663560c11" x="380.753539" y="606.04" style="stroke: #000000; stroke-width: 0.8"/>
      </g>
     </g>
     <g id="text_19">
      <!-- 20 -->
      <g transform="translate(374.391039 620.638437) scale(0.1 -0.1)">
       <use xlink:href="#DejaVuSans-32"/>
       <use xlink:href="#DejaVuSans-30" transform="translate(63.623047 0)"/>
      </g>
     </g>
    </g>
    <g id="xtick_10">
     <g id="line2d_44">
      <path d="M 526.592854 606.04 
L 526.592854 345.48 
" clip-path="url(#p09597c7b63)" style="fill: none; stroke: #b0b0b0; stroke-opacity: 0.4; stroke-width: 0.8; stroke-linecap: square"/>
     </g>
     <g id="line2d_45">
      <g>
       <use xlink:href="#ma663560c11" x="526.592854" y="606.04" style="stroke: #000000; stroke-width: 0.8"/>
      </g>
     </g>
     <g id="text_20">
      <!-- 30 -->
      <g transform="translate(520.230354 620.638437) scale(0.1 -0.1)">
       <use xlink:href="#DejaVuSans-33"/>
       <use xlink:href="#DejaVuSans-30" transform="translate(63.623047 0)"/>
      </g>
     </g>
    </g>
    <g id="xtick_11">
     <g id="line2d_46">
      <path d="M 672.432169 606.04 
L 672.432169 345.48 
" clip-path="url(#p09597c7b63)" style="fill: none; stroke: #b0b0b0; stroke-opacity: 0.4; stroke-width: 0.8; stroke-linecap: square"/>
     </g>
     <g id="line2d_47">
      <g>
       <use xlink:href="#ma663560c11" x="672.432169" y="606.04" style="stroke: #000000; stroke-width: 0.8"/>
      </g>
     </g>
     <g id="text_21">
      <!-- 40 -->
      <g transform="translate(666.069669 620.638437) scale(0.1 -0.1)">
       <use xlink:href="#DejaVuSans-34"/>
       <use xlink:href="#DejaVuSans-30" transform="translate(63.623047 0)"/>
      </g>
     </g>
    </g>
    <g id="xtick_12">
     <g id="line2d_48">
      <path d="M 818.271484 606.04 
L 818.271484 345.48 
" clip-path="url(#p09597c7b63)" style="fill: none; stroke: #b0b0b0; stroke-opacity: 0.4; stroke-width: 0.8; stroke-linecap: square"/>
     </g>
     <g id="line2d_49">
      <g>
       <use xlink:href="#ma663560c11" x="818.271484" y="606.04" style="stroke: #000000; stroke-width: 0.8"/>
      </g>
     </g>
     <g id="text_22">
      <!-- 50 -->
      <g transform="translate(811.908984 620.638437) scale(0.1 -0.1)">
       <use xlink:href="#DejaVuSans-35"/>
       <use xlink:href="#DejaVuSans-30" transform="translate(63.623047 0)"/>
      </g>
     </g>
    </g>
    <g id="text_23">
     <!-- $t$ -->
     <g transform="translate(450.944 634.316562) scale(0.1 -0.1)">
      <use xlink:href="#DejaVuSans-Oblique-74" transform="translate(0 0.78125)"/>
     </g>
    </g>
   </g>
   <g id="matplotlib.axis_4">
    <g id="ytick_8">
     <g id="line2d_50">
      <path d="M 52.688 558.756385 
L 853.2 558.756385 
" clip-path="url(#p09597c7b63)" style="fill: none; stroke: #b0b0b0; stroke-opacity: 0.4; stroke-width: 0.8; stroke-linecap: square"/>
     </g>
     <g id="line2d_51">
      <g>
       <use xlink:href="#madb6851e37" x="52.688" y="558.756385" style="stroke: #000000; stroke-width: 0.8"/>
      </g>
     </g>
     <g id="text_24">
      <!-- 0.3 -->
      <g transform="translate(29.784875 562.555603) scale(0.1 -0.1)">
       <use xlink:href="#DejaVuSans-30"/>
       <use xlink:href="#DejaVuSans-2e" transform="translate(63.623047 0)"/>
       <use xlink:href="#DejaVuSans-33" transform="translate(95.410156 0)"/>
      </g>
     </g>
    </g>
    <g id="ytick_9">
     <g id="line2d_52">
      <path d="M 52.688 503.876857 
L 853.2 503.876857 
" clip-path="url(#p09597c7b63)" style="fill: none; stroke: #b0b0b0; stroke-opacity: 0.4; stroke-width: 0.8; stroke-linecap: square"/>
     </g>
     <g id="line2d_53">
      <g>
       <use xlink:href="#madb6851e37" x="52.688" y="503.876857" style="stroke: #000000; stroke-width: 0.8"/>
      </g>
     </g>
     <g id="text_25">
      <!-- 0.4 -->
      <g transform="translate(29.784875 507.676076) scale(0.1 -0.1)">
       <use xlink:href="#DejaVuSans-30"/>
       <use xlink:href="#DejaVuSans-2e" transform="translate(63.623047 0)"/>
       <use xlink:href="#DejaVuSans-34" transform="translate(95.410156 0)"/>
      </g>
     </g>
    </g>
    <g id="ytick_10">
     <g id="line2d_54">
      <path d="M 52.688 448.99733 
L 853.2 448.99733 
" clip-path="url(#p09597c7b63)" style="fill: none; stroke: #b0b0b0; stroke-opacity: 0.4; stroke-width: 0.8; stroke-linecap: square"/>
     </g>
     <g id="line2d_55">
      <g>
       <use xlink:href="#madb6851e37" x="52.688" y="448.99733" style="stroke: #000000; stroke-width: 0.8"/>
      </g>
     </g>
     <g id="text_26">
      <!-- 0.5 -->
      <g transform="translate(29.784875 452.796549) scale(0.1 -0.1)">
       <use xlink:href="#DejaVuSans-30"/>
       <use xlink:href="#DejaVuSans-2e" transform="translate(63.623047 0)"/>
       <use xlink:href="#DejaVuSans-35" transform="translate(95.410156 0)"/>
      </g>
     </g>
    </g>
    <g id="ytick_11">
     <g id="line2d_56">
      <path d="M 52.688 394.117803 
L 853.2 394.117803 
" clip-path="url(#p09597c7b63)" style="fill: none; stroke: #b0b0b0; stroke-opacity: 0.4; stroke-width: 0.8; stroke-linecap: square"/>
     </g>
     <g id="line2d_57">
      <g>
       <use xlink:href="#madb6851e37" x="52.688" y="394.117803" style="stroke: #000000; stroke-width: 0.8"/>
      </g>
     </g>
     <g id="text_27">
      <!-- 0.6 -->
      <g transform="translate(29.784875 397.917021) scale(0.1 -0.1)">
       <use xlink:href="#DejaVuSans-30"/>
       <use xlink:href="#DejaVuSans-2e" transform="translate(63.623047 0)"/>
       <use xlink:href="#DejaVuSans-36" transform="translate(95.410156 0)"/>
      </g>
     </g>
    </g>
    <g id="text_28">
     <!-- Order parameter $|&lt;e^{i\theta}&gt;|$ -->
     <g transform="translate(23.384875 541.86) rotate(-90) scale(0.1 -0.1)">
      <defs>
       <path id="DejaVuSans-4f" d="M 2522 4238 
Q 1834 4238 1429 3725 
Q 1025 3213 1025 2328 
Q 1025 1447 1429 934 
Q 1834 422 2522 422 
Q 3209 422 3611 934 
Q 4013 1447 4013 2328 
Q 4013 3213 3611 3725 
Q 3209 4238 2522 4238 
z
M 2522 4750 
Q 3503 4750 4090 4092 
Q 4678 3434 4678 2328 
Q 4678 1225 4090 567 
Q 3503 -91 2522 -91 
Q 1538 -91 948 565 
Q 359 1222 359 2328 
Q 359 3434 948 4092 
Q 1538 4750 2522 4750 
z
" transform="scale(0.015625)"/>
       <path id="DejaVuSans-64" d="M 2906 2969 
L 2906 4863 
L 3481 4863 
L 3481 0 
L 2906 0 
L 2906 525 
Q 2725 213 2448 61 
Q 2172 -91 1784 -91 
Q 1150 -91 751 415 
Q 353 922 353 1747 
Q 353 2572 751 3078 
Q 1150 3584 1784 3584 
Q 2172 3584 2448 3432 
Q 2725 3281 2906 2969 
z
M 947 1747 
Q 947 1113 1208 752 
Q 1469 391 1925 391 
Q 2381 391 2643 752 
Q 2906 1113 2906 1747 
Q 2906 2381 2643 2742 
Q 2381 3103 1925 3103 
Q 1469 3103 1208 2742 
Q 947 2381 947 1747 
z
" transform="scale(0.015625)"/>
       <path id="DejaVuSans-6d" d="M 3328 2828 
Q 3544 3216 3844 3400 
Q 4144 3584 4550 3584 
Q 5097 3584 5394 3201 
Q 5691 2819 5691 2113 
L 5691 0 
L 5113 0 
L 5113 2094 
Q 5113 2597 4934 2840 
Q 4756 3084 4391 3084 
Q 3944 3084 3684 2787 
Q 3425 2491 3425 1978 
L 3425 0 
L 2847 0 
L 2847 2094 
Q 2847 2600 2669 2842 
Q 2491 3084 2119 3084 
Q 1678 3084 1418 2786 
Q 1159 2488 1159 1978 
L 1159 0 
L 581 0 
L 581 3500 
L 1159 3500 
L 1159 2956 
Q 1356 3278 1631 3431 
Q 1906 3584 2284 3584 
Q 2666 3584 2933 3390 
Q 3200 3197 3328 2828 
z
" transform="scale(0.015625)"/>
       <path id="DejaVuSans-7c" d="M 1344 4891 
L 1344 -1509 
L 813 -1509 
L 813 4891 
L 1344 4891 
z
" transform="scale(0.015625)"/>
       <path id="DejaVuSans-3c" d="M 4684 3150 
L 1459 2003 
L 4684 863 
L 4684 294 
L 678 1747 
L 678 2266 
L 4684 3719 
L 4684 3150 
z
" transform="scale(0.015625)"/>
       <path id="DejaVuSans-Oblique-65" d="M 3078 2063 
Q 3088 2113 3092 2166 
Q 3097 2219 3097 2272 
Q 3097 2653 2873 2875 
Q 2650 3097 2266 3097 
Q 1838 3097 1509 2826 
Q 1181 2556 1013 2059 
L 3078 2063 
z
M 3578 1613 
L 903 1613 
Q 884 1494 878 1425 
Q 872 1356 872 1306 
Q 872 872 1139 634 
Q 1406 397 1894 397 
Q 2269 397 2603 481 
Q 2938 566 3225 728 
L 3116 159 
Q 2806 34 2476 -28 
Q 2147 -91 1806 -91 
Q 1078 -91 686 257 
Q 294 606 294 1247 
Q 294 1794 489 2264 
Q 684 2734 1063 3103 
Q 1306 3334 1642 3459 
Q 1978 3584 2356 3584 
Q 2950 3584 3301 3228 
Q 3653 2872 3653 2272 
Q 3653 2128 3634 1964 
Q 3616 1800 3578 1613 
z
" transform="scale(0.015625)"/>
       <path id="DejaVuSans-Oblique-69" d="M 1172 4863 
L 1747 4863 
L 1606 4134 
L 1031 4134 
L 1172 4863 
z
M 909 3500 
L 1484 3500 
L 800 0 
L 225 0 
L 909 3500 
z
" transform="scale(0.015625)"/>
       <path id="DejaVuSans-3e" d="M 678 3150 
L 678 3719 
L 4684 2266 
L 4684 1747 
L 678 294 
L 678 863 
L 3897 2003 
L 678 3150 
z
" transform="scale(0.015625)"/>
      </defs>
      <use xlink:href="#DejaVuSans-4f" transform="translate(0 0.982812)"/>
      <use xlink:href="#DejaVuSans-72" transform="translate(78.710938 0.982812)"/>
      <use xlink:href="#DejaVuSans-64" transform="translate(119.824219 0.982812)"/>
      <use xlink:href="#DejaVuSans-65" transform="translate(183.300781 0.982812)"/>
      <use xlink:href="#DejaVuSans-72" transform="translate(244.824219 0.982812)"/>
      <use xlink:href="#DejaVuSans-20" transform="translate(285.9375 0.982812)"/>
      <use xlink:href="#DejaVuSans-70" transform="translate(317.724609 0.982812)"/>
      <use xlink:href="#DejaVuSans-61" transform="translate(381.201172 0.982812)"/>
      <use xlink:href="#DejaVuSans-72" transform="translate(442.480469 0.982812)"/>
      <use xlink:href="#DejaVuSans-61" transform="translate(483.59375 0.982812)"/>
      <use xlink:href="#DejaVuSans-6d" transform="translate(544.873047 0.982812)"/>
      <use xlink:href="#DejaVuSans-65" transform="translate(642.285156 0.982812)"/>
      <use xlink:href="#DejaVuSans-74" transform="translate(703.808594 0.982812)"/>
      <use xlink:href="#DejaVuSans-65" transform="translate(743.017578 0.982812)"/>
      <use xlink:href="#DejaVuSans-72" transform="translate(804.541016 0.982812)"/>
      <use xlink:href="#DejaVuSans-20" transform="translate(845.654297 0.982812)"/>
      <use xlink:href="#DejaVuSans-7c" transform="translate(877.441406 0.982812)"/>
      <use xlink:href="#DejaVuSans-3c" transform="translate(930.615234 0.982812)"/>
      <use xlink:href="#DejaVuSans-Oblique-65" transform="translate(1033.886719 0.982812)"/>
      <use xlink:href="#DejaVuSans-Oblique-69" transform="translate(1100.060052 39.264062) scale(0.7)"/>
      <use xlink:href="#DejaVuSans-Oblique-3b8" transform="translate(1119.508294 39.264062) scale(0.7)"/>
      <use xlink:href="#DejaVuSans-3e" transform="translate(1184.55224 0.982812)"/>
      <use xlink:href="#DejaVuSans-7c" transform="translate(1287.823724 0.982812)"/>
     </g>
    </g>
   </g>
   <g id="line2d_58">
    <path d="M 89.074909 594.196364 
L 93.450089 590.390801 
L 97.825268 586.340003 
L 103.658841 580.581849 
L 109.492413 574.45168 
L 115.325986 567.994538 
L 122.617952 559.540375 
L 131.36831 548.977475 
L 145.952242 530.886478 
L 157.619387 516.538842 
L 164.911353 507.867189 
L 172.203319 499.556393 
L 178.036891 493.234553 
L 183.870464 487.251804 
L 189.704036 481.646389 
L 194.079216 477.709191 
L 198.454395 474.012909 
L 202.829575 470.566145 
L 207.204754 467.375376 
L 211.579934 464.445038 
L 215.955113 461.777641 
L 220.330293 459.37391 
L 224.705472 457.232944 
L 229.080651 455.352393 
L 233.455831 453.728631 
L 237.83101 452.356945 
L 242.20619 451.231708 
L 246.581369 450.346552 
L 250.956549 449.694528 
L 255.331728 449.268254 
L 259.706908 449.060044 
L 264.082087 449.06203 
L 268.457267 449.266261 
L 272.832446 449.664786 
L 277.207625 450.24973 
L 281.582805 451.013342 
L 287.416377 452.29635 
L 293.24995 453.86614 
L 299.083523 455.706011 
L 304.917095 457.799976 
L 310.750668 460.132731 
L 316.58424 462.689582 
L 322.417813 465.456332 
L 329.709779 469.188874 
L 337.001745 473.201081 
L 344.29371 477.466075 
L 353.044069 482.878497 
L 361.794428 488.563254 
L 372.00318 495.462295 
L 388.045505 506.627511 
L 402.629436 516.71357 
L 411.379795 522.503185 
L 418.671761 527.04679 
L 424.505334 530.425415 
L 430.338906 533.514158 
L 434.714086 535.603308 
L 439.089265 537.467091 
L 443.464445 539.077276 
L 447.839624 540.405345 
L 452.214803 541.423047 
L 455.13159 541.915532 
L 458.048376 542.250169 
L 460.965162 542.419662 
L 463.881949 542.417241 
L 466.798735 542.23677 
L 469.715521 541.872843 
L 472.632308 541.320881 
L 475.549094 540.57721 
L 478.46588 539.639139 
L 481.382666 538.505011 
L 484.299453 537.174252 
L 487.216239 535.647387 
L 490.133025 533.926057 
L 493.049812 532.013 
L 495.966598 529.912033 
L 500.341777 526.41912 
L 504.716957 522.53496 
L 509.092136 518.284396 
L 513.467316 513.69609 
L 517.842495 508.801863 
L 523.676068 501.8599 
L 529.50964 494.521238 
L 536.801606 484.925671 
L 547.010358 471.015041 
L 564.511076 447.061011 
L 571.803042 437.427736 
L 579.095007 428.169455 
L 584.92858 421.093416 
L 590.762153 414.351124 
L 596.595725 407.970927 
L 602.429298 401.973738 
L 608.26287 396.373689 
L 612.63805 392.439354 
L 617.013229 388.73453 
L 621.388409 385.259203 
L 625.763588 382.012088 
L 630.138768 378.990808 
L 634.513947 376.19206 
L 638.889127 373.611782 
L 643.264306 371.245291 
L 647.639486 369.087422 
L 652.014665 367.132638 
L 656.389844 365.375138 
L 660.765024 363.808946 
L 665.140203 362.427989 
L 669.515383 361.226159 
L 675.348955 359.891859 
L 681.182528 358.850996 
L 687.016101 358.089735 
L 692.849673 357.594723 
L 698.683246 357.353181 
L 704.516818 357.352951 
L 710.350391 357.582538 
L 716.183964 358.031122 
L 722.017536 358.688565 
L 727.851109 359.545405 
L 733.684681 360.592843 
L 740.976647 362.157794 
L 748.268613 363.993249 
L 755.560579 366.086017 
L 762.852544 368.424208 
L 770.14451 370.997122 
L 777.436476 373.795124 
L 784.728442 376.809517 
L 792.020407 380.032398 
L 800.770766 384.164881 
L 809.521125 388.575519 
L 816.813091 392.455521 
L 816.813091 392.455521 
" clip-path="url(#p09597c7b63)" style="fill: none; stroke: #ff0000; stroke-width: 2; stroke-linecap: square"/>
   </g>
   <g id="patch_8">
    <path d="M 52.688 606.04 
L 52.688 345.48 
" style="fill: none; stroke: #000000; stroke-width: 0.8; stroke-linejoin: miter; stroke-linecap: square"/>
   </g>
   <g id="patch_9">
    <path d="M 853.2 606.04 
L 853.2 345.48 
" style="fill: none; stroke: #000000; stroke-width: 0.8; stroke-linejoin: miter; stroke-linecap: square"/>
   </g>
   <g id="patch_10">
    <path d="M 52.688 606.04 
L 853.2 606.04 
" style="fill: none; stroke: #000000; stroke-width: 0.8; stroke-linejoin: miter; stroke-linecap: square"/>
   </g>
   <g id="patch_11">
    <path d="M 52.688 345.48 
L 853.2 345.48 
" style="fill: none; stroke: #000000; stroke-width: 0.8; stroke-linejoin: miter; stroke-linecap: square"/>
   </g>
   <g id="text_29">
    <!-- Order parameter for N = 10, K = 0.10, var = 0.10, K (env) = 0.00, env. frequency = 2 -->
    <g transform="translate(195.078062 339.48) scale(0.12 -0.12)">
     <use xlink:href="#DejaVuSans-4f"/>
     <use xlink:href="#DejaVuSans-72" transform="translate(78.710938 0)"/>
     <use xlink:href="#DejaVuSans-64" transform="translate(118.074219 0)"/>
     <use xlink:href="#DejaVuSans-65" transform="translate(181.550781 0)"/>
     <use xlink:href="#DejaVuSans-72" transform="translate(243.074219 0)"/>
     <use xlink:href="#DejaVuSans-20" transform="translate(284.1875 0)"/>
     <use xlink:href="#DejaVuSans-70" transform="translate(315.974609 0)"/>
     <use xlink:href="#DejaVuSans-61" transform="translate(379.451172 0)"/>
     <use xlink:href="#DejaVuSans-72" transform="translate(440.730469 0)"/>
     <use xlink:href="#DejaVuSans-61" transform="translate(481.84375 0)"/>
     <use xlink:href="#DejaVuSans-6d" transform="translate(543.123047 0)"/>
     <use xlink:href="#DejaVuSans-65" transform="translate(640.535156 0)"/>
     <use xlink:href="#DejaVuSans-74" transform="translate(702.058594 0)"/>
     <use xlink:href="#DejaVuSans-65" transform="translate(741.267578 0)"/>
     <use xlink:href="#DejaVuSans-72" transform="translate(802.791016 0)"/>
     <use xlink:href="#DejaVuSans-20" transform="translate(843.904297 0)"/>
     <use xlink:href="#DejaVuSans-66" transform="translate(875.691406 0)"/>
     <use xlink:href="#DejaVuSans-6f" transform="translate(910.896484 0)"/>
     <use xlink:href="#DejaVuSans-72" transform="translate(972.078125 0)"/>
     <use xlink:href="#DejaVuSans-20" transform="translate(1013.191406 0)"/>
     <use xlink:href="#DejaVuSans-4e" transform="translate(1044.978516 0)"/>
     <use xlink:href="#DejaVuSans-20" transform="translate(1119.783203 0)"/>
     <use xlink:href="#DejaVuSans-3d" transform="translate(1151.570312 0)"/>
     <use xlink:href="#DejaVuSans-20" transform="translate(1235.359375 0)"/>
     <use xlink:href="#DejaVuSans-31" transform="translate(1267.146484 0)"/>
     <use xlink:href="#DejaVuSans-30" transform="translate(1330.769531 0)"/>
     <use xlink:href="#DejaVuSans-2c" transform="translate(1394.392578 0)"/>
     <use xlink:href="#DejaVuSans-20" transform="translate(1426.179688 0)"/>
     <use xlink:href="#DejaVuSans-4b" transform="translate(1457.966797 0)"/>
     <use xlink:href="#DejaVuSans-20" transform="translate(1523.542969 0)"/>
     <use xlink:href="#DejaVuSans-3d" transform="translate(1555.330078 0)"/>
     <use xlink:href="#DejaVuSans-20" transform="translate(1639.119141 0)"/>
     <use xlink:href="#DejaVuSans-30" transform="translate(1670.90625 0)"/>
     <use xlink:href="#DejaVuSans-2e" transform="translate(1734.529297 0)"/>
     <use xlink:href="#DejaVuSans-31" transform="translate(1766.316406 0)"/>
     <use xlink:href="#DejaVuSans-30" transform="translate(1829.939453 0)"/>
     <use xlink:href="#DejaVuSans-2c" transform="translate(1893.5625 0)"/>
     <use xlink:href="#DejaVuSans-20" transform="translate(1925.349609 0)"/>
     <use xlink:href="#DejaVuSans-76" transform="translate(1957.136719 0)"/>
     <use xlink:href="#DejaVuSans-61" transform="translate(2016.316406 0)"/>
     <use xlink:href="#DejaVuSans-72" transform="translate(2077.595703 0)"/>
     <use xlink:href="#DejaVuSans-20" transform="translate(2118.708984 0)"/>
     <use xlink:href="#DejaVuSans-3d" transform="translate(2150.496094 0)"/>
     <use xlink:href="#DejaVuSans-20" transform="translate(2234.285156 0)"/>
     <use xlink:href="#DejaVuSans-30" transform="translate(2266.072266 0)"/>
     <use xlink:href="#DejaVuSans-2e" transform="translate(2329.695312 0)"/>
     <use xlink:href="#DejaVuSans-31" transform="translate(2361.482422 0)"/>
     <use xlink:href="#DejaVuSans-30" transform="translate(2425.105469 0)"/>
     <use xlink:href="#DejaVuSans-2c" transform="translate(2488.728516 0)"/>
     <use xlink:href="#DejaVuSans-20" transform="translate(2520.515625 0)"/>
     <use xlink:href="#DejaVuSans-4b" transform="translate(2552.302734 0)"/>
     <use xlink:href="#DejaVuSans-20" transform="translate(2617.878906 0)"/>
     <use xlink:href="#DejaVuSans-28" transform="translate(2649.666016 0)"/>
     <use xlink:href="#DejaVuSans-65" transform="translate(2688.679688 0)"/>
     <use xlink:href="#DejaVuSans-6e" transform="translate(2750.203125 0)"/>
     <use xlink:href="#DejaVuSans-76" transform="translate(2813.582031 0)"/>
     <use xlink:href="#DejaVuSans-29" transform="translate(2872.761719 0)"/>
     <use xlink:href="#DejaVuSans-20" transform="translate(2911.775391 0)"/>
     <use xlink:href="#DejaVuSans-3d" transform="translate(2943.5625 0)"/>
     <use xlink:href="#DejaVuSans-20" transform="translate(3027.351562 0)"/>
     <use xlink:href="#DejaVuSans-30" transform="translate(3059.138672 0)"/>
     <use xlink:href="#DejaVuSans-2e" transform="translate(3122.761719 0)"/>
     <use xlink:href="#DejaVuSans-30" transform="translate(3154.548828 0)"/>
     <use xlink:href="#DejaVuSans-30" transform="translate(3218.171875 0)"/>
     <use xlink:href="#DejaVuSans-2c" transform="translate(3281.794922 0)"/>
     <use xlink:href="#DejaVuSans-20" transform="translate(3313.582031 0)"/>
     <use xlink:href="#DejaVuSans-65" transform="translate(3345.369141 0)"/>
     <use xlink:href="#DejaVuSans-6e" transform="translate(3406.892578 0)"/>
     <use xlink:href="#DejaVuSans-76" transform="translate(3470.271484 0)"/>
     <use xlink:href="#DejaVuSans-2e" transform="translate(3521.701172 0)"/>
     <use xlink:href="#DejaVuSans-20" transform="translate(3553.488281 0)"/>
     <use xlink:href="#DejaVuSans-66" transform="translate(3585.275391 0)"/>
     <use xlink:href="#DejaVuSans-72" transform="translate(3620.480469 0)"/>
     <use xlink:href="#DejaVuSans-65" transform="translate(3659.34375 0)"/>
     <use xlink:href="#DejaVuSans-71" transform="translate(3720.867188 0)"/>
     <use xlink:href="#DejaVuSans-75" transform="translate(3784.34375 0)"/>
     <use xlink:href="#DejaVuSans-65" transform="translate(3847.722656 0)"/>
     <use xlink:href="#DejaVuSans-6e" transform="translate(3909.246094 0)"/>
     <use xlink:href="#DejaVuSans-63" transform="translate(3972.625 0)"/>
     <use xlink:href="#DejaVuSans-79" transform="translate(4027.605469 0)"/>
     <use xlink:href="#DejaVuSans-20" transform="translate(4086.785156 0)"/>
     <use xlink:href="#DejaVuSans-3d" transform="translate(4118.572266 0)"/>
     <use xlink:href="#DejaVuSans-20" transform="translate(4202.361328 0)"/>
     <use xlink:href="#DejaVuSans-32" transform="translate(4234.148438 0)"/>
    </g>
   </g>
  </g>
 </g>
 <defs>
  <clipPath id="p41fe4947d7">
   <rect x="52.688" y="26.88" width="800.512" height="260.56"/>
  </clipPath>
  <clipPath id="p09597c7b63">
   <rect x="52.688" y="345.48" width="800.512" height="260.56"/>
  </clipPath>
 </defs>
</svg>
